<svg width="151" height="34" viewBox="0 0 151 34" fill="none" xmlns="http://www.w3.org/2000/svg">
<path d="M19.0282 33.287L9.4297 20.6813V33.287H2.47705V4.7403H9.4297V17.2672L18.9494 4.7403H27.1232L16.0607 18.7313L27.5303 33.287H19.0282Z" fill="white"/>
<path d="M48.5988 23.6095H32.8551C32.9601 25.0211 33.4197 26.0978 34.2141 26.8397C35.0151 27.5881 35.9933 27.9558 37.162 27.9558C38.8952 27.9558 40.1032 27.2205 40.7794 25.7564H48.1785C47.7979 27.2467 47.1148 28.5927 46.1238 29.781C45.1324 30.9759 43.8914 31.9082 42.4012 32.5845C40.9107 33.2607 39.2431 33.6021 37.3983 33.6021C35.1727 33.6021 33.1965 33.1294 31.4567 32.1774C29.7235 31.232 28.3644 29.8729 27.3928 28.1134C26.4145 26.3538 25.9287 24.2923 25.9287 21.9287C25.9287 19.5717 26.408 17.5102 27.3731 15.7506C28.3316 13.991 29.684 12.632 31.4173 11.68C33.1505 10.7346 35.1464 10.2553 37.3983 10.2553C39.5911 10.2553 41.5477 10.7149 43.2546 11.6406C44.9616 12.5598 46.2942 13.8794 47.2593 15.5865C48.2244 17.2935 48.7039 19.2894 48.7039 21.5676C48.7171 22.2241 48.6776 22.907 48.5988 23.6095ZM41.6002 19.749C41.6002 18.5541 41.193 17.6086 40.3789 16.8995C39.5649 16.1971 38.5472 15.8425 37.3261 15.8425C36.164 15.8425 35.1792 16.1839 34.3783 16.8602C33.5773 17.5364 33.0849 18.5015 32.8945 19.749H41.6002Z" fill="white"/>
<path d="M58.9585 10.5966V33.2869H52.0059V10.5966H58.9585Z" fill="white"/>
<path d="M89.7891 10.2683C87.918 10.2683 86.2242 10.7411 84.7077 11.6931C83.1912 12.645 81.9896 13.9975 81.1099 15.7636C80.2301 17.5232 79.79 19.5716 79.79 21.9024C79.79 24.2331 80.2301 26.2881 81.1099 28.0608C81.9896 29.8335 83.1912 31.2057 84.7077 32.1708C86.2242 33.1359 87.9048 33.6152 89.7497 33.6152C91.3516 33.6152 92.7502 33.2869 93.958 32.6369C95.1662 31.9869 96.105 31.1334 96.7811 30.0764V33.2869H103.734V10.5966H96.7811V13.8071C96.1313 12.7501 95.199 11.8966 93.9974 11.2466C92.7896 10.5966 91.391 10.2683 89.7891 10.2683ZM96.1576 21.9417C96.1576 23.6751 95.6781 25.0472 94.7133 26.0518C93.7548 27.0563 92.5794 27.5553 91.1943 27.5553C89.8088 27.5553 88.6401 27.0497 87.6753 26.0321C86.7102 25.0144 86.2307 23.6422 86.2307 21.9024C86.2307 20.1691 86.7102 18.8035 87.6753 17.8121C88.6335 16.8207 89.8088 16.3283 91.1943 16.3283C92.5729 16.3283 93.7482 16.8273 94.7133 17.8318C95.6781 18.8363 96.1576 20.2085 96.1576 21.9417Z" fill="white"/>
<path d="M77.5781 29.8138C77.1971 29.0457 76.8822 28.2315 76.6261 27.3911H74.8206C74.0591 27.3911 73.5209 27.2467 73.1924 26.9447C72.864 26.6492 72.7064 26.1568 72.7064 25.4806V16.3743H76.6392H77.23H77.2628V16.2692V14.7001V10.6032H72.7064V5.06851H65.7538V10.6032H62.9897V16.3743H65.7538V25.4018C65.7538 28.1921 66.4566 30.2077 67.868 31.442C69.2794 32.6764 71.2425 33.2935 73.7635 33.2935H79.9546C79.0289 32.2824 78.2345 31.1269 77.5781 29.8138Z" fill="white"/>
<path d="M58.381 1.11613C57.5866 0.374232 56.6215 0 55.4856 0C54.3431 0 53.3779 0.367667 52.5836 1.103C51.7892 1.83833 51.3955 2.84942 51.3955 4.14282C51.3955 5.42965 51.7892 6.45386 52.5836 7.20889C53.3779 7.96392 54.3431 8.34472 55.479 8.34472C56.6149 8.34472 57.5866 7.97049 58.3744 7.22859C59.1688 6.4867 59.5625 5.46905 59.5625 4.17566C59.569 2.88225 59.1753 1.86459 58.381 1.11613Z" fill="white"/>
<path d="M142.614 11.6931C140.828 10.7477 138.819 10.2684 136.593 10.2684C134.368 10.2684 132.365 10.7411 130.573 11.6931C128.787 12.6451 127.376 14.0042 126.345 15.7834C125.314 17.5561 124.802 19.6111 124.802 21.9418C124.802 24.2988 125.308 26.3604 126.325 28.1265C127.343 29.8861 128.735 31.2451 130.514 32.1905C132.287 33.1425 134.289 33.6153 136.514 33.6153C138.734 33.6153 140.749 33.1425 142.555 32.1905C144.353 31.2451 145.778 29.8795 146.822 28.1068C147.866 26.3341 148.385 24.2791 148.385 21.9418C148.385 19.6111 147.872 17.5561 146.842 15.7834C145.811 14.0042 144.406 12.6451 142.614 11.6931ZM139.909 26.1306C138.977 27.1023 137.841 27.5947 136.514 27.5947C135.188 27.5947 134.079 27.1089 133.199 26.1306C132.319 25.1523 131.88 23.7605 131.88 21.9418C131.88 20.0969 132.326 18.6919 133.219 17.7334C134.112 16.7682 135.241 16.2889 136.593 16.2889C137.92 16.2889 139.042 16.7748 139.948 17.7531C140.854 18.7313 141.307 20.1232 141.307 21.9418C141.314 23.7605 140.848 25.1589 139.909 26.1306Z" fill="white"/>
<path d="M125.203 10.8462C124.513 10.5179 123.693 10.3537 122.603 10.3537C121.552 10.3537 119.753 10.7148 118.533 11.4305C117.311 12.1527 116.294 13.131 115.479 14.3784V10.5967H108.527V33.287H115.479V22.7559C115.479 20.8848 115.913 19.5782 116.78 18.8298C117.646 18.0879 118.946 17.7137 120.686 17.7137H121.369C121.717 16.3218 122.242 15.0152 122.944 13.8072C123.581 12.7042 124.336 11.7194 125.203 10.8462Z" fill="white"/>
</svg>
