<svg width="193" height="123" viewBox="0 0 193 123" fill="none" xmlns="http://www.w3.org/2000/svg">
<path d="M105.147 11.6998C115.735 10.2123 126.305 8.5996 136.855 6.86178C139.005 6.50994 141.118 7.07622 143.194 8.56063C144.121 9.22906 144.973 9.62268 145.749 9.74148C146.706 9.89038 147.674 9.96915 148.652 9.9778C150.282 9.98417 151.424 10.7126 152.079 12.1632C153.486 15.2774 155.829 16.9377 159.109 17.1442C160.294 17.2189 161.115 17.4766 161.573 17.9171C162.256 18.5734 162.662 19.4431 162.79 20.5261L161.571 22.7413C157.346 22.7772 154.584 20.6885 153.283 16.4751C152.952 15.3845 152.219 14.9164 151.085 15.0707C148.108 15.4774 145.521 14.5389 143.325 12.2553C141.992 10.8645 140.451 10.0831 138.701 9.91092C137.99 9.83754 136.446 9.92052 134.069 10.1599C132.876 10.2826 131.337 10.4754 129.452 10.7384C115.779 12.6419 107.063 13.922 103.305 14.5789C101.425 14.4729 99.5692 14.5823 97.7364 14.9071C94.9675 15.3944 93.5564 15.6416 93.5031 15.6486C83.2493 16.9791 72.9924 18.2855 62.7322 19.5677C61.999 19.6594 61.6612 20.0549 61.7187 20.7544C61.727 20.8524 61.7727 20.9477 61.8494 21.0272C61.9261 21.1068 62.0302 21.1666 62.1474 21.1987C62.6557 21.3478 63.0812 21.6183 63.424 22.0102C63.5074 22.1059 63.605 22.1811 63.7082 22.2292C63.8115 22.2773 63.9171 22.2968 64.0156 22.2858L70.7373 21.6069C70.9405 21.5848 71.1586 21.4756 71.3555 21.2972C72.5592 20.2058 74.0248 19.8852 75.7523 20.3353C71.3037 22.6101 66.613 23.5518 61.6802 23.1604C59.3309 22.9738 57.196 23.5152 55.2754 24.7844C54.8081 25.0963 53.5542 25.4136 51.5139 25.7363C51.4053 25.7532 51.2951 25.7359 51.2003 25.6871C51.1056 25.6384 51.0315 25.5608 50.9898 25.4665C50.772 24.9748 50.6645 24.4586 50.6674 23.9182C50.6681 23.8097 50.6314 23.7046 50.5636 23.6208C50.4958 23.537 50.4012 23.4798 50.296 23.4589C48.4603 23.0869 47.6741 23.5071 47.9374 24.7195C48.0497 25.235 48.1097 25.5217 48.1173 25.5796C48.9808 32.3251 49.5416 39.0957 49.7997 45.8914C49.8248 46.5313 49.6645 46.6825 49.319 46.345C49.2171 46.2455 49.1501 46.1119 49.1182 45.9443C48.8997 44.9223 48.6219 43.918 48.2847 42.9313C48.2741 42.8885 48.1014 42.1576 47.7665 40.7385C47.4334 39.334 46.5274 38.8444 45.0485 39.2699C43.907 39.597 43.3148 39.7658 43.2717 39.7764C41.4858 40.1196 39.6895 40.4027 37.8828 40.6259C37.1296 40.7153 36.8431 40.6008 37.0233 40.2825C37.0704 40.198 37.1462 40.1211 37.2453 40.0571C37.3444 39.9931 37.4643 39.9437 37.5964 39.9124L47.8976 37.5176C48.0288 37.4879 48.1449 37.4141 48.224 37.3101C48.3031 37.2061 48.3396 37.079 48.3267 36.9529L47.1661 24.3718C47.1565 24.266 47.1121 24.1668 47.0401 24.0906C46.9682 24.0144 46.873 23.9657 46.7703 23.9526C46.0967 23.8596 45.4411 23.9779 44.8033 24.3073C42.8571 24.3328 40.9352 24.5245 39.0377 24.8824C35.8114 25.4938 33.9287 25.889 33.3896 26.068C31.4083 26.7266 29.7965 27.9797 28.5541 29.8274C28.42 30.0236 28.2368 30.1822 28.0225 30.2877L24.6401 31.9262C24.4362 32.0252 24.2619 32.192 24.1405 32.4044C23.2937 33.9202 21.9149 34.8628 20.0041 35.2322C18.5171 35.5213 17.9436 35.1205 18.2837 34.0299C18.3219 33.9076 18.3317 33.7834 18.3119 33.6732C18.2922 33.563 18.2436 33.4718 18.1726 33.4112C17.6675 32.9867 16.9215 33.1684 15.9345 33.9563C15.0773 34.6436 14.3117 34.9948 13.6375 35.01L8.64945 35.1365C9.82535 34.8834 11.6064 34.3347 13.9927 33.4902C14.7146 33.238 15.1159 32.7998 15.1966 32.1754C15.2118 32.0637 15.2503 31.9584 15.309 31.8676C15.3677 31.7768 15.445 31.7031 15.5348 31.6521C16.0684 31.356 16.4764 30.9316 16.759 30.3789C17.3115 29.2898 18.0018 28.2905 18.8297 27.3812C18.9411 27.2531 19.1626 27.1394 19.4469 27.0643C19.8565 26.9514 20.1697 26.6499 20.3865 26.1599C20.5571 25.7692 20.8524 25.4062 21.2722 25.0711C21.7373 24.7054 22.0842 24.3971 22.3127 24.146C24.433 21.844 27.1499 20.7375 30.4636 20.8265C32.2214 20.87 34.1083 20.7124 36.1241 20.3537C36.1775 20.3466 36.6742 20.183 37.6143 19.8629C38.2424 19.6476 38.8668 19.6857 39.4876 19.9771C39.7286 20.0847 39.9711 20.1271 40.1847 20.0989C40.9118 19.9982 41.6357 19.8734 42.3565 19.7245C42.3898 19.7152 43.1118 19.6324 44.5225 19.4761C46.1086 19.3017 46.9542 18.3581 47.0594 16.6454C47.0805 16.3186 47.1278 16.0595 47.2013 15.8681C47.5605 14.9223 47.913 15.0134 48.259 16.1413C48.2914 16.249 48.3549 16.3427 48.4389 16.4068C48.5229 16.4709 48.6221 16.5013 48.7199 16.493C49.3441 16.4354 49.5518 16.0079 49.3432 15.2105C49.1848 14.6078 49.3291 14.4292 49.7761 14.6748C49.9094 14.7505 50.0275 14.8602 50.1303 15.0037C50.5295 15.5993 50.6881 16.1283 50.6058 16.5909C50.5865 16.697 50.593 16.8062 50.625 16.9093C50.657 17.0123 50.7135 17.1061 50.7897 17.1827C50.8659 17.2594 50.9595 17.3167 51.0627 17.3497C51.1659 17.3827 51.2755 17.3905 51.3824 17.3724C55.3682 16.6806 59.1989 16.2548 62.8746 16.0949C63.9298 16.0492 65.7023 16.1669 68.1923 16.4478C70.0921 16.669 71.8834 16.6664 73.5662 16.4399C80.4922 15.5132 91.0191 13.9332 105.147 11.6998Z" fill="#A6183D"/>
<path d="M76.756 23.2903C78.2616 23.3154 79.7432 23.4857 81.2007 23.8013C83.1645 24.2228 84.6291 24.4183 85.5944 24.3876C87.4034 24.327 88.9126 24.0902 90.1219 23.6772C92.0842 23.0078 93.7117 22.5905 95.0045 22.4253C96.0977 22.2864 96.6542 22.2157 96.6742 22.2131C101.733 21.3591 106.811 20.6271 111.908 20.0169C118.224 18.9568 123.452 17.7076 127.592 16.2693C128.834 15.8367 129.843 15.9272 130.619 16.5406C130.827 16.6999 131.057 16.7833 131.267 16.7751C132.408 16.7314 133.514 16.5147 134.584 16.1251C135.868 15.6567 136.764 15.4701 137.274 15.5654C138.263 15.7499 139.067 16.3469 139.687 17.3564C140.843 19.2343 142.445 20.3963 144.493 20.8422C145.758 21.1172 146.411 21.2621 146.454 21.2768C149.043 22.0169 151.736 22.8296 154.532 23.715C154.716 23.7741 154.882 23.8795 155.012 24.0211C155.143 24.1627 155.235 24.3356 155.278 24.5227C155.483 25.384 155.773 26.2162 156.147 27.0195C156.71 28.2448 157.07 28.9586 157.229 29.161C157.73 29.8106 158.492 30.2025 159.515 30.3369C161.596 30.6109 163.606 30.496 165.545 29.9921C165.614 29.9745 165.686 29.971 165.756 29.982C165.827 29.993 165.894 30.0182 165.954 30.056C166.014 30.0938 166.065 30.1434 166.105 30.2018C166.144 30.2601 166.171 30.3259 166.184 30.3951C166.752 33.5533 168.689 35.1227 171.996 35.1035C172.934 36.7563 173.827 37.8542 174.676 38.3973C175.879 39.1727 176.355 40.2646 176.104 41.6731C175.789 43.4046 176.216 44.6629 177.385 45.4479C177.581 45.5805 177.729 45.7745 177.808 46.0012C178.013 46.5934 178.381 47.0575 178.913 47.3936C179.003 47.4517 179.071 47.5377 179.104 47.6356C179.136 47.7335 179.131 47.8367 179.09 47.926C178.669 48.895 178.291 49.8786 177.955 50.8769C177.643 51.8214 177.539 52.8426 177.643 53.9404C178.176 59.7625 178.615 63.5391 178.96 65.2701C179.335 67.1544 179.467 68.7738 179.356 70.1283C179.348 70.2395 179.369 70.3507 179.419 70.45C179.468 70.5494 179.543 70.6333 179.636 70.6928C180.278 71.1005 180.813 71.6138 181.239 72.2326C181.303 72.3271 181.342 72.4373 181.352 72.553C181.362 72.6687 181.343 72.7863 181.296 72.8951C180.396 75.0743 179.614 77.291 178.952 79.5454C178.738 80.2739 178.278 81.21 177.57 82.3537C176.93 83.3871 176.51 84.5311 176.309 85.7857C176.032 87.5732 175.072 88.8568 173.429 89.6365C172.373 90.1359 171.278 90.5313 170.144 90.8227C168.739 90.9418 167.648 91.5649 166.873 92.6922C166.729 92.9091 166.553 93.0769 166.345 93.1956C164.73 94.1493 163.415 95.4137 162.399 96.9888C162.258 97.2011 162.069 97.366 161.852 97.4643C160.151 98.2263 158.819 98.6351 157.857 98.6907C155.496 98.8341 153.147 99.0699 150.81 99.3979C150.361 99.457 149.178 99.5163 147.262 99.5757C146.044 99.6093 144.867 99.8454 143.732 100.284C143.708 100.292 142.856 100.821 141.177 101.869C140.131 102.519 138.897 102.862 137.476 102.897C134.891 102.963 132.233 103.537 129.503 104.617C129.285 104.7 129.035 104.714 128.785 104.658C128.121 104.512 127.454 104.458 126.784 104.495C125.802 104.553 125.128 104.439 124.76 104.153C124.076 103.618 123.878 102.832 124.168 101.794L127.747 99.6102C130.061 99.1431 131.011 97.7594 130.596 95.4591C131.23 95.2639 131.862 95.2442 132.492 95.3998C132.217 97.593 133.048 98.4504 134.985 97.9721C135.604 97.8194 135.931 97.7408 135.966 97.7362C138.172 97.2936 140.37 96.8342 142.56 96.3579C142.826 96.2975 143.026 96.2129 143.159 96.104C143.501 95.8103 143.382 95.5418 142.801 95.2984C142.527 95.1823 141.678 95.1089 140.253 95.0783C139.93 94.3645 139.902 93.6906 140.169 93.0566C140.236 92.9058 140.554 92.5848 141.123 92.0936C141.511 91.7584 141.728 91.311 141.776 90.7514C142.362 90.4611 143.543 89.6763 145.319 88.397C146.176 87.7816 146.518 86.8485 146.343 85.5976C147.317 83.8199 148.976 83.1955 151.319 83.7244C152.074 84.3305 152.802 84.5619 153.504 84.4187C154.908 84.1374 156.201 83.3378 157.383 82.02C159.344 79.8383 160.702 77.335 161.456 74.5102C162.375 71.0801 161.682 68.0907 159.377 65.5419C159.211 65.362 158.986 65.2462 158.74 65.2146C156.791 64.979 154.849 65.0723 152.915 65.4944C151.542 65.8985 150.748 65.5336 150.533 64.3997C150.514 64.2939 150.471 64.19 150.406 64.094C150.341 63.998 150.256 63.9118 150.155 63.8405L148.142 62.4307C148.072 62.381 148.013 62.2981 147.97 62.1895C147.926 62.0809 147.9 61.9501 147.893 61.8088C147.86 61.2903 147.467 61.1213 146.714 61.3016C145.523 61.5803 144.337 61.8836 143.157 62.2115C141.593 61.1639 139.902 60.539 138.084 60.3369C137.584 60.2809 137.122 60.3188 136.698 60.4508C135.45 60.8435 135.414 61.437 136.59 62.2313C136.68 62.2923 136.786 62.3289 136.901 62.3377C137.015 62.3466 137.133 62.3276 137.244 62.2822C138.317 61.8414 139.319 61.9125 140.248 62.4956C140.448 62.6216 140.432 62.7303 140.2 62.8217L135.846 64.5064C133.927 64.2313 132.042 64.3832 130.189 64.9621C129.968 65.0306 129.719 65.012 129.489 64.9095C127.938 64.1901 126.211 64.2348 124.308 65.0437C120.756 66.5569 117.779 68.1492 115.375 69.8208C114.793 70.2222 114.141 70.9552 113.418 72.0197C112.746 73.0065 111.895 73.8216 110.863 74.465C110.671 74.5842 110.425 74.6406 110.161 74.626C108.958 74.5509 107.837 74.8026 106.796 75.3811C106.577 75.5032 106.331 75.5437 106.103 75.4952L105.271 75.3003C105.056 75.2474 104.816 75.2612 104.553 75.3415C103.904 75.5386 103.458 75.374 103.216 74.8476C103.161 74.7316 103.087 74.6307 103.002 74.5524C102.917 74.4741 102.821 74.4202 102.723 74.3949C100.529 73.8463 98.6562 74.4228 97.1039 76.1244C95.53 77.8543 93.5815 78.6665 91.2584 78.5613C90.4733 78.3805 90.1249 78.741 90.2132 79.643C90.2444 79.9919 90.1332 80.3614 89.9007 80.6814L86.1281 85.8525C85.9821 86.0544 85.8805 86.0348 85.8234 85.7936L84.363 79.6748C84.3359 79.5572 84.2793 79.45 84.1996 79.3651C84.1199 79.2802 84.0201 79.2209 83.9114 79.1938C83.0738 78.9995 82.6982 79.4043 82.7847 80.4079C82.8876 81.5363 82.9506 82.67 82.9737 83.8089L80.4377 84.5539C79.0215 83.7811 77.9191 83.9466 77.1306 85.0502C77.0619 85.1481 76.9751 85.2305 76.8758 85.2921C76.7764 85.3537 76.6666 85.3931 76.5534 85.4079C75.6454 85.5275 74.7992 85.8267 74.0147 86.3055C73.9729 86.3314 73.9262 86.3486 73.8779 86.3558C73.8296 86.363 73.7808 86.3601 73.735 86.3473C73.6891 86.3345 73.6473 86.3121 73.6124 86.2817C73.5774 86.2513 73.5502 86.2135 73.5326 86.1711L73.1158 85.1449C73.0702 85.0351 72.998 84.9415 72.9091 84.877C72.8202 84.8124 72.719 84.7799 72.6191 84.784C71.5663 84.8059 70.7513 85.2457 70.174 86.1033C70.1073 86.2011 70.0228 86.2843 69.9252 86.3482C69.8277 86.412 69.7193 86.4551 69.6063 86.4749C67.9822 86.7446 66.7197 87.6797 65.819 89.2803C65.6419 89.5929 65.517 89.5688 65.4441 89.2079L64.4113 84.1975C64.3874 84.0876 64.3301 83.987 64.2465 83.9085C64.163 83.83 64.057 83.7772 63.9422 83.7569C63.0642 83.6035 62.798 83.9329 63.1435 84.7451C63.3204 85.1634 63.4229 85.5178 63.451 85.8085C63.7995 89.4574 64.1455 93.1066 64.4891 96.7562C64.6851 98.862 65.6327 100.45 67.3317 101.521C68.779 101.218 69.8991 101.611 70.692 102.7C71.5832 103.917 71.365 104.669 70.0375 104.956C69.8897 104.989 69.7569 105.04 69.6509 105.103C69.5449 105.166 69.4692 105.24 69.4304 105.317C69.3607 105.443 69.3289 105.587 69.3349 105.748C68.0417 106.411 66.7401 107.801 65.4302 109.917C65.3495 110.049 65.2363 110.158 65.1012 110.234C64.9661 110.311 64.8136 110.352 64.6579 110.353C58.2978 110.425 52.0009 110.898 45.7671 111.775C45.3132 111.835 44.634 112.054 43.7296 112.432C43.0461 112.714 42.3293 112.86 41.5792 112.867C41.5131 112.868 41.4209 112.844 41.3101 112.797C41.1993 112.749 41.0731 112.679 40.9417 112.593L39.426 111.605C39.1959 111.454 39.0358 111.276 38.98 111.108L37.6832 107.099C37.6505 107.001 37.5807 106.917 37.4849 106.861C37.3891 106.804 37.2729 106.779 37.155 106.788L32.724 107.075C32.622 107.081 32.5182 107.114 32.4193 107.17C32.3205 107.226 32.2288 107.305 32.1503 107.402C31.8258 107.789 31.5153 107.589 31.2186 106.801C30.9925 106.201 30.2888 104.827 29.1076 102.679C29.0586 102.592 28.978 102.525 28.8793 102.49C28.7805 102.454 28.6694 102.452 28.5642 102.484C27.9282 102.664 27.3458 102.52 26.8172 102.052C26.6853 101.358 26.2542 100.897 25.5237 100.669C22.7198 101.576 21.0026 100.734 20.372 98.1421C20.118 97.0996 19.5865 96.2434 18.7776 95.5733C18.5767 95.406 18.4333 95.2024 18.3656 94.9881C18.013 93.852 17.7773 92.698 17.6585 91.526C17.4764 89.8345 17.3259 88.6718 17.2069 88.0378C16.6559 85.2023 16.2395 82.349 15.9579 79.4779C15.6665 76.532 15.3129 73.673 14.8971 70.9008C14.3457 67.2532 14.0049 63.5855 13.8746 59.8977C13.7777 57.312 13.6523 55.1258 13.4982 53.3393C13.3016 51.1524 13.1378 48.9636 13.0067 46.7732C12.9936 46.5224 13.0572 46.2771 13.1884 46.0717C14.6024 43.9366 16.505 42.4477 18.8962 41.605C19.5948 41.3608 20.2162 41.0303 20.7602 40.6135C21.3272 40.1785 21.919 39.7783 22.5358 39.4129C23.4031 38.9079 24.2459 38.2742 25.0642 37.5117C25.7162 36.9133 26.4202 36.3816 27.1761 35.9166C28.2987 35.2308 29.0155 34.738 29.3262 34.4383C30.3503 33.466 31.3224 32.196 32.2427 30.6284C32.3461 30.4488 32.5203 30.3163 32.7271 30.2601C36.0384 29.3521 39.469 28.8293 43.0188 28.6918C43.9829 28.6512 44.6203 28.212 44.9313 27.3742C45.5869 27.0341 46.2611 26.9123 46.9539 27.0089C47.0594 27.0226 47.1573 27.0729 47.2314 27.1518C47.3054 27.2306 47.3512 27.3331 47.3612 27.4425L48.5634 40.4469C48.5768 40.5773 48.5393 40.7086 48.4581 40.8161C48.3769 40.9235 48.2575 40.9997 48.1226 41.0303L37.5306 43.4984C37.3947 43.5306 37.2715 43.5816 37.1696 43.6477C37.0678 43.7137 36.9899 43.7932 36.9415 43.8804C36.7564 44.2093 37.0511 44.3279 37.8257 44.236C39.6835 44.0066 41.5306 43.7152 43.367 43.3617C43.4112 43.3508 44.0201 43.1768 45.1938 42.8395C46.7144 42.4008 47.6465 42.9074 47.99 44.3593C48.3354 45.8263 48.5135 46.5819 48.5244 46.6261C48.8719 47.6462 49.1583 48.6844 49.3837 49.7409C49.4167 49.9142 49.4856 50.0523 49.5905 50.1552C49.9461 50.5042 50.1107 50.3481 50.0845 49.6866C49.8144 42.6625 49.2329 35.6641 48.3402 28.6915C48.3323 28.6317 48.2704 28.3353 48.1546 27.8024C47.883 26.5491 48.6912 26.1153 50.5793 26.5011C50.6875 26.5227 50.7848 26.582 50.8546 26.6686C50.9243 26.7553 50.9621 26.864 50.9616 26.976C50.959 27.5347 51.0699 28.0682 51.2941 28.5766C51.3372 28.6741 51.4133 28.7543 51.5108 28.8048C51.6083 28.8553 51.7217 28.8732 51.8333 28.8558C53.9314 28.5238 55.2206 28.1967 55.7009 27.8746C57.6752 26.564 59.8704 26.006 62.2864 26.2005C67.3596 26.6084 72.1828 25.6384 76.756 23.2903ZM36.7989 35.2814C36.5466 35.8323 36.4068 36.409 36.3796 37.0115C36.2746 39.1823 37.0195 40.0789 38.6142 39.7015C38.7259 39.6747 38.8246 39.6121 38.8927 39.525C38.9607 39.4379 38.9937 39.332 38.9855 39.2263L38.7057 35.2511C38.6978 35.1375 38.6546 35.0279 38.5816 34.9361C38.5086 34.8442 38.409 34.774 38.2951 34.7342C37.5826 34.488 37.0838 34.6704 36.7989 35.2814ZM82.8203 35.0607C82.7891 36.6737 82.3017 39.2552 81.3582 42.8053C80.8868 44.5828 81.1921 44.9156 82.2739 43.8038C82.484 43.5883 82.648 43.3307 82.7659 43.031C83.8289 40.3889 84.4785 37.6516 84.7145 34.8189C84.7936 33.8391 84.7087 33.117 84.4597 32.6524C84.0971 31.9794 83.4567 31.5105 82.5387 31.2457C82.0166 31.0962 81.8742 31.2672 82.1115 31.7587C82.6069 32.7847 82.8432 33.8853 82.8203 35.0607ZM64.4822 37.0947L64.343 35.5752C64.3352 35.4772 64.3699 35.3763 64.4415 35.2893C64.5131 35.2024 64.6173 35.1345 64.7368 35.0971C66.1039 34.6481 65.9882 34.2903 64.3899 34.0236C63.8188 33.9263 63.2872 33.9937 62.7951 34.226C62.6951 34.2719 62.6128 34.3507 62.5602 34.4508C62.5076 34.5509 62.4875 34.6671 62.5028 34.7822L63.3029 40.8585C63.3188 40.9804 63.3675 41.0931 63.442 41.1805C63.5164 41.2678 63.6128 41.3253 63.7171 41.3445C64.4733 41.4987 64.6896 40.9246 64.3658 39.6223C64.3282 39.4687 64.3545 39.3045 64.4396 39.1612C64.5247 39.0179 64.6627 38.9057 64.827 38.846L69.6015 37.121C69.7168 37.0782 69.8176 37.0045 69.8925 36.9085C69.9674 36.8125 70.0132 36.698 70.0249 36.5781C70.0605 36.1166 69.6718 36.0942 68.8588 36.5108C67.6222 37.1406 66.3217 37.459 64.9574 37.4661C64.8373 37.4678 64.7215 37.4304 64.6334 37.3615C64.5452 37.2927 64.4912 37.1973 64.4822 37.0947ZM53.2786 39.9479C53.1896 40.0814 53.1437 40.2143 53.1408 40.3467L54.0429 48.9903C54.0711 49.281 54.1322 49.2831 54.2265 48.9966C54.7184 47.4905 54.8341 46.3841 54.5736 45.6774C53.9883 44.0847 54.337 43.2445 55.6196 43.1568C55.9209 43.1323 56.4743 43.2498 57.2799 43.5091C58.7579 43.9794 59.1115 43.273 58.3408 41.3901C57.8321 40.1477 57.5393 38.8489 57.4623 37.4938L56.9742 36.4465C58.853 36.1839 59.3504 35.7987 58.4664 35.2908C58.2743 35.1827 58.0285 35.1378 57.7644 35.1625L52.922 35.6783C52.8747 35.6834 52.829 35.6982 52.7877 35.7217C52.7464 35.7453 52.7104 35.777 52.6818 35.815C52.6533 35.853 52.6328 35.8965 52.6218 35.9428C52.6107 35.989 52.6093 36.037 52.6176 36.0838L53.2786 39.9479ZM72.8944 41.4303C72.9292 41.5837 73.0144 41.7204 73.1354 41.8169C73.2564 41.9135 73.4057 41.9639 73.5579 41.9596C75.5415 41.876 76.2127 41.308 75.5717 40.2556C75.5252 40.1783 75.4604 40.1137 75.3831 40.0673C75.3058 40.0209 75.2182 39.9942 75.1282 39.9895C75.0381 39.9848 74.9483 40.0023 74.8666 40.0404C74.7849 40.0786 74.7138 40.1362 74.6595 40.2082C74.3699 40.5915 74.111 40.7067 73.8829 40.5541C73.7437 40.4608 73.6626 40.2684 73.6394 39.9771C73.5361 38.6914 73.2567 37.4949 72.8013 36.3876C72.7738 36.32 72.7629 36.247 72.7695 36.174C72.7762 36.1011 72.8002 36.0302 72.8397 35.9669C72.8791 35.9036 72.9331 35.8495 72.9973 35.8088C73.0615 35.7682 73.1342 35.742 73.2099 35.7324L77.6898 35.1806C77.8177 35.1659 77.9381 35.1249 78.041 35.061C78.1438 34.9971 78.2261 34.9122 78.2809 34.8134C78.5 34.4344 78.4599 34.1301 78.1607 33.9005C77.9737 33.7525 77.6693 33.6759 77.2473 33.6706C75.5994 33.6439 73.6999 33.691 71.5486 33.8119C71.5034 33.814 71.4594 33.8266 71.4196 33.8485C71.3798 33.8705 71.3452 33.9014 71.3182 33.9391C71.2912 33.9767 71.2726 34.0202 71.2635 34.0665C71.2544 34.1128 71.2551 34.1607 71.2657 34.2069L72.8944 41.4303ZM68.443 39.192C68.0927 39.0757 67.7378 38.9626 67.3782 38.8526C66.2512 38.5037 66.0922 38.857 66.9011 39.9127C67.4343 40.6089 68.0745 40.8646 68.8216 40.68C68.9361 40.6536 69.0384 40.5921 69.1124 40.5052C69.1865 40.4182 69.228 40.3108 69.2304 40.1998C69.2522 39.7098 68.9897 39.3738 68.443 39.192ZM126.087 34.2131C127.161 34.3153 128.071 34.0203 128.818 33.3283C128.908 33.2463 128.982 33.1474 129.034 33.0373C129.086 32.9273 129.116 32.8082 129.122 32.6868C129.165 31.59 128.582 31.3825 127.372 32.0645C126.72 32.4295 126.182 32.8937 125.759 33.4569C125.418 33.9079 125.527 34.16 126.087 34.2131ZM92.4253 40.2765C92.6677 40.3197 92.9263 40.2147 93.1441 39.9846C93.3619 39.7545 93.5211 39.4182 93.5867 39.0497C93.6193 38.8672 93.6278 38.6823 93.6119 38.5055C93.596 38.3288 93.556 38.1636 93.4941 38.0194C93.4322 37.8753 93.3496 37.755 93.2512 37.6654C93.1527 37.5758 93.0403 37.5187 92.9202 37.4973C92.6778 37.4542 92.4193 37.5592 92.2015 37.7893C91.9837 38.0193 91.8244 38.3556 91.7588 38.7242C91.7263 38.9066 91.7178 39.0915 91.7337 39.2683C91.7496 39.4451 91.7896 39.6103 91.8515 39.7544C91.9134 39.8986 91.9959 40.0189 92.0944 40.1084C92.1928 40.198 92.3053 40.2551 92.4253 40.2765ZM85.7139 55.9959L85.6104 49.7745C85.6097 49.7042 85.5923 49.635 85.5597 49.5727C85.5271 49.5104 85.4803 49.4566 85.4229 49.4159C85.3656 49.3752 85.2994 49.3486 85.2298 49.3384C85.1602 49.3282 85.0891 49.3346 85.0225 49.3571C84.1631 49.653 83.4087 50.1482 82.7592 50.8428C82.5922 51.0263 82.4988 51.2636 82.4967 51.5092L82.3372 62.1502C82.3366 62.1965 82.3463 62.2423 82.3658 62.2844C82.3852 62.3266 82.4139 62.364 82.4498 62.3941C82.4857 62.4242 82.5279 62.4463 82.5735 62.4587C82.6191 62.4711 82.667 62.4736 82.7137 62.466L84.9488 62.0956C85.0475 62.0807 85.137 62.028 85.1997 61.9479C85.2624 61.8678 85.2938 61.7661 85.2877 61.6627C85.187 60.0113 85.9061 58.9777 87.445 58.5619C87.5368 58.5362 87.6361 58.5514 87.7214 58.6043C87.8068 58.6572 87.8712 58.7435 87.9009 58.8444C88.5257 61.046 89.7729 62.1151 91.6424 62.0517C92.9759 62.003 94.2756 61.4664 95.5415 60.442C96.7534 59.4704 97.683 58.2238 98.3302 56.7023C98.7488 55.7184 99.255 55.6695 99.8487 56.5556C100.77 57.9214 101.969 58.6263 103.446 58.6703C104.73 58.7093 105.885 58.2427 106.909 57.2704C108.041 56.1976 108.721 54.8266 108.948 53.1574C108.964 53.0349 108.942 52.9124 108.885 52.8151C108.828 52.7178 108.742 52.653 108.643 52.6342C108.383 52.5872 108.207 52.7525 108.114 53.1301C107.742 54.6611 106.848 55.766 105.43 56.445C104.141 57.0664 103.152 56.7424 102.462 55.4731C102.006 54.6297 101.693 53.7371 101.523 52.7951C100.897 49.2691 100.34 45.4471 99.8536 41.3292C99.7234 40.2247 99.6576 39.6674 99.6563 39.6575C99.3856 39.1044 98.6452 39.0318 97.4351 39.4399C97.2107 39.5157 97.016 39.6605 96.8788 39.8536C96.7415 40.0466 96.6687 40.2781 96.6708 40.515C96.6738 43.5445 96.8648 46.6914 97.2439 49.9556C97.7295 54.1448 96.3449 57.39 93.0902 59.6913C92.967 59.7768 92.8259 59.8328 92.6777 59.8552C92.5296 59.8775 92.3785 59.8655 92.2363 59.8202C92.094 59.7748 91.9643 59.6973 91.8575 59.5936C91.7506 59.49 91.6694 59.363 91.6201 59.2226C91.1534 57.9137 90.9165 56.5771 90.9094 55.2128C90.9041 54.4015 90.8737 53.8624 90.8183 53.5957C90.517 52.1939 89.7887 52.2137 88.6336 53.6549C87.8659 54.6087 86.9963 55.4438 86.0249 56.1605C85.8212 56.3091 85.7175 56.2543 85.7139 55.9959ZM107.936 40.1508C107.757 40.6463 107.792 41.0071 108.04 41.2333C108.201 41.3795 108.491 41.4428 108.91 41.4232C112.996 41.2354 116.854 40.1996 120.484 38.3158C120.715 38.1966 120.894 38.0176 120.995 37.8069C121.386 36.9587 121.002 36.6666 119.845 36.9307C115.938 37.8258 112.061 38.8133 108.214 39.8934C108.15 39.9111 108.092 39.9437 108.044 39.9885C107.995 40.0332 107.958 40.0889 107.936 40.1508ZM134.659 36.4112C133.755 36.2511 133.032 36.5442 132.491 37.2905C132.221 37.6661 131.85 37.9738 131.379 38.2134C130.885 38.4663 130.57 38.6778 130.435 38.8478C130.05 39.3147 130.122 39.6909 130.652 39.9764C130.876 40.0941 131.199 40.1607 131.623 40.176C132.73 40.223 133.892 40.377 135.109 40.638C135.261 40.6714 135.418 40.6694 135.568 40.632C135.718 40.5946 135.858 40.523 135.976 40.4226C136.094 40.3223 136.187 40.196 136.248 40.0537C136.309 39.9113 136.337 39.7568 136.328 39.6021C136.214 37.653 135.657 36.5894 134.659 36.4112ZM48.4664 60.7557C49.2587 63.458 49.8241 66.4795 50.1625 69.8202C50.1653 69.8807 50.1805 70.2847 50.2078 71.0322C50.2543 72.3102 50.7711 72.6507 51.7583 72.0538C51.8537 71.9956 51.9367 71.9143 52.0023 71.8153C52.0679 71.7162 52.1146 71.6014 52.1394 71.4783C52.9517 67.4329 55.0147 63.8674 58.3286 60.7818C58.7306 60.404 58.8809 60.4858 58.7796 61.0269C58.303 63.536 57.7312 65.9002 57.0642 68.1196C56.8827 68.7069 56.7923 69.1578 56.7932 69.4724C56.7915 70.4623 57.2892 70.7342 58.2861 70.2883C58.555 70.1717 58.8745 70.0738 59.2448 69.9946C59.5801 69.92 59.8957 69.7922 60.1916 69.6111C60.2888 69.5529 60.3726 69.4706 60.437 69.37C60.5014 69.2693 60.5448 69.1529 60.5641 69.0291C61.1595 65.2255 61.2574 61.2666 60.8578 57.1524C60.7862 56.4157 60.4977 56.3065 59.9925 56.8248L52.2766 64.7152C52.111 64.8842 52.0306 64.8516 52.0353 64.6175L52.0986 57.0039C52.1004 56.8863 52.0709 56.7703 52.0132 56.6678C51.9555 56.5654 51.8715 56.48 51.77 56.4206C51.6685 56.3612 51.5531 56.3298 51.4354 56.3296C51.3178 56.3295 51.2022 56.3606 51.1006 56.4197C49.1822 57.4996 47.6375 59.124 46.4665 61.2931C45.1438 63.7359 44.5726 63.2909 44.7529 59.9581C44.7992 59.1146 44.4494 58.8866 43.7036 59.2741C39.2199 61.5698 34.3318 63.1066 29.0392 63.8847C28.9426 63.898 28.8442 63.8898 28.7512 63.8608C28.6582 63.8318 28.5729 63.7827 28.5015 63.717C28.4302 63.6513 28.3746 63.5706 28.3387 63.481C28.3028 63.3914 28.2876 63.2949 28.2942 63.1987C28.5357 59.868 30.059 57.3683 32.8642 55.6997C32.9326 55.6593 33.0088 55.634 33.0876 55.6255C33.1664 55.617 33.246 55.6254 33.3208 55.6503C33.3957 55.6751 33.4641 55.7158 33.5213 55.7695C33.5785 55.8231 33.6232 55.8886 33.6523 55.9613C34.6852 58.5253 35.9574 58.84 37.4689 56.9052C37.621 56.7127 37.7027 56.4763 37.7004 56.2352C37.6963 55.0482 37.3984 53.9607 36.8064 52.9728C36.7495 52.8798 36.6642 52.8066 36.5619 52.7629C36.4596 52.7193 36.3451 52.7073 36.2337 52.7285C32.1538 53.5042 28.8028 55.4985 26.1807 58.7113C24.5108 60.7532 24.0643 63.0476 24.8412 65.5946C25.1346 66.5508 25.7819 67.034 26.7831 67.0443C28.7648 67.0624 30.6849 66.7081 32.5431 65.9813C32.7897 65.8879 33.0121 65.8231 33.2103 65.7869C34.0625 65.629 34.2941 65.6924 33.9053 65.977C33.7755 66.0702 33.6049 66.1435 33.3937 66.1967C28.6983 67.4239 27.1386 70.1873 28.7146 74.4866C29.0215 75.314 29.6141 75.6902 30.4924 75.6152C35.2444 75.2027 38.7725 73.7053 41.0767 71.1231C41.4614 70.6918 41.6938 70.7602 41.7736 71.3282C42.8771 78.9379 43.7452 86.571 44.3778 94.2275C44.5288 96.0297 45.1697 96.4452 46.3005 95.4741C46.3889 95.3978 46.4608 95.3016 46.5118 95.1914C46.5628 95.0812 46.5917 94.9595 46.5968 94.8337C46.8174 87.6434 46.7762 83.0329 46.4732 81.0021C45.723 75.9596 45.1277 70.9957 44.6875 66.1103C44.6588 65.7741 44.7247 65.4369 44.8776 65.1368C45.0306 64.8367 45.2644 64.586 45.5526 64.4129C46.9931 63.5584 47.7471 62.3654 47.8144 60.834C47.8731 59.5067 48.0905 59.4806 48.4664 60.7557ZM148.836 48.56C148.286 48.739 148.217 48.6261 148.631 48.2215L155.262 41.6919C155.909 41.0535 156.368 40.2751 156.637 39.3564C156.969 38.2164 156.62 37.6636 155.589 37.6978C155.145 37.7157 154.645 37.8856 154.088 38.2076C148.645 41.3503 144.615 45.7788 141.997 51.4931C141.979 51.5329 141.97 51.5766 141.972 51.6203C141.974 51.664 141.986 51.7065 142.008 51.7441C142.029 51.7816 142.059 51.8132 142.095 51.8361C142.131 51.859 142.172 51.8725 142.215 51.8755C148.748 52.4261 154.771 50.7398 160.284 46.8165C160.906 46.3743 161.42 45.8295 161.828 45.1821C162.683 43.8158 162.331 43.4586 160.773 44.1105C156.732 45.7997 152.753 47.2829 148.836 48.56ZM73.215 58.6085C73.5639 58.3291 73.8917 58.2555 74.1984 58.3876C74.4031 58.4774 74.57 58.7041 74.6991 59.0678C75.4917 61.3488 76.2636 62.9905 77.0148 63.993C77.8811 65.1375 78.8523 65.2279 79.9282 64.264C80.0047 64.1955 80.0517 64.0993 80.0604 63.9941C80.069 63.8889 80.0386 63.7822 79.975 63.6945C78.4852 61.7083 77.5467 59.3983 77.1593 56.7645C77.1342 56.5961 77.0702 56.436 76.9717 56.2958C76.8733 56.1556 76.7428 56.0386 76.5897 55.9533C76.4367 55.868 76.2647 55.8164 76.0862 55.8023C75.9077 55.7882 75.727 55.8118 75.5572 55.8716L72.245 57.0233C70.8231 57.2105 69.7764 57.8178 69.1047 58.8452C67.7373 60.9488 66.7916 62.3624 66.2677 63.0861C66.1174 63.2937 66.0177 63.2687 65.9686 63.0113C65.4402 60.193 64.9567 57.3689 64.5181 54.5388C64.4453 54.1018 64.4642 53.5511 64.5746 52.887C64.6683 52.3265 64.6858 51.7659 64.6272 51.2052C64.6031 50.9445 64.5115 50.9235 64.3525 51.1424C62.6575 53.5327 61.8352 55.7676 61.8856 57.8468C61.9609 61.0394 62.4835 64.1604 63.4535 67.2098C63.8766 68.5346 64.5561 68.742 65.4919 67.8321L69.7517 63.7008C69.7941 63.659 69.8455 63.6272 69.9016 63.6079C69.9576 63.5885 70.0168 63.5822 70.0742 63.5895C70.1316 63.5968 70.1857 63.6175 70.2319 63.6498C70.2781 63.6822 70.3152 63.7253 70.3401 63.7756C71.584 66.2458 72.4506 68.8572 72.9399 71.6095C73.017 72.0409 73.0267 71.961 72.9692 71.3697C72.6868 68.5698 72.3271 65.78 71.89 63.0005C71.5909 61.0758 72.0326 59.6118 73.215 58.6085ZM129.311 52.7981C128.496 53.8595 127.762 55.0449 127.107 56.3542C127.053 56.4593 127.027 56.576 127.03 56.694C127.033 56.812 127.066 56.9275 127.126 57.0299C127.185 57.1324 127.27 57.2187 127.371 57.281C127.473 57.3433 127.588 57.3796 127.707 57.3867C128.463 57.4241 129.224 57.1311 129.989 56.5076C133.082 53.9788 135.441 50.9784 137.064 47.5063C137.114 47.3985 137.136 47.2796 137.127 47.161C137.118 47.0424 137.079 46.9281 137.013 46.8291C136.948 46.73 136.857 46.6494 136.752 46.5952C136.646 46.5409 136.528 46.5148 136.409 46.5192C135.475 46.5559 134.672 46.8595 134.001 47.43C133.089 48.2099 132.26 49.0626 131.514 49.9881C130.79 50.8854 130.055 51.822 129.311 52.7981ZM144.604 55.4511C144.296 58.3897 145.25 59.4897 147.467 58.7511C148.134 58.5314 148.624 58.1877 148.938 57.7201C149.353 57.097 149.422 56.4458 149.145 55.7667C148.832 55.0061 148.247 54.5375 147.392 54.3608C146.531 54.1848 145.718 54.3528 144.953 54.8646C144.857 54.9271 144.775 55.0123 144.715 55.1138C144.654 55.2153 144.617 55.3305 144.604 55.4511ZM85.2306 74.8177C85.3938 74.759 85.5353 74.6448 85.6469 74.4816C85.7584 74.3185 85.838 74.1096 85.881 73.867C85.9239 73.6243 85.9295 73.3525 85.8974 73.0673C85.8652 72.782 85.7959 72.4888 85.6935 72.2043C85.4867 71.6299 85.1574 71.1261 84.7781 70.8038C84.3988 70.4816 84.0006 70.3672 83.671 70.4858C83.5078 70.5446 83.3664 70.6588 83.2548 70.8219C83.1432 70.985 83.0636 71.1939 83.0206 71.4366C82.9776 71.6793 82.9721 71.951 83.0042 72.2363C83.0364 72.5216 83.1056 72.8148 83.208 73.0992C83.4149 73.6736 83.7442 74.1774 84.1234 74.4997C84.5028 74.822 84.901 74.9364 85.2306 74.8177ZM63.4938 75.7843C63.552 77.2281 64.033 78.5301 64.9369 79.69C65.3208 80.1774 65.6195 80.133 65.8329 79.5568C66.3425 78.1853 66.4913 76.7904 66.2791 75.3718C66.1975 74.8294 65.9926 74.4097 65.6642 74.1129C65.0722 73.5869 64.5194 73.609 64.0057 74.1791C63.6426 74.5821 63.472 75.1172 63.4938 75.7843ZM57.5822 80.9641C57.6952 80.9383 57.7989 80.8765 57.8872 80.7823C57.9756 80.6881 58.0469 80.5634 58.0971 80.4153C58.1473 80.2672 58.1754 80.0986 58.1798 79.919C58.1842 79.7395 58.1648 79.5527 58.1228 79.3691C58.0807 79.1855 58.0169 79.0088 57.9348 78.8491C57.8526 78.6895 57.7539 78.5499 57.6442 78.4384C57.5346 78.3269 57.4161 78.2456 57.2956 78.1993C57.1751 78.153 57.0549 78.1425 56.9418 78.1684C56.8288 78.1942 56.7251 78.256 56.6368 78.3502C56.5484 78.4444 56.4771 78.5691 56.4269 78.7172C56.3767 78.8653 56.3486 79.0339 56.3442 79.2135C56.3398 79.393 56.3591 79.5798 56.4012 79.7634C56.4432 79.947 56.5072 80.1237 56.5893 80.2834C56.6714 80.443 56.7701 80.5826 56.8797 80.6941C56.9894 80.8056 57.1079 80.8869 57.2284 80.9332C57.3489 80.9795 57.4691 80.99 57.5822 80.9641Z" fill="#EE1247"/>
<path d="M44.9311 27.3734C44.6201 28.2112 43.9827 28.6504 43.0186 28.691C39.4688 28.8286 36.0382 29.3513 32.7269 30.2594C32.5201 30.3156 32.3459 30.448 32.2425 30.6276C31.3222 32.1953 30.3501 33.4652 29.326 34.4375C29.0153 34.7372 28.2986 35.23 27.1759 35.9158C26.42 36.3808 25.716 36.9125 25.064 37.5109C24.2457 38.2734 23.4029 38.9071 22.5356 39.4121C21.9188 39.7775 21.327 40.1778 20.76 40.6128C20.216 41.0295 19.5947 41.36 18.896 41.6043C16.5048 42.4469 14.6022 43.9358 13.1882 46.0709C13.057 46.2763 12.9935 46.5216 13.0065 46.7724C13.1376 48.9629 13.3014 51.1516 13.498 53.3385C13.6521 55.125 13.7776 57.3112 13.8744 59.897C14.0047 63.5848 14.3456 67.2524 14.8969 70.9C15.3127 73.6722 15.6663 76.5312 15.9577 79.4771C16.2393 82.3482 16.6557 85.2015 17.2067 88.0371C17.3257 88.671 17.4762 89.8337 17.6584 91.5252C17.7771 92.6972 18.0128 93.8512 18.3654 94.9873C18.4332 95.2016 18.5765 95.4052 18.7774 95.5726C19.5864 96.2426 20.1178 97.0988 20.3718 98.1414C21.0024 100.733 22.7196 101.575 25.5235 100.668C25.9006 103.724 26.4598 106.199 27.2012 108.091C27.3396 108.448 27.5077 108.568 27.7054 108.45C27.8003 108.396 27.8742 108.304 27.9163 108.188C27.9584 108.072 27.9667 107.937 27.9399 107.803L26.817 102.051C27.3456 102.519 27.928 102.663 28.564 102.483C28.6692 102.451 28.7803 102.454 28.8791 102.489C28.9779 102.524 29.0584 102.591 29.1074 102.678C30.2886 104.827 30.9923 106.201 31.2184 106.8C31.5151 107.588 31.8256 107.789 32.1501 107.401C32.2286 107.304 32.3203 107.225 32.4192 107.169C32.518 107.113 32.6218 107.08 32.7238 107.074L37.1548 106.787C37.2727 106.778 37.3889 106.804 37.4847 106.86C37.5805 106.916 37.6503 107 37.683 107.099L38.9798 111.107C39.0356 111.275 39.1957 111.454 39.4259 111.604L40.9415 112.592C41.0729 112.679 41.1991 112.748 41.3099 112.796C41.4207 112.843 41.5129 112.868 41.579 112.866C42.3291 112.859 43.046 112.714 43.7294 112.431C44.6338 112.053 45.313 111.834 45.7669 111.774C52.0007 110.898 58.2976 110.424 64.6577 110.353C64.8134 110.351 64.9659 110.31 65.101 110.234C65.2361 110.157 65.3493 110.048 65.43 109.916C66.7399 107.8 68.0415 106.41 69.3347 105.748C70.903 104.861 72.5657 104.345 74.323 104.2C76.2412 104.044 77.2152 103.964 77.2452 103.96C79.1549 103.663 81.1038 103.277 83.0916 102.802C84.3653 102.492 84.7922 102.959 84.3722 104.202C83.7036 106.178 84.1577 107.179 85.7344 107.204C86.014 107.208 86.8599 107.041 88.272 106.703C89.8318 106.33 91.3884 106.242 92.9419 106.438C98.4365 106.385 103.87 105.852 109.244 104.84C110.453 104.615 111.786 104.53 113.245 104.587C114.598 104.642 115.949 104.617 117.301 104.51C118.39 104.422 119.549 104.051 120.778 103.397C121.884 102.815 123.014 102.281 124.168 101.794C123.878 102.832 124.075 103.618 124.76 104.152C125.127 104.438 125.802 104.553 126.784 104.494C127.454 104.457 128.121 104.511 128.785 104.657C129.035 104.714 129.285 104.699 129.503 104.616C132.233 103.536 134.891 102.962 137.475 102.896C138.897 102.861 140.131 102.519 141.177 101.868C142.856 100.82 143.708 100.292 143.732 100.283C144.867 99.8447 146.044 99.6085 147.262 99.5749C149.178 99.5155 150.36 99.4563 150.809 99.3972C153.146 99.0691 155.496 98.8334 157.857 98.6899C158.819 98.6343 160.151 98.2255 161.852 97.4635C162.068 97.3652 162.258 97.2004 162.399 96.988C163.414 95.4129 164.73 94.1485 166.345 93.1949C166.553 93.0762 166.729 92.9083 166.873 92.6914C167.648 91.5642 168.738 90.941 170.144 90.8219C169.295 92.1213 168.276 93.2477 167.087 94.2011C166.65 94.5478 166.024 95.1911 165.209 96.1308C164.601 96.83 163.839 97.3618 162.922 97.7261C162.522 97.8854 162.35 98.0831 162.407 98.3193C162.426 98.3946 162.489 98.4734 162.588 98.5467C162.686 98.6199 162.817 98.6845 162.963 98.7332C164.126 99.1181 164.13 99.7875 162.977 100.741C162.331 101.273 161.504 101.62 160.495 101.784L153.278 102.939C141.04 103.967 128.87 105.496 116.769 107.526C115.071 107.815 112.732 108.085 109.75 108.336C107.636 108.513 105.291 108.796 102.713 109.186C97.1902 110.025 85.2007 111.477 66.7449 113.542C65.6996 113.659 65.0396 113.946 64.7648 114.404C63.9699 114.148 63.2215 114.247 62.5199 114.699C62.0225 114.43 61.5747 114.479 61.1765 114.846C59.4784 114.785 57.8934 115.121 56.4215 115.853C54.8604 116.023 53.3007 116.223 51.7425 116.454C51.6877 116.461 51.1691 116.473 50.1868 116.491C49.3362 116.506 48.7503 116.914 48.4291 117.712C48.3907 117.805 48.3206 117.881 48.2308 117.927C48.1411 117.974 48.0373 117.988 47.9375 117.967C46.9037 117.748 45.9147 117.926 44.9704 118.502C44.8089 117.199 44.469 117.18 43.9505 118.446L43.4491 118.512C42.9732 117.327 42.0423 117.079 40.6562 117.769C39.4025 117.035 38.2445 117.048 37.1822 117.807C37.0996 117.866 36.9985 117.903 36.8868 117.916C36.7751 117.93 36.6557 117.919 36.5377 117.885L34.0924 117.179C34.003 117.153 33.8966 117.158 33.7828 117.193C33.669 117.228 33.5515 117.292 33.4412 117.379C32.7942 117.9 32.1092 117.94 31.386 117.497C31.2982 117.445 31.2257 117.362 31.1759 117.257C31.126 117.153 31.1006 117.031 31.1022 116.903C31.1062 116.085 30.7808 115.811 30.126 116.08C29.7872 115.627 29.5902 115.711 29.535 116.333C29.4924 116.78 29.5398 117.218 29.6775 117.646C29.87 118.26 29.7777 118.6 29.4005 118.665C29.3011 118.681 29.1968 118.652 29.1085 118.581C29.0202 118.511 28.9544 118.406 28.9243 118.286C28.5537 116.781 28.4953 115.741 28.7493 115.165C29.2513 114.043 29.155 113.023 28.4606 112.104C28.381 112 28.2804 111.92 28.1703 111.871C28.0602 111.822 27.9451 111.807 27.838 111.828C27.4372 111.906 27.3712 112.215 27.64 112.753C28.0036 113.471 28.0231 114.159 27.6985 114.816C27.5864 115.044 27.4569 115.043 27.3099 114.814C26.4738 113.513 26.1525 113.578 26.346 115.009C26.3651 115.154 26.3405 115.16 26.2722 115.026C26.0723 114.626 25.7064 114.314 25.1744 114.09C24.9496 113.996 24.7613 113.833 24.6377 113.624C24.5141 113.415 24.4619 113.172 24.489 112.932C24.5799 112.042 24.4335 111.604 24.0497 111.619C23.4388 111.644 23.2783 111.388 23.5682 110.853C24.1632 109.744 23.9632 109.189 22.9684 109.188C22.8596 108.401 22.5426 108.326 22.0175 108.963C21.6549 108.483 21.235 108.358 20.7578 108.589C20.6414 108.645 20.5205 108.676 20.4082 108.679C20.296 108.682 20.1964 108.656 20.1203 108.604C19.5315 108.179 19.2906 107.526 19.3978 106.644C19.414 106.517 19.3977 106.389 19.3502 106.268C19.3027 106.146 19.2249 106.034 19.1223 105.94C19.0196 105.845 18.8944 105.77 18.7551 105.719C18.6157 105.668 18.4656 105.642 18.3146 105.644C16.3488 105.67 14.4854 105.24 12.7245 104.356C10.9856 103.483 9.93459 102.074 9.57167 100.127C9.25289 98.4381 8.91918 96.7514 8.57046 95.0666C8.19364 93.2841 7.90129 91.5843 7.69345 89.9673C6.33025 79.306 4.30885 64.4554 1.62927 45.4156C0.992253 40.8861 3.03529 38.5946 7.75841 38.5411L12.888 38.4138C13.5813 38.3986 14.3684 38.0361 15.2494 37.3263C16.2639 36.5127 17.031 36.3254 17.5507 36.7645C17.6238 36.8271 17.6738 36.9215 17.6942 37.0354C17.7146 37.1493 17.7046 37.2777 17.6654 37.4041C17.3164 38.5311 17.9064 38.9457 19.4355 38.6479C21.4002 38.2674 22.8175 37.2941 23.6873 35.7281C23.812 35.5086 23.9911 35.3364 24.2008 35.2341L27.678 33.543C27.8984 33.4341 28.0866 33.2703 28.2244 33.0676C29.5007 31.1587 31.1575 29.8646 33.1945 29.1853C33.7488 29.0006 35.6847 28.5935 39.0022 27.9638C40.9533 27.5952 42.9296 27.3984 44.9311 27.3734ZM5.99053 44.1943C5.98264 46.9867 6.15751 49.7602 6.51512 52.5146C6.93908 55.7729 7.15532 57.4345 7.16386 57.4994C8.2773 67.5744 9.59777 77.6221 11.1253 87.6426C11.1362 87.6868 11.3614 89.3777 11.8008 92.7152C12.1113 95.0343 12.549 97.2986 13.114 99.5081C13.186 99.7914 13.3389 100.042 13.5465 100.217C13.7541 100.392 14.0038 100.482 14.2531 100.47L18.3488 100.296C18.4446 100.291 18.5364 100.26 18.6158 100.206C18.6953 100.151 18.7598 100.074 18.8036 99.9822C18.8474 99.8902 18.8692 99.7861 18.8668 99.6792C18.8645 99.5722 18.8382 99.4659 18.7902 99.3697C18.1631 98.153 17.5364 97.0556 16.9102 96.0773C16.3351 95.1786 16.0712 94.2338 16.1183 93.243C16.1951 91.6291 16.2309 90.8022 16.2256 90.7622C15.908 86.9621 15.5533 83.9408 15.1616 81.6983C13.6907 73.2641 12.6167 64.78 11.9396 56.2463C11.937 56.2263 11.9158 55.4678 11.876 53.9708C11.8445 52.6909 11.6275 51.004 11.2249 48.9102C10.7834 46.5982 11.5688 44.5459 13.5812 42.7532C13.7946 42.5627 13.9191 42.3712 13.9547 42.1788C14.0342 41.742 13.8182 41.5471 13.3067 41.5941C10.9895 41.8028 8.6829 42.4593 6.38708 43.5635C6.26912 43.6205 6.16948 43.7098 6.0994 43.8213C6.02932 43.9328 5.9916 44.062 5.99053 44.1943ZM28.7602 107.269C28.8441 108.252 29.1887 109.019 29.7939 109.569C29.9955 109.75 30.096 109.704 30.0954 109.43C30.0842 107.148 29.4258 105.077 28.1204 103.219C27.9698 103 27.9266 103.019 27.9906 103.274C28.4243 105.064 28.6808 106.396 28.7602 107.269ZM36.9026 108.399C36.8771 108.168 36.7609 107.957 36.5797 107.812C36.3985 107.667 36.1671 107.6 35.9363 107.625L35.321 107.693C35.0903 107.718 34.879 107.835 34.7338 108.016C34.5887 108.197 34.5214 108.428 34.5469 108.659L34.9445 112.26C34.97 112.491 35.0862 112.702 35.2674 112.848C35.4486 112.993 35.6801 113.06 35.9109 113.034L36.5261 112.967C36.7569 112.941 36.9681 112.825 37.1133 112.644C37.2585 112.463 37.3257 112.231 37.3002 112L36.9026 108.399Z" fill="#CC1948"/>
<path d="M166.264 23.5492C166.708 24.3383 167.222 24.8264 167.805 25.0136C168.785 25.3261 169.582 26.1575 170.196 27.5079C170.274 27.6769 170.397 27.8214 170.551 27.9258C170.706 28.0303 170.887 28.0906 171.074 28.1003C172.196 28.1454 173.355 28.1425 174.551 28.0915C176.116 28.0276 177.268 28.079 178.005 28.2458C181.417 29.0248 183.58 31.2903 184.496 35.0422C184.896 36.6948 185.272 38.9926 185.624 41.9355C187.114 53.2551 188.553 64.5815 189.938 75.9149C190.119 77.4035 190.12 78.492 189.942 79.1803C189.62 80.3951 188.903 81.2939 187.792 81.8767C187.545 82.0056 186.731 82.3717 185.349 82.975C184.465 83.3602 183.585 83.5751 182.708 83.6195C180.444 83.7299 179.098 84.6684 178.671 86.435C178.399 87.5671 178.103 88.2887 177.783 88.5997C177.029 89.3437 175.865 90.0603 174.291 90.7497C174.102 90.8298 173.943 90.9665 173.834 91.1414C173.725 91.3162 173.672 91.521 173.681 91.7283C173.761 93.3418 173.646 94.9684 173.334 96.6082C173.173 97.4312 172.79 98.2202 172.184 98.975C171.696 99.5874 170.991 100.035 170.069 100.319C167.281 101.189 164.433 101.744 161.526 101.985C159.733 102.129 158.354 102.27 157.387 102.408C156.023 102.608 154.653 102.786 153.278 102.941L160.495 101.785C161.504 101.622 162.331 101.275 162.977 100.743C164.13 99.7893 164.126 99.1199 162.963 98.735C162.817 98.6864 162.686 98.6217 162.588 98.5485C162.489 98.4753 162.426 98.3965 162.406 98.3211C162.35 98.0849 162.522 97.8872 162.922 97.7279C163.839 97.3636 164.601 96.8319 165.209 96.1326C166.024 95.1929 166.65 94.5497 167.087 94.2029C168.276 93.2495 169.295 92.1231 170.144 90.8237C171.278 90.5323 172.373 90.1369 173.429 89.6375C175.072 88.8578 176.032 87.5742 176.309 85.7867C176.509 84.5322 176.93 83.3882 177.57 82.3548C178.277 81.2111 178.738 80.275 178.951 79.5464C179.614 77.2921 180.395 75.0753 181.296 72.8962C181.342 72.7874 181.362 72.6698 181.352 72.554C181.342 72.4383 181.303 72.3282 181.239 72.2337C180.813 71.6149 180.278 71.1016 179.636 70.6939C179.543 70.6344 179.468 70.5505 179.419 70.4511C179.369 70.3517 179.348 70.2405 179.356 70.1293C179.467 68.7748 179.335 67.1554 178.96 65.2711C178.615 63.5402 178.176 59.7636 177.643 53.9414C177.539 52.8436 177.643 51.8225 177.955 50.878C178.291 49.8796 178.669 48.896 179.089 47.9271C179.131 47.8377 179.136 47.7346 179.103 47.6367C179.071 47.5388 179.003 47.4528 178.913 47.3946C178.381 47.0586 178.013 46.5944 177.808 46.0022C177.729 45.7756 177.581 45.5816 177.385 45.4489C176.216 44.6639 175.789 43.4057 176.104 41.6741C176.355 40.2657 175.879 39.1737 174.675 38.3983C173.827 37.8553 172.934 36.7574 171.996 35.1046C174.26 35.6134 175.815 36.9516 176.658 39.1193C176.889 39.7182 177.316 41.5679 177.937 44.6682C177.984 44.9159 178.113 45.128 178.297 45.2604C178.662 45.527 179.276 45.913 180.139 46.4185C181.129 46.9987 181.418 47.7246 181.005 48.5961C180.98 48.6449 180.537 49.1297 179.673 50.0503C178.953 50.8202 178.626 51.8453 178.693 53.1256C179.014 59.2245 179.792 64.7657 181.026 69.7495C181.089 70.0017 181.228 70.2156 181.418 70.3526C181.84 70.6676 182.295 70.9248 182.783 71.1245C183.433 71.3942 183.855 71.6685 184.049 71.9475C184.546 72.6788 184.374 73.4121 183.531 74.1472C181.952 75.5276 181.513 77.1866 182.215 79.1243C182.256 79.238 182.322 79.3414 182.406 79.4275C182.491 79.5135 182.594 79.5802 182.707 79.6229C184.341 80.2351 185.62 79.8484 186.543 78.463C186.675 78.2695 186.729 78.021 186.695 77.7655C183.849 54.723 181.98 41.012 181.089 36.6327C180.325 32.876 178.164 31.1102 174.606 31.3351C172.768 31.4502 171.61 31.4225 171.131 31.2522C169.948 30.8243 169.029 29.9986 168.376 28.7753C168.274 28.5806 168.118 28.3956 167.907 28.2204L165.013 25.838L166.264 23.5492Z" fill="#CC1948"/>
<rect x="15.9727" y="56.0664" width="86.7993" height="48.6777" transform="rotate(-17.8813 15.9727 56.0664)" fill="#EE1247"/>
<rect x="49.4775" y="50.3447" width="113.216" height="62.6464" transform="rotate(-7.50114 49.4775 50.3447)" fill="#EE1247"/>
<rect x="33.7422" y="34.9075" width="55.8534" height="17.3599" transform="rotate(-7.50114 33.7422 34.9075)" fill="#EE1247"/>
<rect x="104.124" y="31.7305" width="40.7579" height="21.8885" transform="rotate(-7.50114 104.124 31.7305)" fill="#EE1247"/>
</svg>
