<svg width="48" height="48" viewBox="0 0 48 48" fill="none" xmlns="http://www.w3.org/2000/svg">
<path d="M0 20C0 8.95431 8.9543 0 20 0H43C45.7614 0 48 2.23858 48 5V28C48 39.0457 39.0457 48 28 48H5C2.23858 48 0 45.7614 0 43V20Z" fill="#3F68D2"/>
<path d="M24 33.25C23.8011 33.25 23.6103 33.329 23.4697 33.4697C23.329 33.6103 23.25 33.8011 23.25 34C23.25 34.1989 23.329 34.3897 23.4697 34.5303C23.6103 34.671 23.8011 34.75 24 34.75V33.25ZM19.955 34.684C20.0534 34.6899 20.1519 34.6764 20.2451 34.6442C20.3382 34.612 20.4241 34.5618 20.4978 34.4964C20.5715 34.4311 20.6317 34.3518 20.6748 34.2632C20.7179 34.1746 20.7431 34.0784 20.749 33.98C20.7549 33.8816 20.7414 33.7831 20.7092 33.6899C20.677 33.5968 20.6268 33.5109 20.5614 33.4372C20.4961 33.3635 20.4168 33.3033 20.3282 33.2602C20.2396 33.2171 20.1434 33.1919 20.045 33.186L19.955 34.684ZM14.25 24C14.25 25.874 14.25 27.83 14.419 29.466C14.504 30.286 14.634 31.055 14.841 31.71C15.044 32.356 15.344 32.966 15.82 33.389L16.816 32.268C16.633 32.105 16.439 31.79 16.271 31.26C16.107 30.74 15.991 30.082 15.911 29.312C15.751 27.769 15.75 25.897 15.75 24H14.25ZM24 34.75C26.102 34.75 27.746 34.751 29.027 34.598C30.32 34.444 31.357 34.121 32.18 33.389L31.184 32.268C30.689 32.708 30.006 32.971 28.849 33.108C27.679 33.248 26.14 33.25 24 33.25V34.75ZM20.045 33.186C18.331 33.083 17.431 32.815 16.816 32.268L15.82 33.389C16.836 34.292 18.183 34.577 19.955 34.684L20.045 33.186ZM32.25 24.387C32.25 26.219 32.237 28.003 32.072 29.467C31.99 30.198 31.872 30.82 31.712 31.312C31.548 31.812 31.36 32.111 31.184 32.268L32.18 33.389C32.64 32.98 32.935 32.396 33.137 31.779C33.343 31.151 33.475 30.417 33.563 29.635C33.739 28.073 33.749 26.203 33.75 24.388L32.25 24.387Z" fill="white"/>
<path d="M26.66 26.202L29.664 25.301M21.34 26.201L15.332 24.4C14.737 24.221 14.439 24.132 14.25 23.918C14.213 23.8762 14.1795 23.8314 14.15 23.784C14 23.541 14 23.231 14 22.609C14 20.159 14 18.934 14.673 18.107C14.803 17.947 14.948 17.802 15.107 17.673C15.934 17 17.159 17 19.609 17H28.391C30.841 17 32.066 17 32.893 17.673C33.053 17.803 33.198 17.948 33.327 18.107C34 18.934 34 20.159 34 22.609C34 23.231 34 23.541 33.85 23.784C33.8205 23.8314 33.787 23.8762 33.75 23.918C33.6 24.088 33.381 24.178 33 24.298" stroke="white" stroke-width="1.5" stroke-linecap="round"/>
<path d="M18.5 17C19.323 16.98 20.16 16.455 20.44 15.68L20.475 15.577L20.5 15.5C20.542 15.373 20.564 15.31 20.586 15.254C20.7273 14.9028 20.9653 14.5989 21.2724 14.3777C21.5795 14.1564 21.9432 14.0268 22.321 14.004C22.38 14 22.448 14 22.58 14H25.418C25.551 14 25.618 14 25.678 14.004C26.0558 14.0268 26.4195 14.1564 26.7266 14.3777C27.0337 14.5989 27.2717 14.9028 27.413 15.254C27.436 15.31 27.457 15.374 27.499 15.5L27.525 15.577C27.543 15.63 27.551 15.657 27.56 15.68C27.84 16.455 28.676 16.98 29.499 17" stroke="white" stroke-width="1.5"/>
<path d="M26 24.5H22C21.8674 24.5 21.7402 24.5527 21.6464 24.6464C21.5527 24.7402 21.5 24.8674 21.5 25V27.162C21.5 27.2619 21.5299 27.3594 21.5859 27.4421C21.6419 27.5248 21.7213 27.5889 21.814 27.626L22.514 27.906C23.4679 28.2877 24.5321 28.2877 25.486 27.906L26.186 27.626C26.2787 27.5889 26.3581 27.5248 26.4141 27.4421C26.4701 27.3594 26.5 27.2619 26.5 27.162V25C26.5 24.8674 26.4473 24.7402 26.3536 24.6464C26.2598 24.5527 26.1326 24.5 26 24.5Z" stroke="white" stroke-width="1.5" stroke-linecap="round"/>
</svg>
