<svg width="48" height="48" viewBox="0 0 48 48" fill="none" xmlns="http://www.w3.org/2000/svg">
<path d="M0 20C0 8.95431 8.9543 0 20 0H43C45.7614 0 48 2.23858 48 5V28C48 39.0457 39.0457 48 28 48H5C2.23858 48 0 45.7614 0 43V20Z" fill="#CF9641"/>
<path fill-rule="evenodd" clip-rule="evenodd" d="M28.4522 14.7351V15.77C31.4609 16.0619 33 17.7248 33 20.7145V28.9848C33 32.3106 31.1043 34 27.3739 34H20.6261C16.8957 34 15 32.3106 15 28.9848V20.7145C15 18.7243 15.6783 17.3002 17.0696 16.4687C17.2889 16.319 17.5726 16.3086 17.802 16.4418C18.0314 16.5749 18.1669 16.8288 18.1517 17.097C18.1365 17.3652 17.9733 17.6015 17.7304 17.7071C16.8087 18.2555 16.3739 19.2108 16.3739 20.7145V20.9798H29.0609C29.4403 20.9798 29.7478 21.2927 29.7478 21.6786C29.7478 22.0645 29.4403 22.3774 29.0609 22.3774H16.3739V28.9848C16.3739 31.5233 17.6087 32.5759 20.6261 32.5936H27.3739C30.3478 32.5936 31.6174 31.5145 31.6174 28.9759V20.7056C31.6174 18.4943 30.6522 17.424 28.4522 17.1675V17.8398C28.4014 18.1981 28.093 18.4596 27.7374 18.446C27.3818 18.4323 27.0936 18.1479 27.0696 17.7867V14.6732C27.0763 14.4862 27.1565 14.3098 27.2921 14.1834C27.4278 14.0571 27.6076 13.9913 27.7913 14.0009C28.17 14.0246 28.4623 14.3492 28.4522 14.7351ZM20.7088 18.2928C20.5781 18.4241 20.4011 18.4967 20.2174 18.4943C19.8414 18.4846 19.5429 18.1692 19.5478 17.7867V14.7351C19.5874 14.3771 19.885 14.1064 20.2391 14.1064C20.5933 14.1064 20.8909 14.3771 20.9304 14.7351V15.6992H24.8609C25.2403 15.6992 25.5478 16.0121 25.5478 16.398C25.5478 16.7839 25.2403 17.0968 24.8609 17.0968H20.913V17.7955C20.9131 17.9824 20.8395 18.1615 20.7088 18.2928ZM28.1913 24.6152C27.7111 24.6152 27.3217 25.0112 27.3217 25.4997C27.3217 25.9882 27.7111 26.3843 28.1913 26.3843C28.6716 26.3843 29.0609 25.9882 29.0609 25.4997C29.0609 25.2636 28.9681 25.0373 28.8031 24.8711C28.6382 24.705 28.4147 24.6128 28.1826 24.6152H28.1913ZM23.1478 25.4997C23.1478 25.0112 23.5371 24.6152 24.0174 24.6152C24.4976 24.6152 24.887 25.0112 24.887 25.4997C24.887 25.9882 24.4976 26.3843 24.0174 26.3843C23.5371 26.3843 23.1478 25.9882 23.1478 25.4997ZM19.8522 24.6152C19.3719 24.6152 18.9826 25.0112 18.9826 25.4997C18.9826 25.9882 19.3719 26.3843 19.8522 26.3843C20.3324 26.3843 20.7217 25.9882 20.7217 25.4997C20.7218 25.2636 20.6289 25.0373 20.464 24.8711C20.299 24.705 20.0756 24.6128 19.8435 24.6152H19.8522ZM27.3217 29.082C27.3217 28.5935 27.7111 28.1975 28.1913 28.1975H28.1826C28.4147 28.1952 28.6382 28.2873 28.8031 28.4534C28.9681 28.6196 29.0609 28.8459 29.0609 29.082C29.0609 29.5706 28.6716 29.9666 28.1913 29.9666C27.7111 29.9666 27.3217 29.5706 27.3217 29.082ZM24.0174 28.1975C23.5371 28.1975 23.1478 28.5935 23.1478 29.082C23.1478 29.5706 23.5371 29.9666 24.0174 29.9666C24.4976 29.9666 24.887 29.5706 24.887 29.082C24.887 28.5935 24.4976 28.1975 24.0174 28.1975ZM18.9826 29.082C18.9826 28.5935 19.3719 28.1975 19.8522 28.1975H19.8435C20.0756 28.1952 20.299 28.2873 20.464 28.4534C20.6289 28.6196 20.7218 28.8459 20.7217 29.082C20.7217 29.5706 20.3324 29.9666 19.8522 29.9666C19.3719 29.9666 18.9826 29.5706 18.9826 29.082Z" fill="white"/>
</svg>
