<svg width="48" height="48" viewBox="0 0 48 48" fill="none" xmlns="http://www.w3.org/2000/svg">
<path d="M0 20C0 8.95431 8.9543 0 20 0H43C45.7614 0 48 2.23858 48 5V28C48 39.0457 39.0457 48 28 48H5C2.23858 48 0 45.7614 0 43V20Z" fill="#3F68D2"/>
<path d="M34 24H14M24 14V34M25 24C25 25.0609 25.4214 26.0783 26.1716 26.8284C26.9217 27.5786 27.9391 28 29 28M23 24C23 25.0609 22.5786 26.0783 21.8284 26.8284C21.0783 27.5786 20.0609 28 19 28" stroke="white" stroke-width="1.5" stroke-linecap="round"/>
<path d="M24 22.035C24 21.3108 24.2422 20.6074 24.6879 20.0366C25.1337 19.4659 25.7574 19.0605 26.46 18.885C28.063 18.485 29.516 19.937 29.115 21.541C28.9395 22.2436 28.5341 22.8673 27.9634 23.3131C27.3926 23.7588 26.6892 24.0009 25.965 24.001H24M24 22.035V24.001M24 22.035C24 21.3108 23.7578 20.6074 23.3121 20.0366C22.8664 19.4659 22.2426 19.0605 21.54 18.885C19.937 18.485 18.484 19.937 18.885 21.541C19.0605 22.2436 19.4659 22.8673 20.0367 23.3131C20.6074 23.7588 21.3108 24.0009 22.035 24.001H24" stroke="white" stroke-width="1.5"/>
<path d="M34 24C34 28.714 34 31.071 32.535 32.535C31.072 34 28.714 34 24 34C19.286 34 16.929 34 15.464 32.535C14 31.072 14 28.714 14 24C14 19.286 14 16.929 15.464 15.464C16.93 14 19.286 14 24 14C28.714 14 31.071 14 32.535 15.464C33.509 16.438 33.835 17.807 33.945 20" stroke="white" stroke-width="1.5" stroke-linecap="round"/>
</svg>
