<svg width="48" height="48" viewBox="0 0 48 48" fill="none" xmlns="http://www.w3.org/2000/svg">
<path d="M0 20C0 8.95431 8.9543 0 20 0H43C45.7614 0 48 2.23858 48 5V28C48 39.0457 39.0457 48 28 48H5C2.23858 48 0 45.7614 0 43V20Z" fill="#CF9641"/>
<path fill-rule="evenodd" clip-rule="evenodd" d="M17.9569 19.6185C17.9569 20.0312 17.621 20.3661 17.207 20.3661C16.793 20.3661 16.457 20.0312 16.457 19.6185C16.457 16.7966 18.7599 14.5 21.5917 14.5C24.4225 14.5 26.7253 16.7966 26.7253 19.6185C26.7253 22.4404 24.4225 24.737 21.5917 24.737C20.4318 24.737 19.3388 24.3652 18.4329 23.6614C18.1059 23.4073 18.0469 22.9378 18.3019 22.6118C18.5569 22.2869 19.0269 22.2281 19.3538 22.4812C19.9948 22.9786 20.7687 23.2418 21.5917 23.2418C23.5956 23.2418 25.2254 21.616 25.2254 19.6185C25.2254 17.6209 23.5956 15.9952 21.5917 15.9952C19.5868 15.9952 17.9569 17.6209 17.9569 19.6185ZM27.2693 22.8872C27.2693 22.4746 27.6053 22.1397 28.0193 22.1397C29.4242 22.1397 30.5661 21.0003 30.5661 19.6008C30.5661 18.2014 29.4242 17.062 28.0193 17.062C27.6053 17.062 27.2693 16.7271 27.2693 16.3144C27.2693 15.9018 27.6053 15.5669 28.0193 15.5669C30.2511 15.5669 32.066 17.377 32.066 19.6008C32.066 21.8257 30.2511 23.6348 28.0193 23.6348C27.6053 23.6348 27.2693 23.2999 27.2693 22.8872ZM31.3144 25.9618C32.5793 26.21 33.4123 26.7204 33.7743 27.4779C34.0752 28.1089 34.0752 28.8306 33.7743 29.4615C33.4173 30.2121 32.5853 30.7255 31.3024 30.9876C31.2514 30.9976 31.2014 31.0026 31.1504 31.0026C30.8025 31.0026 30.4895 30.7593 30.4175 30.4055C30.3345 30.0008 30.5955 29.6061 31.0015 29.5233C31.7644 29.3678 32.2814 29.1117 32.4194 28.8206C32.5253 28.5973 32.5253 28.3421 32.4204 28.1209C32.2794 27.8278 31.7644 27.5736 31.0065 27.4251C30.4945 27.3115 29.9885 27.2387 29.4836 27.2048C29.0706 27.1759 28.7586 26.8201 28.7876 26.4084C28.8156 25.9947 29.1806 25.6917 29.5865 25.7126C30.1655 25.7525 30.7465 25.8362 31.3144 25.9618ZM21.5915 26.4178C19.7136 26.4178 14 26.4178 14 29.9694C14 30.7668 14.317 31.8742 15.8239 32.6119C16.2888 32.8381 16.8528 33.0225 17.4998 33.1601C17.9047 33.2488 18.3027 32.9886 18.3887 32.585C18.4757 32.1803 18.2167 31.7835 17.8117 31.6978C17.2848 31.5862 16.8378 31.4416 16.4838 31.2682C15.6119 30.8416 15.4999 30.3502 15.4999 29.9694C15.4999 28.2689 18.8127 27.913 21.5915 27.913C25.6332 27.913 27.6821 28.5988 27.6821 29.9495C27.6821 31.649 24.3703 32.0048 21.5915 32.0048C21.1775 32.0048 20.8415 32.3397 20.8415 32.7524C20.8415 33.1661 21.1775 33.5 21.5915 33.5C23.4684 33.5 29.182 33.5 29.182 29.9495C29.182 26.7837 24.8503 26.4178 21.5915 26.4178Z" fill="white"/>
</svg>
