<svg width="48" height="48" viewBox="0 0 48 48" fill="none" xmlns="http://www.w3.org/2000/svg">
<path d="M0 20C0 8.95431 8.9543 0 20 0H43C45.7614 0 48 2.23858 48 5V28C48 39.0457 39.0457 48 28 48H5C2.23858 48 0 45.7614 0 43V20Z" fill="#CF9641"/>
<path d="M29.4979 33.9194C29.3749 33.9224 29.2529 33.8914 29.1459 33.8294L24.0079 31.1234L19.4839 33.5594C18.7459 33.9594 17.8219 33.6854 17.4219 32.9464C17.4169 32.9374 17.4119 32.9284 17.4069 32.9184C17.2499 32.6094 17.1949 32.2604 17.2489 31.9184L18.1289 26.7244L14.4509 23.0004C13.8499 22.3804 13.8499 21.3944 14.4509 20.7734C14.6849 20.5274 14.9949 20.3684 15.3309 20.3224L20.3739 19.5564L22.6169 14.8834C22.9659 14.1234 23.8649 13.7894 24.6259 14.1384C24.9559 14.2894 25.2199 14.5544 25.3709 14.8834L27.6239 19.5724L32.6839 20.3474C33.0929 20.4084 33.4599 20.6344 33.6999 20.9714C34.1479 21.6154 34.0799 22.4854 33.5379 23.0524L29.8769 26.7324L30.3869 29.5314C30.4579 29.9514 30.1809 30.3524 29.7619 30.4314C29.3499 30.5054 28.9559 30.2314 28.8819 29.8184L28.3629 27.0194C28.2759 26.5064 28.4389 25.9824 28.8029 25.6114L32.4729 21.9054L27.4129 21.1204C26.8999 21.0374 26.4649 20.6974 26.2599 20.2204L24.0079 15.5514L21.7279 20.2944C21.5229 20.7724 21.0879 21.1114 20.5749 21.1944L15.5319 21.9604L19.1749 25.6604C19.5379 26.0254 19.7009 26.5424 19.6149 27.0494L18.7349 32.2434L23.2579 29.8174C23.7059 29.5654 24.2529 29.5654 24.7009 29.8174L29.8319 32.5234C30.1449 32.6944 30.3039 33.0554 30.2189 33.4024C30.1409 33.7494 29.8349 33.9964 29.4799 34.0024L29.4979 33.9194Z" fill="white"/>
</svg>
