<svg width="48" height="48" viewBox="0 0 48 48" fill="none" xmlns="http://www.w3.org/2000/svg">
<path d="M0 20C0 8.95431 8.9543 0 20 0H43C45.7614 0 48 2.23858 48 5V28C48 39.0457 39.0457 48 28 48H5C2.23858 48 0 45.7614 0 43V20Z" fill="#3F68D2"/>
<path fill-rule="evenodd" clip-rule="evenodd" d="M19.7849 14.5H28.2142C31.4044 14.5 34 17.1548 34 20.4189V27.5811C34 30.8452 31.4044 33.5 28.2142 33.5C27.8462 33.5 27.5476 33.1944 27.5476 32.8179C27.5476 32.4414 27.8462 32.1358 28.2142 32.1358C30.6693 32.1358 32.6667 30.0931 32.6667 27.5811V21.865H29.3831C28.3049 21.8659 27.4258 22.7645 27.4249 23.8686C27.4258 24.9727 28.3049 25.8713 29.3831 25.8722H30.7476C31.1156 25.8722 31.4142 26.1778 31.4142 26.5543C31.4142 26.9308 31.1156 27.2364 30.7476 27.2364H29.3831C27.5689 27.2355 26.0924 25.7248 26.0916 23.8686C26.0924 22.0123 27.5689 20.5017 29.3831 20.5008H32.6667V20.4189C32.6667 17.9069 30.6693 15.8642 28.2142 15.8642H19.7849C17.8062 15.8642 16.1458 17.1993 15.5671 19.0283H24.3547C24.7227 19.0283 25.0213 19.3339 25.0213 19.7104C25.0213 20.0879 24.7227 20.3925 24.3547 20.3925H15.336C15.336 20.3971 15.3353 20.4014 15.3347 20.4057C15.334 20.41 15.3333 20.4144 15.3333 20.4189V27.5811C15.3333 30.0931 17.3298 32.1358 19.7849 32.1358H24.0258C24.3938 32.1358 24.6924 32.4414 24.6924 32.8179C24.6924 33.1944 24.3938 33.5 24.0258 33.5H19.7849C16.5947 33.5 14 30.8452 14 27.5811V20.4189C14 17.1548 16.5947 14.5 19.7849 14.5ZM28.861 23.8071C28.861 23.4306 29.1596 23.125 29.5276 23.125H29.8308C30.1988 23.125 30.4974 23.4306 30.4974 23.8071C30.4974 24.1836 30.1988 24.4892 29.8308 24.4892H29.5276C29.1596 24.4892 28.861 24.1836 28.861 23.8071Z" fill="white"/>
</svg>
