<svg width="127" height="80" viewBox="0 0 127 80" fill="none" xmlns="http://www.w3.org/2000/svg">
<path d="M69.5239 7.60252C76.4512 6.63595 83.3661 5.58804 90.2686 4.45881C91.6752 4.23018 93.0576 4.59815 94.4157 5.56272C95.0222 5.99706 95.5792 6.25283 96.0867 6.33003C96.7131 6.42678 97.3463 6.47797 97.9864 6.48359C99.0525 6.48773 99.7998 6.96109 100.228 7.90367C101.149 9.92727 102.682 11.0061 104.828 11.1403C105.603 11.1889 106.14 11.3563 106.439 11.6426C106.887 12.069 107.152 12.6341 107.236 13.3378L106.438 14.7773C103.674 14.8006 101.867 13.4434 101.016 10.7055C100.8 9.99686 100.32 9.69267 99.5779 9.79293C97.6303 10.0572 95.9382 9.4474 94.5015 7.96349C93.6293 7.0598 92.6207 6.55201 91.4758 6.44013C91.0109 6.39245 90.0009 6.44637 88.4458 6.6019C87.6652 6.68165 86.6582 6.80696 85.4248 6.97784C76.4797 8.21469 70.7777 9.04654 68.3188 9.4734C67.0891 9.4045 65.8747 9.47559 64.6757 9.68664C62.8642 10.0033 61.941 10.1639 61.9061 10.1685C55.1978 11.033 48.4874 11.8819 41.7749 12.7151C41.2952 12.7747 41.0742 13.0317 41.1118 13.4862C41.1172 13.5499 41.1471 13.6118 41.1973 13.6635C41.2475 13.7152 41.3156 13.7541 41.3923 13.7749C41.7248 13.8718 42.0032 14.0476 42.2274 14.3022C42.282 14.3644 42.3459 14.4133 42.4134 14.4445C42.4809 14.4758 42.55 14.4884 42.6145 14.4813L47.0121 14.0402C47.145 14.0258 47.2876 13.9548 47.4165 13.8389C48.204 13.1298 49.1628 12.9214 50.293 13.2139C47.3826 14.692 44.3138 15.3039 41.0866 15.0496C39.5496 14.9284 38.1529 15.2801 36.8964 16.1049C36.5906 16.3076 35.7703 16.5138 34.4355 16.7235C34.3645 16.7344 34.2924 16.7232 34.2303 16.6915C34.1683 16.6598 34.1199 16.6094 34.0926 16.5482C33.9501 16.2286 33.8798 15.8932 33.8817 15.542C33.8821 15.4716 33.8581 15.4032 33.8138 15.3488C33.7694 15.2943 33.7076 15.2572 33.6387 15.2436C32.4377 15.0018 31.9234 15.2749 32.0956 16.0627C32.1691 16.3977 32.2083 16.584 32.2133 16.6216C32.7783 21.0048 33.1452 25.4043 33.314 29.8202C33.3304 30.236 33.2256 30.3342 32.9995 30.115C32.9328 30.0503 32.889 29.9635 32.8681 29.8546C32.7252 29.1905 32.5435 28.5379 32.3228 27.8968C32.3159 27.8689 32.2029 27.394 31.9838 26.4719C31.7659 25.5592 31.1732 25.2411 30.2056 25.5176C29.4588 25.7301 29.0714 25.8398 29.0432 25.8467C27.8748 26.0697 26.6996 26.2537 25.5176 26.3987C25.0248 26.4568 24.8374 26.3824 24.9553 26.1755C24.9861 26.1206 25.0357 26.0706 25.1005 26.0291C25.1653 25.9875 25.2438 25.9554 25.3302 25.9351L32.0696 24.3789C32.1554 24.3596 32.2314 24.3117 32.2831 24.2441C32.3349 24.1765 32.3588 24.0939 32.3503 24.012L31.591 15.8368C31.5847 15.7681 31.5557 15.7036 31.5086 15.6541C31.4615 15.6046 31.3993 15.5729 31.3321 15.5644C30.8914 15.504 30.4624 15.5808 30.0452 15.7949C28.772 15.8115 27.5146 15.936 26.2732 16.1686C24.1624 16.5659 22.9307 16.8227 22.578 16.939C21.2818 17.3669 20.2273 18.1812 19.4145 19.3818C19.3267 19.5094 19.2069 19.6124 19.0667 19.681L16.8538 20.7456C16.7204 20.81 16.6064 20.9184 16.5269 21.0564C15.973 22.0413 15.0709 22.6538 13.8208 22.8939C12.8479 23.0817 12.4728 22.8213 12.6952 22.1126C12.7203 22.0332 12.7267 21.9524 12.7137 21.8808C12.7008 21.8092 12.669 21.7499 12.6226 21.7106C12.2921 21.4347 11.8041 21.5528 11.1583 22.0648C10.5976 22.5114 10.0966 22.7396 9.65558 22.7495L6.39223 22.8317C7.16155 22.6672 8.32678 22.3107 9.88792 21.7619C10.3602 21.5981 10.6228 21.3133 10.6756 20.9076C10.6855 20.835 10.7107 20.7665 10.7491 20.7075C10.7875 20.6485 10.8381 20.6006 10.8969 20.5676C11.2459 20.3751 11.5129 20.0994 11.6978 19.7402C12.0592 19.0325 12.5108 18.3832 13.0525 17.7923C13.1253 17.7091 13.2703 17.6351 13.4562 17.5864C13.7242 17.513 13.9291 17.3171 14.0709 16.9987C14.1826 16.7448 14.3758 16.509 14.6504 16.2912C14.9547 16.0536 15.1817 15.8532 15.3312 15.6901C16.7183 14.1942 18.4958 13.4752 20.6637 13.5331C21.8138 13.5613 23.0482 13.4589 24.367 13.2258C24.402 13.2212 24.7269 13.1149 25.3419 12.9069C25.7528 12.767 26.1614 12.7917 26.5675 12.9811C26.7252 13.0511 26.8839 13.0786 27.0236 13.0602C27.4993 12.9948 27.9729 12.9138 28.4444 12.817C28.4662 12.811 28.9386 12.7572 29.8615 12.6556C30.8992 12.5422 31.4524 11.9291 31.5212 10.8162C31.535 10.6038 31.566 10.4355 31.6141 10.3111C31.849 9.69654 32.0797 9.75571 32.306 10.4886C32.3272 10.5586 32.3688 10.6195 32.4237 10.6612C32.4787 10.7028 32.5436 10.7226 32.6076 10.7172C33.0159 10.6797 33.1518 10.4019 33.0153 9.88379C32.9117 9.49215 33.0062 9.37611 33.2985 9.53568C33.3858 9.58489 33.463 9.65615 33.5303 9.74945C33.7915 10.1364 33.8952 10.4802 33.8414 10.7808C33.8287 10.8497 33.833 10.9207 33.854 10.9876C33.8749 11.0546 33.9119 11.1155 33.9617 11.1654C34.0115 11.2152 34.0728 11.2524 34.1403 11.2738C34.2078 11.2953 34.2795 11.3003 34.3495 11.2886C36.9571 10.8391 39.4633 10.5624 41.868 10.4584C42.5583 10.4288 43.718 10.5052 45.347 10.6878C46.5899 10.8316 47.7618 10.8298 48.8628 10.6827C53.394 10.0805 60.281 9.05378 69.5239 7.60252Z" fill="#A6183D"/>
<path d="M50.9498 15.134C51.9348 15.1503 52.9041 15.261 53.8577 15.4661C55.1425 15.74 56.1006 15.867 56.7322 15.847C57.9157 15.8077 58.903 15.6538 59.6942 15.3854C60.978 14.9504 62.0428 14.6793 62.8885 14.5719C63.6037 14.4817 63.9679 14.4357 63.9809 14.434C67.2908 13.8791 70.6129 13.4034 73.9472 13.007C78.0794 12.3181 81.4997 11.5064 84.2081 10.5718C85.0209 10.2907 85.6811 10.3494 86.1889 10.748C86.3247 10.8516 86.4753 10.9058 86.6125 10.9004C87.3592 10.872 88.0826 10.7312 88.7829 10.4781C89.6224 10.1737 90.209 10.0525 90.5426 10.1144C91.1894 10.2342 91.7156 10.6222 92.1213 11.2782C92.8775 12.4984 93.9255 13.2535 95.2655 13.5432C96.0928 13.722 96.5203 13.8161 96.5481 13.8256C98.2422 14.3065 100.004 14.8347 101.833 15.41C101.954 15.4484 102.062 15.5169 102.148 15.6089C102.233 15.7009 102.293 15.8132 102.321 15.9348C102.455 16.4945 102.645 17.0353 102.89 17.5572C103.258 18.3534 103.494 18.8172 103.598 18.9488C103.926 19.3709 104.424 19.6256 105.093 19.7128C106.455 19.8909 107.77 19.8163 109.038 19.4888C109.083 19.4774 109.131 19.4751 109.177 19.4823C109.223 19.4894 109.267 19.5058 109.306 19.5304C109.345 19.5549 109.379 19.5872 109.405 19.6251C109.43 19.663 109.448 19.7057 109.456 19.7507C109.828 21.8029 111.096 22.8227 113.259 22.8102C113.873 23.8842 114.457 24.5976 115.012 24.9505C115.799 25.4544 116.111 26.1639 115.946 27.0791C115.74 28.2043 116.02 29.0219 116.785 29.532C116.913 29.6182 117.01 29.7442 117.061 29.8915C117.195 30.2763 117.436 30.5779 117.784 30.7963C117.843 30.8341 117.888 30.8899 117.909 30.9536C117.93 31.0172 117.927 31.0842 117.9 31.1423C117.624 31.7719 117.377 32.411 117.158 33.0597C116.953 33.6735 116.885 34.337 116.953 35.0504C117.302 38.8336 117.589 41.2876 117.815 42.4124C118.06 43.6368 118.147 44.6891 118.074 45.5692C118.069 45.6415 118.083 45.7138 118.115 45.7783C118.147 45.8429 118.196 45.8974 118.257 45.9361C118.677 46.201 119.027 46.5346 119.306 46.9367C119.348 46.9981 119.373 47.0696 119.38 47.1448C119.386 47.22 119.374 47.2965 119.343 47.3671C118.754 48.7832 118.243 50.2236 117.809 51.6885C117.67 52.1619 117.368 52.7702 116.906 53.5133C116.487 54.1848 116.212 54.9282 116.081 55.7434C115.899 56.9049 115.271 57.739 114.196 58.2457C113.505 58.5702 112.789 58.8271 112.047 59.0165C111.128 59.0938 110.414 59.4988 109.907 60.2313C109.813 60.3722 109.698 60.4813 109.562 60.5584C108.505 61.1781 107.645 61.9997 106.98 63.0232C106.888 63.1612 106.764 63.2683 106.623 63.3321C105.509 63.8273 104.638 64.0929 104.009 64.1291C102.464 64.2223 100.927 64.3755 99.3979 64.5886C99.1042 64.6271 98.3307 64.6656 97.0773 64.7041C96.28 64.726 95.5101 64.8794 94.7676 65.1645C94.7517 65.1699 94.1946 65.5132 93.0962 66.1944C92.4117 66.617 91.6045 66.8396 90.6745 66.8623C88.9835 66.9054 87.2448 67.2779 85.4585 67.9798C85.3162 68.0339 85.1527 68.0432 84.9889 68.0066C84.5547 67.9117 84.1183 67.8764 83.6799 67.9007C83.0375 67.9386 82.596 67.8644 82.3555 67.6782C81.9077 67.3311 81.7786 66.8204 81.9681 66.1459L84.31 64.7266C85.8237 64.4231 86.445 63.5239 86.1738 62.0292C86.5886 61.9024 87.002 61.8895 87.4138 61.9907C87.2342 63.4158 87.7779 63.9729 89.0449 63.6621C89.4502 63.5629 89.6642 63.5119 89.687 63.5089C91.1298 63.2213 92.5678 62.9227 94.001 62.6132C94.1751 62.574 94.3057 62.519 94.3926 62.4483C94.6163 62.2574 94.5384 62.0829 94.1588 61.9248C93.9795 61.8493 93.4236 61.8016 92.4913 61.7818C92.2804 61.3179 92.2621 60.88 92.4366 60.4681C92.4801 60.3701 92.6882 60.1615 93.0609 59.8423C93.3143 59.6245 93.4567 59.3338 93.4882 58.9702C93.8716 58.7815 94.6441 58.2716 95.8056 57.4403C96.3668 57.0404 96.5903 56.434 96.4759 55.6212C97.113 54.4661 98.1981 54.0603 99.7312 54.404C100.225 54.7978 100.701 54.9482 101.161 54.8552C102.079 54.6724 102.925 54.1528 103.698 53.2965C104.981 51.8788 105.87 50.2522 106.363 48.4166C106.965 46.1878 106.511 44.2452 105.003 42.589C104.894 42.4722 104.747 42.3969 104.587 42.3764C103.311 42.2233 102.041 42.2839 100.776 42.5582C99.8774 42.8208 99.3578 42.5837 99.217 41.8469C99.2048 41.7781 99.1766 41.7106 99.1342 41.6482C99.0917 41.5858 99.0357 41.5298 98.9696 41.4835L97.6528 40.5674C97.6072 40.5351 97.5685 40.4812 97.54 40.4106C97.5115 40.3401 97.4942 40.2551 97.4896 40.1633C97.4682 39.8264 97.2113 39.7165 96.7188 39.8337C95.9393 40.0148 95.1635 40.2119 94.3916 40.425C93.3683 39.7442 92.2619 39.3382 91.0723 39.2068C90.7454 39.1704 90.4432 39.1951 90.1657 39.2809C89.3495 39.536 89.326 39.9217 90.095 40.4378C90.1537 40.4774 90.2236 40.5012 90.2982 40.507C90.3729 40.5128 90.45 40.5004 90.5227 40.4709C91.2252 40.1844 91.8805 40.2307 92.4885 40.6095C92.6189 40.6914 92.6084 40.7621 92.4569 40.8215L89.6086 41.9162C88.3531 41.7374 87.1193 41.8361 85.9075 42.2123C85.7626 42.2568 85.5998 42.2447 85.4497 42.1781C84.4348 41.7106 83.3047 41.7397 82.0595 42.2653C79.7361 43.2486 77.788 44.2833 76.2154 45.3695C75.8349 45.6303 75.4083 46.1066 74.9355 46.7983C74.4959 47.4395 73.9386 47.9692 73.2635 48.3873C73.1381 48.4647 72.9773 48.5013 72.8042 48.4919C72.0175 48.443 71.2838 48.6066 70.6031 48.9825C70.4598 49.0619 70.2986 49.0882 70.1497 49.0567L69.605 48.93C69.4643 48.8957 69.3078 48.9046 69.1354 48.9568C68.7108 49.0849 68.4193 48.9779 68.2611 48.6358C68.2246 48.5605 68.1767 48.495 68.1208 48.4441C68.0649 48.3931 68.0025 48.3582 67.9382 48.3417C66.503 47.9852 65.2776 48.3598 64.2621 49.4655C63.2323 50.5896 61.9576 51.1174 60.4377 51.0491C59.9241 50.9315 59.6961 51.1658 59.7539 51.7519C59.7743 51.9786 59.7016 52.2187 59.5495 52.4267L57.0813 55.7868C56.9858 55.918 56.9194 55.9053 56.882 55.7486L55.9266 51.7726C55.9088 51.6962 55.8718 51.6265 55.8196 51.5713C55.7675 51.5161 55.7022 51.4776 55.6311 51.46C55.0831 51.3338 54.8374 51.5968 54.894 52.249C54.9613 52.9822 55.0025 53.7188 55.0176 54.4589L53.3585 54.943C52.432 54.4409 51.7107 54.5484 51.1949 55.2655C51.1499 55.3291 51.0932 55.3827 51.0282 55.4227C50.9632 55.4627 50.8913 55.4883 50.8173 55.498C50.2232 55.5756 49.6696 55.7701 49.1564 56.0812C49.129 56.098 49.0984 56.1092 49.0668 56.1139C49.0352 56.1185 49.0034 56.1167 48.9734 56.1083C48.9434 56.1 48.916 56.0855 48.8931 56.0657C48.8703 56.046 48.8525 56.0214 48.841 55.9939L48.5683 55.3271C48.5384 55.2557 48.4912 55.1949 48.4331 55.1529C48.3749 55.111 48.3087 55.0899 48.2433 55.0925C47.5546 55.1068 47.0213 55.3925 46.6436 55.9498C46.6 56.0133 46.5447 56.0674 46.4809 56.1089C46.4171 56.1504 46.3462 56.1784 46.2722 56.1913C45.2097 56.3665 44.3838 56.9742 43.7945 58.0142C43.6786 58.2174 43.5969 58.2017 43.5492 57.9672L42.8735 54.7114C42.8579 54.64 42.8204 54.5746 42.7657 54.5236C42.7111 54.4726 42.6417 54.4383 42.5666 54.4251C41.9922 54.3254 41.8181 54.5395 42.0441 55.0673C42.1598 55.339 42.2269 55.5694 42.2453 55.7582C42.4733 58.1293 42.6997 60.5006 42.9244 62.8721C43.0527 64.2404 43.6726 65.2724 44.7842 65.968C45.731 65.7716 46.4638 66.027 46.9826 66.7341C47.5656 67.5252 47.4229 68.0139 46.5543 68.2C46.4577 68.2218 46.3708 68.2547 46.3014 68.2957C46.2321 68.3367 46.1825 68.3846 46.1572 68.435C46.1116 68.5168 46.0907 68.6102 46.0947 68.7152C45.2486 69.1458 44.3971 70.0486 43.5401 71.4238C43.4873 71.5095 43.4132 71.5805 43.3249 71.6301C43.2365 71.6797 43.1367 71.7064 43.0349 71.7075C38.8739 71.7537 34.7542 72.0617 30.6759 72.6313C30.3789 72.6701 29.9346 72.8123 29.3429 73.0579C28.8958 73.2417 28.4268 73.336 27.936 73.3408C27.8928 73.3417 27.8325 73.326 27.76 73.2951C27.6875 73.2642 27.6049 73.2189 27.519 73.1629L26.5274 72.5209C26.3768 72.4229 26.2721 72.307 26.2355 72.1979L25.3872 69.593C25.3658 69.5292 25.3201 69.4746 25.2574 69.4379C25.1948 69.4013 25.1187 69.3847 25.0416 69.3909L22.1427 69.5771C22.076 69.5812 22.0081 69.6022 21.9434 69.6388C21.8787 69.6754 21.8187 69.7267 21.7674 69.7894C21.5551 70.0414 21.3519 69.9113 21.1578 69.3992C21.0099 69.0096 20.5495 68.1167 19.7767 66.7205C19.7447 66.6641 19.692 66.6207 19.6274 66.5977C19.5627 66.5747 19.49 66.5733 19.4213 66.5938C19.0051 66.7109 18.6241 66.6173 18.2783 66.3129C18.192 65.8625 17.91 65.563 17.432 65.4145C15.5976 66.004 14.4742 65.4567 14.0617 63.7726C13.8955 63.0952 13.5478 62.5388 13.0186 62.1034C12.8871 61.9947 12.7933 61.8624 12.749 61.7231C12.5183 60.9849 12.3641 60.235 12.2864 59.4735C12.1673 58.3744 12.0688 57.6188 11.9909 57.2069C11.6304 55.3643 11.3581 53.5102 11.1738 51.6446C10.9831 49.7304 10.7518 47.8726 10.4798 46.0712C10.1191 43.701 9.8961 41.3178 9.81085 38.9215C9.74747 37.2412 9.66538 35.8207 9.56461 34.6598C9.43598 33.2387 9.32881 31.8165 9.24305 30.3931C9.23449 30.2302 9.27605 30.0708 9.36192 29.9373C10.287 28.5499 11.5317 27.5825 13.0961 27.0349C13.5532 26.8762 13.9597 26.6614 14.3156 26.3906C14.6865 26.108 15.0738 25.8479 15.4772 25.6104C16.0447 25.2823 16.5961 24.8705 17.1314 24.3751C17.558 23.9862 18.0185 23.6407 18.5131 23.3386C19.2476 22.8929 19.7165 22.5727 19.9198 22.3779C20.5897 21.7462 21.2258 20.921 21.8278 19.9023C21.8955 19.7856 22.0094 19.6995 22.1447 19.663C24.3111 19.073 26.5555 18.7333 28.8779 18.6439C29.5086 18.6175 29.9257 18.3321 30.1291 17.7877C30.558 17.5667 30.9991 17.4876 31.4523 17.5504C31.5214 17.5592 31.5854 17.592 31.6339 17.6432C31.6823 17.6944 31.7123 17.761 31.7188 17.8321L32.5054 26.2824C32.5141 26.367 32.4896 26.4524 32.4364 26.5222C32.3833 26.5921 32.3052 26.6416 32.2169 26.6614L25.2873 28.2652C25.1984 28.2861 25.1178 28.3193 25.0512 28.3622C24.9845 28.4051 24.9336 28.4568 24.9019 28.5135C24.7808 28.7272 24.9736 28.8042 25.4804 28.7445C26.6958 28.5954 27.9042 28.4061 29.1057 28.1764C29.1346 28.1693 29.533 28.0562 30.3008 27.8371C31.2957 27.552 31.9055 27.8811 32.1302 28.8246C32.3562 29.7779 32.4727 30.2688 32.4798 30.2976C32.7072 30.9604 32.8945 31.6351 33.042 32.3216C33.0636 32.4342 33.1087 32.5239 33.1773 32.5908C33.4099 32.8176 33.5176 32.7161 33.5005 32.2863C33.3238 27.722 32.9434 23.1745 32.3593 18.6437C32.3542 18.6048 32.3137 18.4122 32.2379 18.066C32.0602 17.2515 32.589 16.9697 33.8242 17.2204C33.895 17.2344 33.9587 17.2729 34.0043 17.3292C34.0499 17.3855 34.0747 17.4562 34.0743 17.529C34.0726 17.892 34.1451 18.2387 34.2919 18.5691C34.32 18.6324 34.3698 18.6845 34.4336 18.7173C34.4974 18.7501 34.5716 18.7618 34.6446 18.7505C36.0172 18.5347 36.8607 18.3222 37.1749 18.1129C38.4665 17.2613 39.9027 16.8987 41.4834 17.025C44.8024 17.2901 47.9579 16.6598 50.9498 15.134ZM24.8086 22.9258C24.6436 23.2838 24.5521 23.6585 24.5343 24.05C24.4656 25.4606 24.9529 26.0432 25.9962 25.798C26.0693 25.7805 26.1339 25.7399 26.1784 25.6833C26.223 25.6267 26.2445 25.5579 26.2392 25.4892L26.0561 22.9061C26.0509 22.8323 26.0227 22.7611 25.9749 22.7014C25.9272 22.6417 25.862 22.5961 25.7875 22.5702C25.3213 22.4102 24.9951 22.5288 24.8086 22.9258ZM54.9173 22.7824C54.8968 23.8305 54.578 25.508 53.9607 27.8148C53.6523 28.9698 53.852 29.1861 54.5598 28.4637C54.6973 28.3236 54.8046 28.1563 54.8817 27.9615C55.5771 26.2447 56.0021 24.4659 56.1565 22.6253C56.2083 21.9886 56.1527 21.5194 55.9898 21.2175C55.7526 20.7802 55.3336 20.4755 54.7331 20.3034C54.3915 20.2063 54.2983 20.3174 54.4535 20.6368C54.7777 21.3034 54.9322 22.0187 54.9173 22.7824ZM42.9199 24.1041L42.8289 23.1167C42.8237 23.053 42.8464 22.9875 42.8933 22.931C42.9401 22.8745 43.0083 22.8304 43.0865 22.806C43.9808 22.5143 43.9052 22.2818 42.8595 22.1085C42.4859 22.0453 42.1381 22.0891 41.8161 22.24C41.7508 22.2699 41.6969 22.3211 41.6625 22.3861C41.6281 22.4512 41.6149 22.5266 41.6249 22.6014L42.1484 26.5498C42.1588 26.629 42.1906 26.7022 42.2394 26.759C42.2881 26.8158 42.3511 26.8531 42.4194 26.8656C42.9141 26.9658 43.0556 26.5928 42.8438 25.7465C42.8192 25.6467 42.8364 25.54 42.892 25.4469C42.9477 25.3538 43.038 25.2809 43.1455 25.2421L46.2691 24.1212C46.3445 24.0933 46.4105 24.0455 46.4595 23.9831C46.5085 23.9207 46.5385 23.8463 46.5461 23.7684C46.5694 23.4685 46.3151 23.454 45.7832 23.7247C44.9742 24.1339 44.1234 24.3408 43.2308 24.3454C43.1522 24.3465 43.0765 24.3223 43.0188 24.2775C42.9611 24.2327 42.9258 24.1708 42.9199 24.1041ZM35.5902 25.9581C35.5319 26.0448 35.5019 26.1312 35.5 26.2172L36.0902 31.8339C36.1086 32.0227 36.1486 32.0241 36.2103 31.8379C36.5321 30.8592 36.6078 30.1403 36.4374 29.6811C36.0545 28.6462 36.2826 28.1002 37.1217 28.0432C37.3188 28.0273 37.6809 28.1037 38.208 28.2722C39.1749 28.5778 39.4062 28.1188 38.902 26.8952C38.5692 26.0879 38.3776 25.244 38.3273 24.3634L38.008 23.6829C39.2371 23.5123 39.5625 23.2619 38.9842 22.9319C38.8585 22.8617 38.6977 22.8325 38.5249 22.8485L35.3569 23.1837C35.3259 23.1871 35.296 23.1967 35.269 23.2119C35.242 23.2272 35.2184 23.2479 35.1997 23.2726C35.1811 23.2973 35.1677 23.3255 35.1605 23.3556C35.1532 23.3856 35.1523 23.4168 35.1577 23.4472L35.5902 25.9581ZM48.4234 26.9214C48.4462 27.0211 48.5019 27.1099 48.5811 27.1726C48.6603 27.2353 48.758 27.2681 48.8575 27.2653C50.1552 27.211 50.5944 26.8419 50.175 26.158C50.1446 26.1078 50.1022 26.0658 50.0516 26.0356C50.001 26.0055 49.9438 25.9881 49.8848 25.9851C49.8259 25.9821 49.7672 25.9934 49.7137 26.0182C49.6602 26.043 49.6137 26.0804 49.5782 26.1272C49.3888 26.3763 49.2194 26.4512 49.0701 26.352C48.9791 26.2913 48.926 26.1664 48.9108 25.9771C48.8433 25.1416 48.6605 24.3642 48.3625 23.6446C48.3445 23.6007 48.3374 23.5532 48.3417 23.5058C48.3461 23.4584 48.3618 23.4124 48.3876 23.3712C48.4135 23.3301 48.4487 23.2949 48.4907 23.2685C48.5327 23.2421 48.5803 23.2251 48.6298 23.2188L51.5607 22.8603C51.6444 22.8508 51.7232 22.8241 51.7905 22.7826C51.8578 22.7411 51.9116 22.6859 51.9475 22.6217C52.0908 22.3754 52.0646 22.1777 51.8688 22.0285C51.7465 21.9324 51.5473 21.8826 51.2712 21.8791C50.1931 21.8618 48.9504 21.8924 47.543 21.9709C47.5134 21.9723 47.4846 21.9804 47.4586 21.9947C47.4325 22.009 47.4099 22.0291 47.3922 22.0536C47.3746 22.078 47.3624 22.1063 47.3564 22.1364C47.3505 22.1664 47.351 22.1976 47.3579 22.2276L48.4234 26.9214ZM45.5112 25.4669C45.282 25.3914 45.0498 25.3179 44.8145 25.2464C44.0772 25.0196 43.9732 25.2492 44.5024 25.9352C44.8513 26.3876 45.2701 26.5538 45.7589 26.4338C45.8338 26.4167 45.9007 26.3767 45.9492 26.3202C45.9976 26.2637 46.0248 26.1939 46.0263 26.1218C46.0406 25.8033 45.8689 25.5851 45.5112 25.4669ZM83.2237 22.2316C83.9265 22.298 84.522 22.1064 85.0102 21.6567C85.0695 21.6034 85.1176 21.5391 85.1517 21.4676C85.1858 21.3961 85.2053 21.3187 85.209 21.2399C85.2374 20.5271 84.8559 20.3923 84.0647 20.8355C83.6379 21.0727 83.2861 21.3743 83.0092 21.7403C82.7857 22.0333 82.8572 22.1971 83.2237 22.2316ZM61.2012 26.1716C61.3598 26.1997 61.5289 26.1314 61.6714 25.9819C61.8139 25.8324 61.9181 25.6139 61.961 25.3745C61.9823 25.2559 61.9879 25.1357 61.9775 25.0209C61.9671 24.906 61.9409 24.7987 61.9004 24.705C61.8599 24.6113 61.8059 24.5331 61.7415 24.4749C61.6771 24.4167 61.6035 24.3796 61.525 24.3657C61.3664 24.3377 61.1972 24.4059 61.0547 24.5554C60.9122 24.7049 60.8081 24.9234 60.7651 25.1629C60.7439 25.2815 60.7383 25.4016 60.7487 25.5165C60.7591 25.6314 60.7853 25.7387 60.8258 25.8324C60.8662 25.926 60.9202 26.0042 60.9847 26.0624C61.0491 26.1206 61.1226 26.1577 61.2012 26.1716ZM56.8104 36.3861L56.7426 32.3434C56.7422 32.2977 56.7308 32.2528 56.7095 32.2123C56.6882 32.1718 56.6575 32.1369 56.62 32.1104C56.5825 32.0839 56.5392 32.0667 56.4936 32.06C56.4481 32.0534 56.4016 32.0576 56.358 32.0722C55.7958 32.2644 55.3022 32.5862 54.8773 33.0376C54.7681 33.1568 54.7069 33.311 54.7056 33.4706L54.6012 40.3851C54.6008 40.4152 54.6072 40.445 54.6199 40.4723C54.6326 40.4997 54.6514 40.5241 54.6749 40.5436C54.6984 40.5632 54.726 40.5775 54.7558 40.5856C54.7856 40.5936 54.817 40.5953 54.8476 40.5903L56.3098 40.3496C56.3744 40.3399 56.4329 40.3057 56.4739 40.2537C56.515 40.2016 56.5355 40.1355 56.5315 40.0684C56.4656 38.9953 56.9361 38.3236 57.9429 38.0534C58.0029 38.0367 58.0679 38.0466 58.1237 38.081C58.1796 38.1154 58.2217 38.1714 58.2411 38.237C58.6499 39.6676 59.4659 40.3623 60.689 40.3211C61.5614 40.2894 62.4117 39.9408 63.2398 39.2751C64.0327 38.6438 64.6409 37.8338 65.0643 36.8451C65.3382 36.2057 65.6693 36.174 66.0578 36.7498C66.6602 37.6373 67.4448 38.0953 68.4115 38.1239C69.2516 38.1492 70.0066 37.846 70.6766 37.2142C71.4176 36.5171 71.8623 35.6262 72.0107 34.5416C72.0213 34.462 72.0066 34.3824 71.9695 34.3192C71.9324 34.256 71.8758 34.2139 71.8112 34.2016C71.6412 34.1711 71.5259 34.2785 71.4655 34.5239C71.2221 35.5187 70.6367 36.2367 69.709 36.6779C68.866 37.0817 68.2188 36.8711 67.7675 36.0463C67.4691 35.4983 67.2643 34.9183 67.1533 34.3062C66.7433 32.015 66.3792 29.5315 66.061 26.8556C65.9758 26.1379 65.9328 25.7758 65.9319 25.7694C65.7548 25.41 65.2704 25.3628 64.4788 25.628C64.3319 25.6773 64.2046 25.7714 64.1148 25.8968C64.025 26.0222 63.9773 26.1727 63.9787 26.3266C63.9807 28.2952 64.1056 30.34 64.3536 32.4611C64.6713 35.1832 63.7655 37.292 61.6362 38.7874C61.5556 38.8429 61.4632 38.8793 61.3663 38.8938C61.2694 38.9083 61.1706 38.9005 61.0775 38.8711C60.9844 38.8416 60.8996 38.7912 60.8297 38.7238C60.7597 38.6565 60.7066 38.574 60.6744 38.4828C60.369 37.6323 60.2141 36.7637 60.2094 35.8772C60.2059 35.35 60.1861 34.9997 60.1498 34.8264C59.9527 33.9156 59.4762 33.9284 58.7205 34.8649C58.2182 35.4846 57.6494 36.0273 57.0138 36.493C56.8805 36.5896 56.8127 36.5539 56.8104 36.3861ZM71.3485 26.0899C71.2318 26.4119 71.2546 26.6464 71.4168 26.7933C71.5224 26.8884 71.7121 26.9295 71.986 26.9168C74.6594 26.7947 77.1833 26.1216 79.5578 24.8976C79.7089 24.8201 79.8265 24.7038 79.8925 24.5669C80.1482 24.0157 79.8972 23.8259 79.1397 23.9975C76.5837 24.5791 74.0473 25.2209 71.5305 25.9227C71.489 25.9342 71.4508 25.9554 71.4191 25.9845C71.3875 26.0135 71.3633 26.0497 71.3485 26.0899ZM88.832 23.66C88.2404 23.5559 87.7676 23.7464 87.4136 24.2313C87.2367 24.4754 86.9943 24.6753 86.6862 24.831C86.3627 24.9954 86.1568 25.1328 86.0685 25.2433C85.8165 25.5466 85.8638 25.7911 86.2105 25.9766C86.3568 26.0531 86.5684 26.0963 86.8453 26.1063C87.5699 26.1369 88.3302 26.2369 89.1264 26.4065C89.2253 26.4282 89.328 26.4269 89.4264 26.4026C89.5247 26.3783 89.6161 26.3318 89.6933 26.2666C89.7705 26.2014 89.8315 26.1193 89.8715 26.0268C89.9115 25.9343 89.9293 25.8339 89.9237 25.7334C89.8488 24.4669 89.4849 23.7758 88.832 23.66ZM32.4419 39.479C32.9602 41.2349 33.3301 43.1983 33.5515 45.369C33.5534 45.4084 33.5633 45.6709 33.5812 46.1567C33.6116 46.9871 33.9497 47.2083 34.5956 46.8204C34.6579 46.7826 34.7123 46.7298 34.7552 46.6655C34.7981 46.6011 34.8287 46.5265 34.8448 46.4465C35.3763 43.8178 36.726 41.501 38.894 39.4959C39.157 39.2505 39.2554 39.3036 39.1891 39.6552C38.8773 41.2856 38.5032 42.8219 38.0668 44.2641C37.9481 44.6456 37.889 44.9386 37.8895 45.143C37.8884 45.7863 38.214 45.963 38.8663 45.6732C39.0422 45.5975 39.2512 45.5339 39.4934 45.4824C39.7128 45.4339 39.9192 45.3508 40.1128 45.2332C40.1764 45.1954 40.2313 45.1419 40.2734 45.0765C40.3156 45.0111 40.344 44.9355 40.3566 44.855C40.7461 42.3834 40.8102 39.8109 40.5487 37.1375C40.5019 36.6589 40.3132 36.5879 39.9826 36.9247L34.9346 42.0518C34.8263 42.1617 34.7737 42.1405 34.7768 41.9884L34.8182 37.0411C34.8193 36.9646 34.8001 36.8893 34.7623 36.8227C34.7245 36.7561 34.6696 36.7007 34.6032 36.662C34.5368 36.6234 34.4613 36.603 34.3843 36.6029C34.3073 36.6028 34.2317 36.623 34.1652 36.6615C32.9102 37.3632 31.8996 38.4187 31.1335 39.8282C30.2681 41.4155 29.8944 41.1264 30.0124 38.9607C30.0427 38.4126 29.8138 38.2644 29.3259 38.5162C26.3925 40.0079 23.1946 41.0066 19.732 41.5122C19.6688 41.5208 19.6044 41.5155 19.5436 41.4967C19.4827 41.4778 19.4269 41.4459 19.3802 41.4032C19.3336 41.3605 19.2972 41.3081 19.2737 41.2499C19.2502 41.1916 19.2403 41.129 19.2446 41.0664C19.4026 38.9021 20.3992 37.2778 22.2344 36.1936C22.2792 36.1673 22.329 36.1509 22.3806 36.1454C22.4322 36.1398 22.4842 36.1453 22.5332 36.1615C22.5821 36.1776 22.6269 36.204 22.6643 36.2389C22.7017 36.2738 22.731 36.3163 22.75 36.3636C23.4258 38.0297 24.2581 38.2341 25.2469 36.9769C25.3465 36.8519 25.4 36.6982 25.3984 36.5416C25.3958 35.7702 25.2008 35.0636 24.8136 34.4217C24.7763 34.3612 24.7205 34.3136 24.6536 34.2853C24.5866 34.2569 24.5117 34.2491 24.4389 34.2629C21.7697 34.767 19.5774 36.0629 17.8619 38.1505C16.7694 39.4773 16.4773 40.9683 16.9856 42.6233C17.1775 43.2446 17.601 43.5586 18.256 43.5653C19.5525 43.5771 20.8086 43.3469 22.0244 42.8746C22.1857 42.8139 22.3312 42.7718 22.4609 42.7482C23.0184 42.6456 23.1699 42.6868 22.9156 42.8718C22.8306 42.9324 22.719 42.9799 22.5808 43.0145C19.5089 43.812 18.4885 45.6076 19.5197 48.4013C19.7204 48.939 20.1081 49.1834 20.6827 49.1347C23.7916 48.8666 26.0998 47.8936 27.6073 46.2157C27.859 45.9354 28.011 45.9799 28.0633 46.349C28.7852 51.2938 29.3531 56.2537 29.767 61.2289C29.8658 62.4 30.2851 62.67 31.0249 62.0389C31.0827 61.9894 31.1298 61.9268 31.1631 61.8553C31.1965 61.7837 31.2154 61.7045 31.2187 61.6228C31.363 56.9506 31.3361 53.9547 31.1379 52.635C30.6471 49.3584 30.2576 46.1329 29.9696 42.9584C29.9508 42.74 29.9939 42.5208 30.094 42.3258C30.194 42.1308 30.347 41.9679 30.5356 41.8554C31.478 41.3002 31.9713 40.525 32.0153 39.5298C32.0537 38.6673 32.1959 38.6504 32.4419 39.479ZM98.1065 31.5542C97.7467 31.6705 97.7021 31.5972 97.9727 31.3343L102.311 27.0914C102.734 26.6765 103.034 26.1707 103.211 25.5738C103.428 24.833 103.199 24.4737 102.525 24.496C102.234 24.5076 101.907 24.618 101.543 24.8272C97.9818 26.8693 95.3451 29.747 93.6326 33.4601C93.6207 33.486 93.6151 33.5144 93.6163 33.5428C93.6175 33.5712 93.6255 33.5988 93.6395 33.6232C93.6535 33.6476 93.6731 33.6682 93.6967 33.683C93.7203 33.6979 93.7472 33.7067 93.7751 33.7086C98.0494 34.0664 101.99 32.9707 105.597 30.4213C106.003 30.1339 106.34 29.7799 106.606 29.3592C107.166 28.4715 106.936 28.2394 105.916 28.6629C103.273 29.7606 100.669 30.7243 98.1065 31.5542ZM48.6332 38.0837C48.8614 37.9022 49.0759 37.8543 49.2766 37.9402C49.4105 37.9986 49.5196 38.1459 49.6041 38.3822C50.1227 39.8644 50.6277 40.9312 51.1191 41.5825C51.6859 42.3263 52.3213 42.385 53.0252 41.7587C53.0752 41.7141 53.106 41.6516 53.1116 41.5833C53.1173 41.5149 53.0974 41.4456 53.0558 41.3886C52.0811 40.098 51.4671 38.5969 51.2136 36.8855C51.1972 36.7761 51.1554 36.6721 51.0909 36.5809C51.0265 36.4898 50.9412 36.4138 50.841 36.3584C50.7409 36.3029 50.6284 36.2694 50.5116 36.2602C50.3948 36.2511 50.2766 36.2664 50.1655 36.3053L47.9985 37.0537C47.0684 37.1753 46.3835 37.5699 45.9441 38.2375C45.0495 39.6044 44.4308 40.523 44.0881 40.9933C43.9897 41.1281 43.9245 41.1119 43.8924 40.9447C43.5466 39.1134 43.2303 37.2782 42.9434 35.4392C42.8958 35.1552 42.9081 34.7975 42.9804 34.3659C43.0417 34.0017 43.0531 33.6374 43.0148 33.2731C42.999 33.1036 42.9391 33.09 42.8351 33.2323C41.7261 34.7855 41.1881 36.2377 41.2212 37.5888C41.2704 39.6633 41.6123 41.6914 42.2469 43.6729C42.5237 44.5337 42.9682 44.6685 43.5805 44.0772L46.3674 41.3927C46.3951 41.3656 46.4287 41.3449 46.4654 41.3323C46.5021 41.3197 46.5408 41.3157 46.5784 41.3204C46.6159 41.3251 46.6513 41.3386 46.6815 41.3596C46.7118 41.3806 46.736 41.4086 46.7523 41.4413C47.5661 43.0465 48.1331 44.7433 48.4532 46.5318C48.5036 46.8121 48.51 46.7601 48.4724 46.3759C48.2876 44.5565 48.0523 42.7438 47.7664 40.9376C47.5707 39.6869 47.8596 38.7356 48.6332 38.0837ZM85.3328 34.3081C84.8 34.9978 84.3193 35.7681 83.8909 36.6189C83.8557 36.6871 83.8385 36.763 83.8406 36.8397C83.8428 36.9164 83.8644 36.9914 83.9034 37.058C83.9423 37.1246 83.9975 37.1806 84.0639 37.2211C84.1303 37.2616 84.2059 37.2852 84.2837 37.2898C84.7783 37.3141 85.276 37.1237 85.7768 36.7185C87.8003 35.0754 89.3431 33.1257 90.4054 30.8695C90.4382 30.7995 90.4524 30.7222 90.4466 30.6452C90.4408 30.5681 90.4151 30.4938 90.3721 30.4295C90.329 30.3651 90.2701 30.3127 90.2008 30.2775C90.1316 30.2422 90.0544 30.2252 89.9767 30.2281C89.3655 30.252 88.8405 30.4492 88.4016 30.8199C87.8047 31.3267 87.2622 31.8808 86.7741 32.4822C86.3002 33.0653 85.8198 33.6739 85.3328 34.3081ZM95.3382 36.032C95.1365 37.9415 95.7608 38.6563 97.2113 38.1764C97.6473 38.0336 97.968 37.8103 98.1734 37.5064C98.4451 37.1015 98.4903 36.6784 98.3089 36.2371C98.104 35.7429 97.7216 35.4384 97.1618 35.3236C96.5988 35.2092 96.0671 35.3184 95.5666 35.6509C95.5035 35.6916 95.4502 35.7469 95.4106 35.8129C95.3711 35.8788 95.3464 35.9537 95.3382 36.032ZM56.4942 48.6165C56.6009 48.5783 56.6935 48.5041 56.7665 48.3981C56.8395 48.2921 56.8915 48.1563 56.9196 47.9986C56.9478 47.841 56.9514 47.6644 56.9304 47.479C56.9093 47.2936 56.864 47.1031 56.797 46.9183C56.6617 46.545 56.4463 46.2177 56.1981 46.0082C55.95 45.7988 55.6895 45.7245 55.4738 45.8016C55.367 45.8398 55.2745 45.914 55.2015 46.02C55.1285 46.126 55.0764 46.2617 55.0483 46.4194C55.0202 46.5771 55.0166 46.7537 55.0376 46.939C55.0586 47.1244 55.1039 47.3149 55.1709 47.4998C55.3062 47.873 55.5217 48.2004 55.7698 48.4098C56.018 48.6192 56.2785 48.6936 56.4942 48.6165ZM42.2733 49.2445C42.3113 50.1827 42.626 51.0287 43.2174 51.7825C43.4685 52.0992 43.6639 52.0703 43.8036 51.6959C44.137 50.8047 44.2343 49.8983 44.0955 48.9765C44.0421 48.624 43.9081 48.3513 43.6932 48.1585C43.3059 47.8167 42.9442 47.831 42.6082 48.2015C42.3706 48.4634 42.259 48.8111 42.2733 49.2445ZM38.4057 52.6104C38.4797 52.5936 38.5475 52.5534 38.6053 52.4922C38.6631 52.431 38.7097 52.35 38.7426 52.2538C38.7754 52.1575 38.7938 52.0479 38.7967 51.9313C38.7996 51.8146 38.7869 51.6932 38.7594 51.5739C38.7319 51.4546 38.6901 51.3398 38.6364 51.2361C38.5826 51.1323 38.5181 51.0416 38.4463 50.9692C38.3746 50.8967 38.2971 50.8439 38.2182 50.8138C38.1394 50.7837 38.0607 50.7769 37.9868 50.7937C37.9128 50.8105 37.845 50.8507 37.7872 50.9119C37.7294 50.9731 37.6827 51.0541 37.6499 51.1503C37.617 51.2466 37.5987 51.3562 37.5958 51.4728C37.5929 51.5894 37.6056 51.7109 37.6331 51.8302C37.6606 51.9494 37.7024 52.0642 37.7561 52.168C37.8098 52.2718 37.8744 52.3625 37.9461 52.4349C38.0179 52.5074 38.0954 52.5602 38.1743 52.5903C38.2531 52.6204 38.3318 52.6272 38.4057 52.6104Z" fill="#C82149"/>
<path d="M30.1287 17.7872C29.9253 18.3316 29.5082 18.617 28.8775 18.6434C26.5551 18.7328 24.3107 19.0725 22.1444 19.6625C22.0091 19.699 21.8951 19.7851 21.8275 19.9018C21.2254 20.9204 20.5894 21.7456 19.9194 22.3774C19.7161 22.5722 19.2472 22.8924 18.5127 23.3381C18.0182 23.6402 17.5576 23.9857 17.131 24.3746C16.5957 24.87 16.0443 25.2818 15.4769 25.6099C15.0734 25.8474 14.6862 26.1074 14.3152 26.3901C13.9593 26.6609 13.5528 26.8757 13.0957 27.0344C11.5314 27.582 10.2866 28.5494 9.36154 29.9368C9.27568 30.0703 9.23412 30.2297 9.24268 30.3926C9.32844 31.816 9.43561 33.2382 9.56424 34.6593C9.66501 35.8202 9.7471 37.2407 9.81047 38.921C9.89573 41.3173 10.1187 43.7005 10.4794 46.0707C10.7514 47.8721 10.9828 49.7299 11.1734 51.6441C11.3577 53.5097 11.6301 55.3638 11.9905 57.2064C12.0684 57.6183 12.1669 58.3738 12.286 59.473C12.3638 60.2345 12.5179 60.9844 12.7486 61.7226C12.7929 61.8619 12.8867 61.9942 13.0182 62.1029C13.5474 62.5383 13.8951 63.0947 14.0613 63.7721C14.4738 65.4562 15.5973 66.0034 17.4317 65.414C17.6784 67.4 18.0442 69.0077 18.5293 70.2371C18.6198 70.4693 18.7298 70.5472 18.8591 70.4709C18.9212 70.4357 18.9695 70.3761 18.9971 70.3005C19.0247 70.2249 19.0301 70.1372 19.0125 70.0502L18.2779 66.3124C18.6238 66.6168 19.0048 66.7104 19.4209 66.5933C19.4897 66.5728 19.5624 66.5742 19.627 66.5972C19.6916 66.6202 19.7443 66.6635 19.7764 66.72C20.5492 68.1162 21.0095 69.0091 21.1575 69.3987C21.3515 69.9108 21.5547 70.0409 21.767 69.7889C21.8184 69.7262 21.8783 69.6749 21.943 69.6383C22.0077 69.6017 22.0756 69.5807 22.1423 69.5766L25.0412 69.3904C25.1184 69.3842 25.1944 69.4008 25.2571 69.4374C25.3197 69.4741 25.3654 69.5287 25.3868 69.5925L26.2352 72.1974C26.2717 72.3065 26.3765 72.4224 26.527 72.5203L27.5186 73.1624C27.6045 73.2184 27.6871 73.2637 27.7596 73.2946C27.8321 73.3255 27.8924 73.3412 27.9357 73.3403C28.4264 73.3355 28.8954 73.2412 29.3425 73.0574C29.9342 72.8118 30.3785 72.6696 30.6756 72.6308C34.7539 72.0611 38.8735 71.7532 43.0345 71.707C43.1363 71.7059 43.2361 71.6792 43.3245 71.6296C43.4129 71.58 43.4869 71.509 43.5398 71.4233C44.3967 70.0481 45.2483 69.1453 46.0943 68.7147C47.1203 68.1386 48.2082 67.8034 49.3578 67.7091C50.6127 67.6077 51.25 67.5557 51.2696 67.5531C52.519 67.36 53.794 67.1092 55.0945 66.8006C55.9278 66.5993 56.2071 66.9024 55.9323 67.7101C55.4949 68.9941 55.792 69.6445 56.8235 69.6613C57.0065 69.6638 57.5599 69.5551 58.4837 69.3354C59.5041 69.0931 60.5225 69.0357 61.5389 69.1633C65.1336 69.1286 68.6887 68.7823 72.2041 68.1247C72.9949 67.9784 73.8676 67.9237 74.8221 67.9604C75.7068 67.9964 76.5911 67.9797 77.4751 67.9103C78.188 67.8533 78.9463 67.6123 79.75 67.1873C80.4735 66.8091 81.2127 66.4618 81.9677 66.1454C81.7782 66.8198 81.9073 67.3306 82.3551 67.6777C82.5956 67.8639 83.0371 67.9381 83.6796 67.9002C84.118 67.8759 84.5543 67.9112 84.9886 68.0061C85.1523 68.0427 85.3158 68.0334 85.4582 67.9793C87.2444 67.2774 88.9831 66.9049 90.6741 66.8618C91.6042 66.8391 92.4114 66.6165 93.0958 66.1939C94.1942 65.5127 94.7513 65.1694 94.7672 65.164C95.5097 64.8789 96.2796 64.7255 97.077 64.7036C98.3303 64.665 99.1038 64.6265 99.3976 64.5881C100.927 64.375 102.464 64.2218 104.008 64.1286C104.638 64.0924 105.509 63.8268 106.622 63.3316C106.764 63.2678 106.888 63.1607 106.98 63.0227C107.644 61.9992 108.505 61.1776 109.562 60.5579C109.697 60.4808 109.813 60.3717 109.907 60.2308C110.414 59.4983 111.127 59.0933 112.047 59.0159C111.491 59.8603 110.825 60.5922 110.047 61.2117C109.761 61.4371 109.352 61.855 108.818 62.4656C108.42 62.92 107.922 63.2656 107.322 63.5023C107.06 63.6058 106.948 63.7343 106.985 63.8877C106.998 63.9367 107.039 63.9879 107.103 64.0355C107.168 64.0831 107.253 64.1251 107.349 64.1567C108.11 64.4068 108.112 64.8418 107.358 65.4615C106.935 65.807 106.394 66.0328 105.734 66.1389L101.013 66.8899C93.006 67.5578 85.0442 68.5512 77.1273 69.8702C76.0166 70.0583 74.4859 70.2338 72.5352 70.3966C71.1525 70.5114 69.618 70.6956 67.9317 70.9491C64.3183 71.4942 56.4744 72.4376 44.4 73.7793C43.7161 73.8555 43.2843 74.0423 43.1046 74.3395C42.5845 74.1734 42.0949 74.2374 41.6358 74.5316C41.3105 74.3565 41.0175 74.3882 40.7569 74.6267C39.646 74.5873 38.6091 74.8054 37.6461 75.2809C36.6248 75.3914 35.6044 75.5215 34.585 75.6714C34.5491 75.676 34.2098 75.6841 33.5672 75.6956C33.0107 75.7057 32.6274 75.9702 32.4173 76.4891C32.3921 76.5493 32.3463 76.5988 32.2875 76.6291C32.2288 76.6593 32.1609 76.6684 32.0956 76.6548C31.4193 76.5124 30.7722 76.6284 30.1544 77.0027C30.0488 76.1558 29.8264 76.1436 29.4872 76.9663L29.1592 77.0092C28.8478 76.2386 28.2388 76.0775 27.332 76.5259C26.5118 76.0495 25.7541 76.0578 25.0592 76.5511C25.0051 76.5889 24.939 76.6131 24.8659 76.6218C24.7928 76.6305 24.7147 76.6235 24.6375 76.6013L23.0377 76.1427C22.9792 76.126 22.9096 76.1292 22.8351 76.1519C22.7607 76.1746 22.6838 76.2161 22.6117 76.2726C22.1884 76.6116 21.7402 76.6372 21.2671 76.3495C21.2097 76.3153 21.1622 76.2616 21.1296 76.1937C21.097 76.1258 21.0803 76.0463 21.0814 75.9632C21.084 75.4319 20.8711 75.2536 20.4427 75.4284C20.2211 75.1342 20.0922 75.1889 20.0561 75.5927C20.0282 75.8833 20.0593 76.1678 20.1493 76.4462C20.2753 76.8453 20.2149 77.0659 19.9681 77.1081C19.9031 77.119 19.8348 77.0997 19.7771 77.054C19.7193 77.0084 19.6763 76.9398 19.6566 76.8619C19.4141 75.8844 19.3759 75.2084 19.5421 74.8338C19.8705 74.1049 19.8075 73.442 19.3532 72.8451C19.3011 72.7777 19.2353 72.7251 19.1633 72.6934C19.0913 72.6617 19.0159 72.6522 18.9459 72.6659C18.6837 72.7167 18.6405 72.9169 18.8164 73.2666C19.0542 73.7334 19.067 74.1803 18.8546 74.6071C18.7813 74.7552 18.6965 74.7548 18.6004 74.6057C18.0534 73.7605 17.8432 73.8028 17.9698 74.7327C17.9822 74.8267 17.9661 74.8305 17.9215 74.744C17.7907 74.4841 17.5513 74.2812 17.2033 74.1355C17.0562 74.0746 16.933 73.9683 16.8522 73.8326C16.7713 73.6969 16.7371 73.539 16.7548 73.3828C16.8143 72.8045 16.7185 72.5202 16.4675 72.53C16.0678 72.546 15.9628 72.38 16.1524 72.032C16.5417 71.3116 16.4109 70.9511 15.76 70.9505C15.6888 70.4387 15.4815 70.39 15.138 70.8043C14.9007 70.4923 14.626 70.4111 14.3138 70.5608C14.2376 70.5975 14.1586 70.6178 14.0851 70.6196C14.0116 70.6214 13.9465 70.6045 13.8967 70.5708C13.5115 70.2947 13.3539 69.8701 13.4241 69.297C13.4346 69.2148 13.424 69.1315 13.3929 69.0526C13.3618 68.9736 13.311 68.9009 13.2438 68.8394C13.1766 68.7778 13.0947 68.7289 13.0035 68.6958C12.9124 68.6627 12.8141 68.6463 12.7154 68.6476C11.4293 68.6641 10.2102 68.3849 9.05817 67.8101C7.92049 67.2432 7.23292 66.3273 6.99548 65.0623C6.78693 63.9649 6.5686 62.8689 6.34046 61.7742C6.09393 60.6159 5.90267 59.5113 5.76669 58.4606C4.87485 51.5329 3.55239 41.883 1.79932 29.511C1.38256 26.5677 2.71918 25.0787 5.80919 25.0439L9.16512 24.9612C9.61871 24.9514 10.1337 24.7158 10.71 24.2546C11.3738 23.7259 11.8756 23.6042 12.2156 23.8895C12.2634 23.9302 12.2961 23.9915 12.3095 24.0655C12.3228 24.1396 12.3163 24.223 12.2906 24.3051C12.0623 25.0374 12.4483 25.3069 13.4487 25.1134C14.7341 24.8661 15.6613 24.2337 16.2304 23.2161C16.312 23.0735 16.4291 22.9615 16.5663 22.8951L18.8412 21.7962C18.9854 21.7254 19.1085 21.619 19.1987 21.4873C20.0337 20.2469 21.1176 19.406 22.4503 18.9645C22.8129 18.8446 24.0794 18.58 26.2499 18.1708C27.5263 17.9313 28.8193 17.8035 30.1287 17.7872ZM4.65259 28.7174C4.64743 30.5319 4.76183 32.3341 4.99579 34.1239C5.27316 36.2412 5.41463 37.3209 5.42022 37.363C6.14867 43.9097 7.01256 50.4387 8.0119 56.95C8.01903 56.9788 8.16636 58.0775 8.45386 60.2462C8.65696 61.7532 8.94332 63.2245 9.31296 64.6602C9.36012 64.8443 9.46012 65.0071 9.59595 65.121C9.73179 65.2348 9.89511 65.2928 10.0582 65.285L12.7377 65.172C12.8004 65.1692 12.8605 65.1491 12.9125 65.1135C12.9644 65.0779 13.0066 65.028 13.0353 64.9683C13.064 64.9085 13.0782 64.8409 13.0767 64.7714C13.0751 64.7019 13.0579 64.6328 13.0266 64.5703C12.6163 63.7797 12.2063 63.0666 11.7966 62.4309C11.4203 61.8469 11.2477 61.233 11.2785 60.5891C11.3287 59.5404 11.3521 59.0031 11.3487 58.9772C11.1409 56.5078 10.9088 54.5446 10.6526 53.0875C9.69025 47.6069 8.98762 42.094 8.54468 36.5488C8.54296 36.5358 8.52908 36.0429 8.50305 35.0702C8.48245 34.2385 8.34047 33.1424 8.07708 31.7818C7.78826 30.2794 8.3021 28.9458 9.61861 27.781C9.75826 27.6572 9.83973 27.5328 9.86299 27.4077C9.91502 27.1239 9.77371 26.9972 9.43909 27.0278C7.92304 27.1634 6.41402 27.59 4.91203 28.3075C4.83485 28.3446 4.76966 28.4026 4.72382 28.475C4.67797 28.5475 4.65329 28.6314 4.65259 28.7174ZM19.5492 69.703C19.6041 70.3422 19.8295 70.8404 20.2255 71.1975C20.3574 71.3155 20.4231 71.2855 20.4227 71.1074C20.4154 69.6243 19.9847 68.279 19.1306 67.0716C19.0321 66.9295 19.0038 66.9414 19.0458 67.1074C19.3295 68.2707 19.4973 69.1359 19.5492 69.703ZM24.8762 70.4376C24.8595 70.2877 24.7835 70.1504 24.665 70.0561C24.5464 69.9618 24.395 69.9181 24.244 69.9346L23.8415 69.9787C23.6905 69.9953 23.5523 70.0708 23.4574 70.1885C23.3624 70.3063 23.3184 70.4567 23.3351 70.6066L23.5952 72.9466C23.6119 73.0966 23.6879 73.2338 23.8064 73.3282C23.925 73.4225 24.0764 73.4662 24.2274 73.4496L24.6299 73.4055C24.7809 73.3889 24.9191 73.3135 25.0141 73.1957C25.109 73.078 25.153 72.9276 25.1364 72.7776L24.8762 70.4376Z" fill="#CC1948"/>
<path d="M109.508 15.3022C109.799 15.815 110.135 16.1322 110.516 16.2538C111.157 16.4568 111.679 16.9971 112.081 17.8746C112.132 17.9844 112.212 18.0783 112.313 18.1462C112.414 18.214 112.533 18.2532 112.655 18.2595C113.389 18.2888 114.148 18.2869 114.93 18.2538C115.954 18.2123 116.707 18.2457 117.19 18.3541C119.422 18.8603 120.837 20.3324 121.436 22.7704C121.698 23.8442 121.944 25.3373 122.174 27.2496C123.149 34.6051 124.09 41.965 124.997 49.3294C125.115 50.2967 125.116 51.004 124.999 51.4513C124.788 52.2406 124.32 52.8247 123.593 53.2033C123.431 53.2871 122.898 53.525 121.994 53.917C121.416 54.1674 120.84 54.307 120.266 54.3359C118.785 54.4076 117.905 55.0174 117.625 56.1653C117.447 56.901 117.254 57.3699 117.045 57.572C116.551 58.0554 115.789 58.5211 114.76 58.969C114.636 59.0211 114.532 59.1099 114.461 59.2235C114.39 59.3372 114.355 59.4702 114.361 59.6049C114.413 60.6534 114.338 61.7103 114.134 62.7759C114.029 63.3107 113.778 63.8233 113.381 64.3138C113.062 64.7117 112.601 65.0029 111.998 65.1873C110.174 65.7524 108.31 66.1131 106.409 66.2695C105.236 66.3635 104.333 66.4552 103.701 66.5445C102.808 66.6744 101.912 66.7899 101.012 66.8911L105.734 66.14C106.394 66.0339 106.935 65.8082 107.358 65.4627C108.112 64.843 108.109 64.408 107.349 64.1579C107.253 64.1263 107.168 64.0842 107.103 64.0367C107.039 63.9891 106.998 63.9379 106.985 63.8889C106.948 63.7355 107.06 63.607 107.322 63.5035C107.921 63.2668 108.42 62.9212 108.818 62.4668C109.352 61.8562 109.761 61.4382 110.047 61.2129C110.824 60.5934 111.491 59.8615 112.047 59.0171C112.788 58.8278 113.505 58.5708 114.196 58.2463C115.271 57.7397 115.899 56.9056 116.08 55.7441C116.211 54.9289 116.486 54.1855 116.905 53.514C117.368 52.7708 117.669 52.1626 117.809 51.6892C118.242 50.2243 118.753 48.7838 119.343 47.3678C119.373 47.2971 119.386 47.2207 119.379 47.1455C119.373 47.0703 119.347 46.9987 119.306 46.9374C119.026 46.5352 118.677 46.2017 118.257 45.9368C118.196 45.8981 118.147 45.8436 118.114 45.779C118.082 45.7144 118.068 45.6422 118.073 45.5699C118.146 44.6898 118.06 43.6375 117.814 42.4131C117.589 41.2883 117.302 38.8343 116.953 35.051C116.885 34.3377 116.953 33.6742 117.157 33.0604C117.377 32.4117 117.624 31.7726 117.899 31.1429C117.926 31.0849 117.929 31.0178 117.908 30.9542C117.887 30.8906 117.843 30.8347 117.783 30.7969C117.436 30.5786 117.195 30.277 117.061 29.8922C117.009 29.7449 116.912 29.6188 116.784 29.5326C116.019 29.0226 115.74 28.2049 115.946 27.0798C116.11 26.1646 115.799 25.455 115.011 24.9512C114.456 24.5983 113.872 23.8849 113.258 22.8109C114.74 23.1415 115.757 24.0111 116.309 25.4197C116.46 25.8088 116.739 27.0107 117.145 29.0253C117.176 29.1863 117.26 29.3241 117.38 29.4101C117.619 29.5833 118.021 29.8342 118.586 30.1627C119.234 30.5397 119.422 31.0113 119.152 31.5776C119.136 31.6094 118.846 31.9244 118.281 32.5226C117.81 33.0229 117.596 33.689 117.64 34.521C117.85 38.484 118.358 42.0847 119.166 45.3231C119.207 45.487 119.298 45.626 119.422 45.715C119.699 45.9197 119.996 46.0868 120.316 46.2166C120.741 46.3918 121.017 46.5701 121.144 46.7514C121.469 47.2266 121.356 47.7031 120.805 48.1808C119.772 49.0777 119.485 50.1557 119.944 51.4149C119.971 51.4887 120.014 51.5559 120.069 51.6119C120.125 51.6678 120.192 51.7111 120.266 51.7388C121.335 52.1366 122.171 51.8854 122.776 50.9852C122.862 50.8594 122.897 50.6979 122.875 50.5319C121.013 35.5589 119.79 26.6495 119.207 23.8039C118.708 21.3628 117.294 20.2153 114.966 20.3615C113.764 20.4363 113.006 20.4183 112.692 20.3076C111.918 20.0296 111.318 19.4931 110.89 18.6981C110.823 18.5716 110.721 18.4514 110.583 18.3375L108.69 16.7895L109.508 15.3022Z" fill="#CC1948"/>
<rect x="9.55371" y="32.466" width="50.2624" height="28.1875" transform="rotate(-17.8813 9.55371 32.466)" fill="#C82149"/>
<rect x="24.6509" y="26.7137" width="75.0996" height="47.7417" transform="rotate(-7.50114 24.6509 26.7137)" fill="#C82149"/>
<rect x="98.5728" y="22.1542" width="8.31329" height="43.3537" transform="rotate(-7.50114 98.5728 22.1542)" fill="#C82149"/>
<rect x="19.8433" y="20.2136" width="32.3427" height="10.0525" transform="rotate(-7.50114 19.8433 20.2136)" fill="#C82149"/>
<rect x="60.5991" y="18.374" width="23.6015" height="12.6749" transform="rotate(-7.50114 60.5991 18.374)" fill="#C82149"/>
</svg>
