<svg width="69" height="17" viewBox="0 0 69 17" fill="none" xmlns="http://www.w3.org/2000/svg">
<g clip-path="url(#clip0_462_3590)">
<mask id="mask0_462_3590" style="mask-type:luminance" maskUnits="userSpaceOnUse" x="0" y="0" width="69" height="17">
<path d="M69 0H0V17H69V0Z" fill="white"/>
</mask>
<g mask="url(#mask0_462_3590)">
<path d="M27.9345 3.42533V1.61435H23.2275H22.0878H21.3462V13.6118H23.2275V8.63595H27.4904V6.82497H23.2275V3.42533H27.9345Z" fill="white"/>
<path d="M45.9819 8.39449V13.6113H47.7581V7.91414C47.7581 6.59127 47.1187 4.1554 44.4099 4.1554C42.2933 4.1554 41.4792 5.52645 41.4792 5.52645L41.3452 4.32795H39.7695V13.6113H41.5695V8.88259C41.5695 6.81512 42.5908 5.84046 43.9659 5.84046C45.6 5.84046 45.9819 7.23325 45.9819 8.39449Z" fill="white"/>
<path d="M65.372 12.8126L68.9999 4.3111H67.1483L64.5092 10.8151L61.6965 4.3111H59.7456L63.5647 12.9136C63.4818 13.1219 62.9724 14.3686 62.5979 14.7697C62.2708 15.1101 61.819 15.2457 61.2787 15.2457L61.5411 16.8542C61.9365 16.8673 62.3303 16.7953 62.6982 16.6423C63.066 16.4894 63.4001 16.2589 63.6799 15.965C64.5136 15.079 65.2005 13.2136 65.2005 13.2136L65.348 12.8701H65.3973L65.372 12.8126Z" fill="white"/>
<path d="M33.8037 4.17365H33.3255C32.1549 4.17365 31.0322 4.66202 30.2045 5.53134C29.3766 6.40065 28.9116 7.5797 28.9116 8.80914V9.16199C28.912 10.3911 29.3772 11.5698 30.205 12.4388C31.0327 13.3077 32.1551 13.7959 33.3255 13.7959H33.8037C34.974 13.7959 36.0965 13.3077 36.9242 12.4388C37.7519 11.5698 38.2171 10.3911 38.2175 9.16199V8.80914C38.2175 7.5797 37.7525 6.40065 36.9247 5.53134C36.097 4.66202 34.9743 4.17365 33.8037 4.17365ZM36.428 9.10133C36.428 9.88469 36.1317 10.6359 35.6043 11.1898C35.0769 11.7437 34.3615 12.0549 33.6156 12.0549H33.5239C32.778 12.0549 32.0626 11.7437 31.5353 11.1898C31.0078 10.6359 30.7115 9.88469 30.7115 9.10133V8.86816C30.7115 8.08487 31.0078 7.3336 31.5353 6.77972C32.0626 6.22583 32.778 5.91466 33.5239 5.91466H33.6068C34.3526 5.91466 35.068 6.22583 35.5954 6.77972C36.1228 7.3336 36.4191 8.08487 36.4191 8.86816L36.428 9.10133Z" fill="white"/>
<path d="M56.731 1.01834V5.18592C55.9505 4.53003 54.9805 4.17309 53.9808 4.17394H53.7159C52.5454 4.17436 51.4229 4.66287 50.5952 5.5321C49.7675 6.40133 49.3024 7.58016 49.302 8.8094V9.16232C49.3024 10.3914 49.7676 11.5701 50.5953 12.439C51.423 13.3081 52.5455 13.7962 53.7159 13.7962H53.9808C55.0917 13.7979 56.1621 13.3581 56.9768 12.565L57.1227 13.5926H58.5428V1.01834H56.731ZM56.8198 9.10166C56.8198 9.88496 56.5236 10.6362 55.9961 11.1901C55.4687 11.744 54.7534 12.0552 54.0075 12.0552H53.9158C53.1699 12.0552 52.4545 11.744 51.9271 11.1901C51.3997 10.6362 51.1034 9.88496 51.1034 9.10166V8.86849C51.1034 8.0852 51.3997 7.33394 51.9271 6.78004C52.4545 6.22614 53.1699 5.91497 53.9158 5.91497H54.0075C54.7534 5.91497 55.4687 6.22614 55.9961 6.78004C56.5236 7.33394 56.8198 8.0852 56.8198 8.86849V9.10166Z" fill="white"/>
<path d="M9.7582 13.2622V11.2879C9.75807 11.1789 9.73066 11.0718 9.67875 10.9775C9.62678 10.883 9.55208 10.8047 9.46213 10.7501L7.83398 9.76305C7.74397 9.70844 7.64186 9.67975 7.53791 9.67975C7.43397 9.67975 7.33186 9.70844 7.24185 9.76305L5.61367 10.7501C5.52375 10.8047 5.44906 10.883 5.3971 10.9775C5.34515 11.0718 5.31774 11.1789 5.31763 11.2879V13.2622C5.31748 13.3715 5.34476 13.4789 5.39674 13.5736C5.44871 13.6683 5.52353 13.7469 5.61367 13.8016L7.24185 14.7887C7.33186 14.8433 7.43397 14.872 7.53791 14.872C7.64186 14.872 7.74397 14.8433 7.83398 14.7887L9.46213 13.8016C9.55227 13.7469 9.6271 13.6683 9.67907 13.5736C9.73104 13.4789 9.75832 13.3715 9.7582 13.2622Z" fill="white"/>
<path d="M15.0758 13.2622V11.2879C15.0757 11.1789 15.0483 11.0718 14.9963 10.9775C14.9444 10.883 14.8697 10.8047 14.7797 10.7501L13.1516 9.76305C13.0616 9.70844 12.9595 9.67975 12.8555 9.67975C12.7516 9.67975 12.6495 9.70844 12.5595 9.76305L10.9313 10.7501C10.8414 10.8047 10.7667 10.883 10.7148 10.9775C10.6628 11.0718 10.6354 11.1789 10.6353 11.2879V13.2622C10.6351 13.3715 10.6624 13.4789 10.7144 13.5736C10.7664 13.6683 10.8412 13.7469 10.9313 13.8016L12.5595 14.7887C12.6495 14.8433 12.7516 14.872 12.8555 14.872C12.9595 14.872 13.0616 14.8433 13.1516 14.7887L14.7797 13.8016C14.8699 13.7469 14.9447 13.6683 14.9967 13.5736C15.0487 13.4789 15.0759 13.3715 15.0758 13.2622Z" fill="white"/>
<path d="M7.10487 8.42283V6.44862C7.10532 6.33906 7.07816 6.23132 7.02613 6.13632C6.97415 6.04132 6.8992 5.96244 6.80887 5.90766L5.18062 4.92367C5.09061 4.8691 4.98852 4.84036 4.88458 4.84036C4.78065 4.84036 4.67856 4.8691 4.58855 4.92367L2.96034 5.90766C2.87043 5.96218 2.79574 6.04058 2.74378 6.13497C2.69182 6.22938 2.66441 6.33647 2.66431 6.44551V8.41971C2.66416 8.52898 2.69144 8.63642 2.74341 8.73115C2.79538 8.8258 2.87021 8.90448 2.96034 8.95915L4.58855 9.9493C4.67856 10.0039 4.78065 10.0326 4.88458 10.0326C4.98852 10.0326 5.09061 10.0039 5.18062 9.9493L6.80887 8.96221C6.89901 8.90761 6.97384 8.82893 7.02581 8.73421C7.07778 8.63955 7.10506 8.53211 7.10487 8.42283Z" fill="white"/>
<path d="M12.4176 8.42283V6.44862C12.4176 6.33958 12.3901 6.23249 12.3382 6.13809C12.2862 6.04368 12.2115 5.96529 12.1216 5.91077L10.4934 4.92367C10.4034 4.8691 10.3013 4.84036 10.1973 4.84036C10.0935 4.84036 9.99135 4.8691 9.90133 4.92367L8.27312 5.90766C8.18316 5.96218 8.10853 6.04058 8.05656 6.13497C8.00459 6.22938 7.97718 6.33647 7.97705 6.44551V8.41971C7.97692 8.52898 8.00421 8.63642 8.05618 8.73115C8.10815 8.8258 8.18298 8.90448 8.27312 8.95915L9.90133 9.94624C9.99135 10.0008 10.0935 10.0295 10.1973 10.0295C10.3013 10.0295 10.4034 10.0008 10.4934 9.94624L12.1216 8.95915C12.2113 8.90475 12.2858 8.82655 12.3378 8.73251C12.3898 8.63839 12.4172 8.53157 12.4176 8.42283Z" fill="white"/>
<path d="M4.44056 13.2622V11.2879C4.44045 11.1789 4.41304 11.0718 4.36108 10.9775C4.30912 10.883 4.23444 10.8047 4.14452 10.7501L2.51632 9.76305C2.42631 9.70844 2.32421 9.67975 2.22028 9.67975C2.11635 9.67975 2.01425 9.70844 1.92424 9.76305L0.296038 10.7501C0.20612 10.8047 0.131436 10.883 0.0794753 10.9775C0.0275152 11.0718 0.000107141 11.1789 6.43349e-07 11.2879V13.2622C-0.000152765 13.3715 0.027132 13.4789 0.079105 13.5736C0.131078 13.6683 0.205903 13.7469 0.296038 13.8016L1.92424 14.7887C2.01425 14.8433 2.11635 14.872 2.22028 14.872C2.32421 14.872 2.42631 14.8433 2.51632 14.7887L4.14452 13.8016C4.23466 13.7469 4.30948 13.6683 4.36145 13.5736C4.41342 13.4789 4.44071 13.3715 4.44056 13.2622Z" fill="white"/>
<path d="M9.7582 3.58346V1.60927C9.75807 1.50022 9.73066 1.39313 9.67875 1.29873C9.62678 1.20433 9.55208 1.12593 9.46213 1.07141L7.83398 0.084312C7.74397 0.0297379 7.64186 0.00100708 7.53791 0.00100708C7.43397 0.00100708 7.33186 0.0297379 7.24185 0.084312L5.61367 1.07141C5.52375 1.12593 5.44906 1.20433 5.3971 1.29873C5.34515 1.39313 5.31774 1.50022 5.31763 1.60927V3.58346C5.31748 3.69276 5.34476 3.80018 5.39674 3.89487C5.44871 3.98957 5.52353 4.06821 5.61367 4.12287L7.24185 5.10996C7.33186 5.16454 7.43397 5.19327 7.53791 5.19327C7.64186 5.19327 7.74397 5.16454 7.83398 5.10996L9.46213 4.12287C9.55227 4.06821 9.6271 3.98957 9.67907 3.89487C9.73104 3.80018 9.75832 3.69276 9.7582 3.58346Z" fill="white"/>
</g>
</g>
<defs>
<clipPath id="clip0_462_3590">
<rect width="69" height="17" fill="white"/>
</clipPath>
</defs>
</svg>
