<svg width="58" height="14" viewBox="0 0 58 14" fill="none" xmlns="http://www.w3.org/2000/svg">
<g clip-path="url(#clip0_325_23171)">
<path d="M14.5692 1.49664H8.36719V12.5034H14.5692V1.49664Z" fill="#FF5F00"/>
<path d="M8.76101 7C8.76003 5.93995 9.00327 4.8936 9.47227 3.94013C9.94131 2.98665 10.6239 2.15106 11.4682 1.4966C10.4226 0.68492 9.16683 0.180148 7.84443 0.0399788C6.52203 -0.100191 5.1864 0.129893 3.99019 0.703945C2.79396 1.27799 1.7854 2.17284 1.0798 3.28621C0.374189 4.39958 0 5.68655 0 7C0 8.31345 0.374189 9.6004 1.0798 10.7138C1.7854 11.8272 2.79396 12.722 3.99019 13.2961C5.1864 13.8701 6.52203 14.1002 7.84443 13.96C9.16683 13.8198 10.4226 13.3151 11.4682 12.5034C10.6239 11.8489 9.94131 11.0133 9.47227 10.0598C9.00327 9.1064 8.76003 8.06005 8.76101 7Z" fill="#EB001B"/>
<path d="M22.9361 7C22.9362 8.31345 22.562 9.6004 21.8564 10.7137C21.1509 11.8272 20.1424 12.722 18.9462 13.2961C17.75 13.8701 16.4143 14.1002 15.092 13.96C13.7696 13.8198 12.5139 13.3151 11.4683 12.5034C12.3119 11.8482 12.9939 11.0126 13.4628 10.0592C13.9318 9.1059 14.1755 8.05985 14.1755 7C14.1755 5.94015 13.9318 4.8941 13.4628 3.94078C12.9939 2.98745 12.3119 2.15173 11.4683 1.49661C12.5139 0.684925 13.7696 0.180146 15.092 0.0399772C16.4143 -0.100191 17.75 0.129903 18.9462 0.70396C20.1424 1.27802 21.1509 2.17287 21.8564 3.28624C22.562 4.39961 22.9362 5.68655 22.9361 7Z" fill="#F79E1B"/>
<path d="M22.26 11.3376V11.1123H22.352V11.0664H22.1177V11.1123H22.2097V11.3376H22.26ZM22.7149 11.3376V11.0659H22.6431L22.5605 11.2528L22.4779 11.0659H22.406V11.3376H22.4567V11.1327L22.5342 11.3094H22.5868L22.6643 11.1322V11.3376H22.7149Z" fill="#F79E1B"/>
</g>
<g clip-path="url(#clip1_325_23171)">
<mask id="mask0_325_23171" style="mask-type:luminance" maskUnits="userSpaceOnUse" x="27" y="2" width="31" height="10">
<path d="M57.9953 2H27V12H57.9953V2Z" fill="white"/>
</mask>
<g mask="url(#mask0_325_23171)">
<path d="M38.7683 2.17659L34.7104 11.8487H32.0629L30.0659 4.13057C29.9447 3.65514 29.8399 3.48096 29.4707 3.28083C28.8688 2.95441 27.8746 2.64847 27 2.45834L27.0602 2.17659H31.3221C31.8651 2.17659 32.3535 2.53784 32.4768 3.16293L33.5315 8.75907L36.1379 2.17595L38.7683 2.17659ZM49.1417 8.69086C49.1524 6.13807 45.6083 5.99761 45.6327 4.8571C45.6403 4.51004 45.9717 4.14121 46.6951 4.04687C47.0539 3.99994 48.0427 3.96397 49.165 4.47972L49.6049 2.42866C49.0023 2.2103 48.2269 2 47.2622 2C44.7866 2 43.0444 3.31469 43.0297 5.19722C43.0136 6.58964 44.2727 7.36664 45.2222 7.82918C46.1983 8.30318 46.5257 8.6075 46.5222 9.03146C46.5151 9.68025 45.7436 9.96686 45.0224 9.97796C43.7633 9.99732 43.0331 9.63768 42.4507 9.36707L41.9967 11.486C42.5819 11.7544 43.662 11.9884 44.7821 12C47.4134 12 49.1345 10.7016 49.1426 8.69086H49.1417ZM55.6796 11.8487H57.996L55.973 2.17659H53.8353C53.6069 2.17463 53.3833 2.24122 53.1933 2.36775C53.0033 2.49427 52.8558 2.67489 52.7698 2.88619L49.0113 11.8487H51.6412L52.1631 10.4041H55.3765L55.6796 11.8487ZM52.8851 8.42168L54.2033 4.79001L54.9621 8.42168H52.8851ZM42.3469 2.17659L40.2758 11.8487H37.7713L39.8432 2.17659H42.3469Z" fill="#1434CB"/>
</g>
</g>
<defs>
<clipPath id="clip0_325_23171">
<rect width="23" height="14" fill="white"/>
</clipPath>
<clipPath id="clip1_325_23171">
<rect width="31" height="10" fill="white" transform="translate(27 2)"/>
</clipPath>
</defs>
</svg>
