<svg width="48" height="48" viewBox="0 0 48 48" fill="none" xmlns="http://www.w3.org/2000/svg">
<path d="M0 23C0 10.2975 10.2975 0 23 0H41C44.866 0 48 3.13401 48 7V25C48 37.7025 37.7025 48 25 48H7C3.13401 48 0 44.866 0 41V23Z" fill="#A647E0"/>
<path fill-rule="evenodd" clip-rule="evenodd" d="M30.183 16.581H28.22C28.034 15.127 26.789 14 25.286 14H22.704C21.201 14 19.956 15.126 19.77 16.58L17.817 16.581C15.712 16.581 14 18.289 14 20.388V23.855C14 24.107 14.126 24.342 14.337 24.481C16.396 25.84 18.833 26.745 21.384 27.1C21.763 27.156 22.111 26.919 22.211 26.555C22.434 25.744 23.149 25.199 23.99 25.199C24.822 25.199 25.544 25.756 25.746 26.551C25.831 26.887 26.134 27.117 26.472 27.117C26.507 27.117 26.541 27.115 26.576 27.11C29.144 26.755 31.592 25.845 33.654 24.481C33.864 24.341 33.99 24.107 33.99 23.855V20.388C33.99 18.289 32.282 16.581 30.183 16.581ZM32.49 23.445C30.847 24.466 28.953 25.181 26.959 25.532C26.411 24.425 25.271 23.699 23.99 23.699C22.719 23.699 21.574 24.423 21.011 25.523C19.029 25.174 17.141 24.463 15.5 23.445V20.388C15.5 19.116 16.539 18.081 17.818 18.081L20.496 18.079C20.696 18.079 20.886 18 21.027 17.859C21.167 17.717 21.246 17.527 21.246 17.328L21.245 16.958C21.245 16.154 21.9 15.5 22.704 15.5H25.286C25.959 15.5 26.528 15.959 26.695 16.581H23.995C23.581 16.581 23.245 16.917 23.245 17.331C23.245 17.745 23.581 18.081 23.995 18.081H30.183C31.455 18.081 32.49 19.116 32.49 20.388V23.445ZM24.7448 27.3834V28.6774C24.7448 29.0914 24.4088 29.4274 23.9948 29.4274C23.5808 29.4274 23.2448 29.0914 23.2448 28.6774V27.3834C23.2448 26.9694 23.5808 26.6334 23.9948 26.6334C24.4088 26.6334 24.7448 26.9694 24.7448 27.3834ZM33.215 26.7253C32.822 26.7253 32.509 27.0313 32.479 27.4153C32.479 27.4153 32.325 29.1643 32.293 29.7163C32.256 30.3273 32.008 30.9923 31.661 31.4093C31.172 31.9993 30.63 32.2303 29.728 32.2323C29.136 32.2333 25.943 32.2343 23.531 32.2343C23.116 32.2343 22.78 32.5703 22.78 32.9843C22.78 33.3983 23.116 33.7343 23.53 33.7343C25.858 33.7343 29.172 33.7333 29.731 33.7323C31.065 33.7293 32.046 33.2953 32.816 32.3673C33.369 31.7013 33.733 30.7443 33.79 29.8063C33.8127 29.4205 33.8902 28.4197 33.9334 27.8623C33.9511 27.6337 33.963 27.4797 33.963 27.4733C33.963 27.0603 33.628 26.7253 33.215 26.7253ZM18.2622 32.2321C18.4582 32.2331 18.8642 32.2331 19.3972 32.2331C19.8112 32.2331 20.1502 32.5691 20.1502 32.9831C20.1502 33.3971 19.8102 33.7331 19.3952 33.7331C18.8552 33.7331 18.4612 33.7331 18.2602 33.7321C16.9252 33.7291 15.9442 33.2951 15.1742 32.3661C14.6222 31.7011 14.2572 30.7441 14.2012 29.8061C14.1781 29.4259 14.1023 28.4484 14.0588 27.8866C14.04 27.6446 14.0272 27.4797 14.0272 27.4731C14.0272 27.0601 14.3622 26.7251 14.7752 26.7251C15.1682 26.7251 15.4802 27.0311 15.5112 27.4161C15.5112 27.4161 15.6652 29.1651 15.6982 29.7161C15.7352 30.3271 15.9822 30.9921 16.3292 31.4081C16.8192 32.0001 17.3612 32.2301 18.2622 32.2321Z" fill="white"/>
</svg>
