<svg width="48" height="48" viewBox="0 0 48 48" fill="none" xmlns="http://www.w3.org/2000/svg">
<path d="M0 23C0 10.2975 10.2975 0 23 0H41C44.866 0 48 3.13401 48 7V25C48 37.7025 37.7025 48 25 48H7C3.13401 48 0 44.866 0 41V23Z" fill="#3F68D2"/>
<path d="M18.58 28.0081L19.11 27.4771L18.58 28.0071V28.0081ZM18.58 22.5311L18.05 22.0001L18.58 22.5301V22.5311ZM31.294 23.5481L30.764 23.0171L31.294 23.5471V23.5481ZM25.939 14.5281C25.7607 14.6077 25.6205 14.7536 25.5482 14.9349C25.4758 15.1162 25.477 15.3186 25.5514 15.4991C25.6259 15.6795 25.7678 15.8238 25.947 15.9013C26.1262 15.9788 26.3285 15.9834 26.511 15.9141L25.939 14.5281ZM18.737 28.1601C18.6673 28.2297 18.6119 28.3123 18.5741 28.4033C18.5364 28.4943 18.5169 28.5919 18.5168 28.6904C18.5167 28.7889 18.536 28.8865 18.5736 28.9775C18.6112 29.0686 18.6664 29.1514 18.736 29.2211C18.8056 29.2908 18.8883 29.3462 18.9792 29.3839C19.0702 29.4217 19.1678 29.4412 19.2663 29.4413C19.3648 29.4414 19.4624 29.4221 19.5535 29.3845C19.6445 29.3469 19.7273 29.2917 19.797 29.2221L18.737 28.1601ZM21.857 27.1691C21.9268 27.0995 21.9822 27.0168 22.0201 26.9258C22.0579 26.8348 22.0775 26.7372 22.0776 26.6386C22.0777 26.5401 22.0585 26.4424 22.0209 26.3513C21.9833 26.2602 21.9281 26.1774 21.8585 26.1076C21.7889 26.0378 21.7062 25.9824 21.6152 25.9445C21.5242 25.9067 21.4266 25.8871 21.3281 25.887C21.2295 25.8869 21.1319 25.9061 21.0407 25.9437C20.9496 25.9813 20.8668 26.0365 20.797 26.1061L21.857 27.1691ZM24.029 18.1561C24.1008 18.0871 24.1581 18.0044 24.1976 17.913C24.2371 17.8216 24.258 17.7233 24.2591 17.6237C24.2602 17.5241 24.2415 17.4253 24.204 17.3331C24.1665 17.2408 24.111 17.157 24.0407 17.0864C23.9705 17.0158 23.8869 16.9599 23.7948 16.922C23.7027 16.8841 23.604 16.8649 23.5045 16.8655C23.4049 16.8661 23.3064 16.8866 23.2148 16.9256C23.1233 16.9647 23.0404 17.0216 22.971 17.0931L24.03 18.1551L24.029 18.1561ZM30.764 23.0161L24.917 28.8451L25.977 29.9071L31.823 24.0771L30.764 23.0161ZM20.483 28.8461L19.109 27.4761L18.05 28.5401L19.424 29.9101L20.483 28.8471V28.8461ZM28.547 15.7501H29.116V14.2501H28.546V15.7501H28.547ZM32.25 18.8731V19.4401H33.75V18.8731H32.25ZM29.116 15.7501C30.052 15.7501 30.68 15.7521 31.147 15.8141C31.593 15.8741 31.78 15.9771 31.902 16.0981L32.961 15.0361C32.514 14.5901 31.958 14.4101 31.347 14.3281C30.757 14.2481 30.01 14.2501 29.116 14.2501V15.7501ZM33.75 18.8731C33.75 17.9811 33.752 17.2371 33.672 16.6481C33.59 16.0371 33.408 15.4821 32.961 15.0361L31.9 16.0981C32.022 16.2191 32.125 16.4051 32.185 16.8481C32.248 17.3141 32.25 17.9381 32.25 18.8731H33.75ZM19.11 27.4771C18.447 26.8171 18.005 26.3731 17.719 25.9991C17.446 25.6431 17.388 25.4391 17.388 25.2691H15.888C15.888 25.9011 16.153 26.4211 16.528 26.9111C16.889 27.3831 17.418 27.9081 18.05 28.5391L19.11 27.4771ZM19.423 29.9081C20.055 30.5381 20.583 31.0661 21.056 31.4261C21.548 31.8001 22.069 32.0631 22.7 32.0631V30.5631C22.527 30.5631 22.322 30.5041 21.965 30.2331C21.59 29.9471 21.145 29.5061 20.483 28.8461L19.423 29.9081ZM31.824 24.0781C32.622 23.2831 33.178 22.7461 33.471 22.0421L32.086 21.4671C31.935 21.8311 31.65 22.1341 30.764 23.0171L31.824 24.0791V24.0781ZM32.25 19.4401C32.25 20.6891 32.237 21.1031 32.086 21.4671L33.471 22.0421C33.763 21.3381 33.75 20.5661 33.75 19.4401H32.25ZM28.547 14.2501C27.417 14.2501 26.644 14.2371 25.939 14.5281L26.511 15.9141C26.877 15.7641 27.295 15.7501 28.547 15.7501V14.2501ZM19.797 29.2221L21.857 27.1701L20.797 26.1071L18.737 28.1611L19.797 29.2221ZM24.917 28.8451C24.406 29.3551 24.021 29.7391 23.691 30.0241C23.359 30.3111 23.135 30.4501 22.96 30.5151L23.478 31.9231C23.906 31.7651 24.292 31.4871 24.671 31.1591C25.051 30.8311 25.479 30.4041 25.976 29.9091L24.917 28.8451ZM22.96 30.5151C22.877 30.5468 22.7889 30.5631 22.7 30.5631V32.0631C22.97 32.0631 23.228 32.0151 23.478 31.9231L22.96 30.5151ZM18.05 22.0001C17.565 22.4841 17.146 22.9011 16.82 23.2721C16.496 23.6421 16.22 24.0171 16.054 24.4281L17.446 24.9881C17.516 24.8111 17.662 24.5881 17.948 24.2611C18.233 23.9361 18.611 23.5591 19.109 23.0611L18.05 22.0001ZM16.054 24.4281C15.9448 24.695 15.8884 24.9807 15.888 25.2691H17.388C17.388 25.1791 17.404 25.0911 17.446 24.9881L16.054 24.4271V24.4281ZM19.109 23.0621L24.029 18.1561L22.971 17.0931L18.05 22.0001L19.108 23.0621H19.109Z" fill="white"/>
<path d="M16.573 24.532L17.103 24.002V24L16.573 24.532ZM20.92 20.422C21.0028 20.4789 21.0961 20.5186 21.1945 20.5388C21.2929 20.5589 21.3944 20.5591 21.4928 20.5393C21.5913 20.5195 21.6848 20.4801 21.7678 20.4235C21.8507 20.3669 21.9215 20.2942 21.9758 20.2097C22.0302 20.1252 22.067 20.0307 22.0841 19.9317C22.1012 19.8327 22.0982 19.7313 22.0754 19.6335C22.0526 19.5357 22.0103 19.4435 21.9511 19.3623C21.892 19.2811 21.8171 19.2127 21.731 19.161L20.92 20.422ZM13.226 21.024L13.755 21.554L13.225 21.024H13.226ZM13.863 22.427L13.587 23.124L13.863 22.426V22.427ZM13.701 23.169C13.8845 23.2425 14.0897 23.2407 14.2718 23.1638C14.454 23.0869 14.5984 22.9412 14.6737 22.7584C14.7489 22.5755 14.7489 22.3704 14.6737 22.1875C14.5985 22.0047 14.4541 21.8589 14.272 21.782L13.701 23.169ZM16.219 25.238C16.3612 25.3704 16.5492 25.4426 16.7435 25.4391C16.9378 25.4357 17.1232 25.357 17.2606 25.2196C17.398 25.0822 17.4767 24.8968 17.4802 24.7025C17.4836 24.5082 17.4115 24.3201 17.279 24.178L16.219 25.238ZM16.622 23.522C16.5527 23.4504 16.4699 23.3934 16.3783 23.3542C16.2868 23.3151 16.1883 23.2945 16.0887 23.2938C15.9891 23.2931 15.8904 23.3122 15.7983 23.35C15.7062 23.3879 15.6225 23.4437 15.5522 23.5142C15.4819 23.5847 15.4263 23.6685 15.3887 23.7608C15.3512 23.853 15.3323 23.9518 15.3333 24.0513C15.3343 24.1509 15.3552 24.2493 15.3946 24.3408C15.434 24.4322 15.4913 24.5149 15.563 24.584L16.622 23.522ZM21.732 19.161L21.102 18.757L20.29 20.017L20.92 20.422L21.731 19.161H21.732ZM21.102 18.757C20.481 18.357 19.979 18.033 19.548 17.8C19.106 17.562 18.693 17.394 18.236 17.326L18.017 18.81C18.237 18.843 18.477 18.927 18.836 19.12C19.204 19.32 19.65 19.605 20.29 20.017L21.102 18.757ZM13.755 21.555C14.3133 20.99 14.8834 20.4369 15.465 19.896C15.735 19.649 15.983 19.436 16.195 19.273C16.418 19.101 16.56 19.017 16.627 18.989L16.052 17.604C15.795 17.711 15.525 17.895 15.279 18.085C15.021 18.285 14.739 18.527 14.453 18.788C13.881 19.31 13.253 19.937 12.696 20.493L13.755 21.555ZM18.236 17.326C17.4963 17.2193 16.7414 17.3154 16.052 17.604L16.627 18.989C17.0656 18.8047 17.546 18.7428 18.017 18.81L18.236 17.326ZM13.208 22.974L13.587 23.124L14.139 21.729L13.761 21.579L13.208 22.974ZM13.587 23.124L13.701 23.169L14.272 21.782L14.139 21.729L13.587 23.124ZM12.696 20.493C12.5181 20.6703 12.3871 20.8892 12.3149 21.1298C12.2426 21.3704 12.2314 21.6252 12.2822 21.8712C12.333 22.1173 12.4442 22.3468 12.6058 22.5391C12.7675 22.7315 12.9744 22.8805 13.208 22.973L13.761 21.579L13.754 21.576C13.754 21.575 13.751 21.572 13.751 21.568V21.56C13.751 21.56 13.751 21.558 13.755 21.555L12.696 20.493ZM16.043 25.062L16.219 25.238L17.279 24.178L17.105 24L16.044 25.061L16.043 25.062ZM15.563 24.584L16.043 25.062L17.105 24L16.624 23.522L15.563 24.584ZM23.5 31.5L22.97 32.03C22.9813 32.0417 22.993 32.053 23.005 32.064L23.499 31.5H23.5ZM28.823 26.232C28.7133 26.0688 28.5438 25.9553 28.3512 25.9158C28.1586 25.8763 27.9582 25.9141 27.7931 26.0209C27.628 26.1278 27.5115 26.2952 27.4687 26.4871C27.4258 26.679 27.4601 26.88 27.564 27.047L28.823 26.232ZM26.445 34.297C26.4104 34.203 26.3573 34.1169 26.2888 34.0438C26.2204 33.9707 26.1381 33.912 26.0466 33.8713C25.9551 33.8305 25.8564 33.8085 25.7563 33.8065C25.6562 33.8045 25.5567 33.8225 25.4637 33.8596C25.3706 33.8966 25.286 33.952 25.2147 34.0223C25.1434 34.0926 25.0869 34.1764 25.0485 34.2689C25.0101 34.3614 24.9907 34.4607 24.9913 34.5608C24.9919 34.6609 25.0125 34.7599 25.052 34.852L26.445 34.297ZM23.528 32.523C23.6021 32.5879 23.6882 32.6376 23.7815 32.6693C23.8747 32.7009 23.9733 32.7139 24.0716 32.7074C24.1699 32.701 24.266 32.6752 24.3543 32.6317C24.4427 32.5881 24.5216 32.5275 24.5865 32.4535C24.6514 32.3794 24.7011 32.2933 24.7328 32.2C24.7645 32.1067 24.7774 32.0081 24.771 31.9098C24.7645 31.8115 24.7388 31.7155 24.6952 31.6271C24.6516 31.5388 24.5911 31.4599 24.517 31.395L23.528 32.523ZM23.749 30.689C23.6076 30.5523 23.4182 30.4766 23.2215 30.4782C23.0249 30.4798 22.8367 30.5586 22.6976 30.6976C22.5585 30.8366 22.4795 31.0247 22.4777 31.2213C22.4759 31.418 22.5514 31.6074 22.688 31.749L23.749 30.689ZM27.564 27.047L27.97 27.675L29.23 26.859L28.823 26.232L27.564 27.047ZM26.428 34.185L26.344 34.268L27.404 35.331L27.488 35.247L26.428 34.185ZM27.97 27.675C28.384 28.313 28.67 28.757 28.87 29.125C29.064 29.482 29.148 29.721 29.18 29.939L30.664 29.719C30.596 29.262 30.427 28.849 30.188 28.409C29.955 27.979 29.631 27.479 29.23 26.859L27.97 27.675ZM27.488 35.247C28.045 34.691 28.674 34.064 29.198 33.494C29.459 33.209 29.703 32.929 29.902 32.672C30.092 32.426 30.278 32.157 30.385 31.9L29.001 31.322C28.9226 31.4754 28.8273 31.6196 28.717 31.752C28.5185 32.0029 28.31 32.2457 28.092 32.48C27.595 33.021 26.991 33.623 26.428 34.185L27.488 35.247ZM29.18 29.939C29.247 30.395 29.188 30.873 29.001 31.322L30.385 31.9C30.675 31.207 30.773 30.452 30.665 29.719L29.18 29.939ZM24.517 31.395L23.994 30.936L23.005 32.064L23.528 32.523L24.517 31.395ZM26.345 34.268C26.353 34.2605 26.3625 34.255 26.373 34.252C26.3801 34.2499 26.3877 34.2495 26.395 34.251C26.4038 34.253 26.4121 34.2571 26.419 34.263C26.431 34.273 26.44 34.285 26.445 34.297L25.052 34.852C25.436 35.816 26.684 36.048 27.404 35.331L26.344 34.268H26.345ZM24.03 30.97L23.749 30.689L22.688 31.749L22.969 32.031L24.03 30.97ZM24.917 23.629C24.9868 23.6986 25.0696 23.7537 25.1607 23.7913C25.2519 23.8289 25.3495 23.8482 25.4481 23.8481C25.5466 23.8479 25.6442 23.8284 25.7352 23.7905C25.8262 23.7527 25.9089 23.6973 25.9785 23.6275C26.0481 23.5577 26.1033 23.4748 26.1409 23.3837C26.1785 23.2926 26.1977 23.195 26.1976 23.0964C26.1974 22.9978 26.1779 22.9003 26.14 22.8092C26.1022 22.7182 26.0468 22.6356 25.977 22.566L24.917 23.629ZM27.664 22.566C27.523 22.7064 27.4436 22.8971 27.4433 23.096C27.4429 23.295 27.5216 23.486 27.662 23.627C27.8024 23.7679 27.9931 23.8473 28.1921 23.8477C28.3911 23.8481 28.582 23.7694 28.723 23.629L27.664 22.566ZM28.723 19.828C28.2177 19.3244 27.5334 19.0417 26.82 19.0417C26.1066 19.0417 25.4223 19.3244 24.917 19.828L25.977 20.89C26.2011 20.667 26.5044 20.5419 26.8205 20.5419C27.1366 20.5419 27.4399 20.667 27.664 20.89L28.723 19.828ZM24.917 19.828C24.6669 20.0771 24.4684 20.3732 24.333 20.6993C24.1976 21.0253 24.1279 21.3749 24.1279 21.728C24.1279 22.081 24.1976 22.4306 24.333 22.7566C24.4684 23.0827 24.6669 23.3798 24.917 23.629L25.977 22.566C25.8666 22.4561 25.779 22.3255 25.7192 22.1817C25.6594 22.0379 25.6286 21.8837 25.6286 21.728C25.6286 21.5722 25.6594 21.418 25.7192 21.2742C25.779 21.1304 25.8666 20.9998 25.977 20.89L24.917 19.828ZM28.723 23.629C28.9731 23.3798 29.1716 23.0827 29.307 22.7566C29.4424 22.4306 29.5121 22.081 29.5121 21.728C29.5121 21.3749 29.4424 21.0253 29.307 20.6993C29.1716 20.3732 28.9731 20.0771 28.723 19.828L27.664 20.89C27.7744 20.9998 27.861 21.1304 27.9208 21.2742C27.9806 21.418 28.0114 21.5722 28.0114 21.728C28.0114 21.8837 27.9806 22.0379 27.9208 22.1817C27.861 22.3255 27.7744 22.4561 27.664 22.566L28.723 23.629Z" fill="white"/>
</svg>
