<svg width="48" height="48" viewBox="0 0 48 48" fill="none" xmlns="http://www.w3.org/2000/svg">
<path d="M0 23C0 10.2975 10.2975 0 23 0H41C44.866 0 48 3.13401 48 7V25C48 37.7025 37.7025 48 25 48H7C3.13401 48 0 44.866 0 41V23Z" fill="#CF9641"/>
<path d="M28.4979 33.9194C28.3749 33.9224 28.2529 33.8914 28.1459 33.8294L23.0079 31.1234L18.4839 33.5594C17.7459 33.9594 16.8219 33.6854 16.4219 32.9464C16.4169 32.9374 16.4119 32.9284 16.4069 32.9184C16.2499 32.6094 16.1949 32.2604 16.2489 31.9184L17.1289 26.7244L13.4509 23.0004C12.8499 22.3804 12.8499 21.3944 13.4509 20.7734C13.6849 20.5274 13.9949 20.3684 14.3309 20.3224L19.3739 19.5564L21.6169 14.8834C21.9659 14.1234 22.8649 13.7894 23.6259 14.1384C23.9559 14.2894 24.2199 14.5544 24.3709 14.8834L26.6239 19.5724L31.6839 20.3474C32.0929 20.4084 32.4599 20.6344 32.6999 20.9714C33.1479 21.6154 33.0799 22.4854 32.5379 23.0524L28.8769 26.7324L29.3869 29.5314C29.4579 29.9514 29.1809 30.3524 28.7619 30.4314C28.3499 30.5054 27.9559 30.2314 27.8819 29.8184L27.3629 27.0194C27.2759 26.5064 27.4389 25.9824 27.8029 25.6114L31.4729 21.9054L26.4129 21.1204C25.8999 21.0374 25.4649 20.6974 25.2599 20.2204L23.0079 15.5514L20.7279 20.2944C20.5229 20.7724 20.0879 21.1114 19.5749 21.1944L14.5319 21.9604L18.1749 25.6604C18.5379 26.0254 18.7009 26.5424 18.6149 27.0494L17.7349 32.2434L22.2579 29.8174C22.7059 29.5654 23.2529 29.5654 23.7009 29.8174L28.8319 32.5234C29.1449 32.6944 29.3039 33.0554 29.2189 33.4024C29.1409 33.7494 28.8349 33.9964 28.4799 34.0024L28.4979 33.9194Z" fill="white"/>
</svg>
