<svg width="49" height="53" viewBox="0 0 49 53" fill="none" xmlns="http://www.w3.org/2000/svg">
<path d="M1.60301 50.6221C0.909814 49.4596 0.563218 48.2971 0.563218 47.0818C0.563218 45.4965 1.21309 43.9641 2.51282 42.4317L33.7498 19.0229C36.2626 17.1735 37.519 15.4826 37.519 14.003C37.519 12.1535 35.6127 11.2552 31.8435 11.3081H4.63572C1.55968 11.3609 0 9.51147 0 5.81256C0 4.12163 0.38992 2.69492 1.21309 1.58524C2.07958 0.528415 3.20601 0 4.63572 0H38.5588C41.6782 0 44.2343 1.5324 46.2706 4.65005C48.0902 7.39781 49 10.6211 49 14.32C49 18.5474 47.7869 21.5593 45.3607 23.3559L8.62157 51.6261C7.45181 52.5244 6.32538 53 5.24226 53C3.76923 52.9472 2.55614 52.2074 1.60301 50.6221Z" fill="white"/>
</svg>
