<svg width="151" height="63" viewBox="0 0 151 63" fill="none" xmlns="http://www.w3.org/2000/svg">
<g clip-path="url(#clip0_580_13274)">
<path d="M98.19 49.6488C98.1421 49.6318 98.1027 49.6073 98.0718 49.5754C98.0451 49.5488 98.0276 49.509 98.019 49.4558C96.941 43.0016 95.8566 36.5474 94.7657 30.0933" stroke="#E8A51A" stroke-width="2"/>
<path d="M94.7657 30.0932C94.8392 29.9592 94.8253 29.8401 94.7241 29.7359C90.0391 24.8682 85.3414 19.9233 80.6308 14.9014C80.5094 14.7717 80.3618 14.7275 80.1882 14.769C77.4792 15.4176 75.2385 16.8403 73.4659 19.0371C73.4576 19.0475 73.4471 19.0559 73.4352 19.0618C73.4232 19.0677 73.4101 19.0708 73.3968 19.0709C73.3834 19.0711 73.3703 19.0683 73.3582 19.0627C73.3461 19.0571 73.3354 19.0489 73.3269 19.0387C70.815 16.0923 67.7172 14.5697 64.0336 14.4708C62.946 14.441 61.8908 14.5526 60.8682 14.8057C59.3086 15.1917 57.9041 15.8419 56.6546 16.7563C53.7432 18.8903 52.0921 21.7314 51.7011 25.2797C51.6031 26.1686 51.6244 27.1245 51.765 28.1473C51.8961 29.1001 52.0846 30.0427 52.3307 30.9752" stroke="#FFDB91" stroke-width="2"/>
<path d="M52.3307 30.9751C52.2913 31.0952 52.2913 31.2702 52.3307 31.4998C52.9113 34.8705 54.0862 41.9249 55.8556 52.663C55.9728 53.3701 56.0362 53.8008 56.0458 53.9549" stroke="#E8A51A" stroke-width="2"/>
<path d="M94.7657 30.0933C94.2277 31.8817 93.5817 33.5038 92.8275 34.9594C91.1337 38.2248 88.9616 41.2137 86.3113 43.9261C84.6953 45.5785 83.099 47.0288 81.5224 48.2771C78.9573 50.3059 76.2718 52.1964 73.4659 53.9487C73.4447 53.9617 73.4204 53.9686 73.3956 53.9686C73.3708 53.9686 73.3464 53.9617 73.3253 53.9487C71.4824 52.8036 69.7167 51.6228 68.0283 50.4064C65.3385 48.468 62.8373 46.3111 60.5246 43.9357C59.0343 42.4056 57.5781 40.6294 56.156 38.607C54.4484 36.1795 53.1733 33.6356 52.3307 30.9753" stroke="#E8C988" stroke-width="2"/>
<path d="M89.6749 34.4506C90.4365 33.1151 91.0608 31.7312 91.5476 30.299C91.5513 30.2883 91.5525 30.2769 91.5511 30.2656C91.5497 30.2544 91.5458 30.2436 91.5396 30.2341C91.5335 30.2246 91.5252 30.2166 91.5156 30.2107C91.5059 30.2048 91.495 30.2012 91.4837 30.2001C88.0088 29.8641 85.1811 28.4265 83.0005 25.8874C82.0301 24.7582 81.3121 23.5322 80.8466 22.2095" stroke="#959595" stroke-width="2"/>
<path d="M80.8465 22.2094C80.3597 20.9121 80.1519 19.5043 80.2233 17.986C80.2238 17.9727 80.221 17.9595 80.2153 17.9475C80.2095 17.9356 80.2009 17.9252 80.1901 17.9173C80.1794 17.9095 80.1669 17.9044 80.1538 17.9024C80.1406 17.9005 80.1272 17.9018 80.1146 17.9062C78.3921 18.5282 76.9849 19.5027 75.893 20.8297C75.4872 21.321 75.0424 22.0392 74.5588 22.9845C74.1732 23.7384 73.8041 24.5007 73.4515 25.2716C73.4131 25.3556 73.3742 25.3562 73.3348 25.2732C72.9801 24.5215 72.612 23.7697 72.2307 23.018C71.7577 22.0855 71.3215 21.3736 70.922 20.8824C69.7023 19.3821 68.1667 18.365 66.3153 17.8312C65.3012 17.5378 64.2482 17.4309 63.1563 17.5107C60.246 17.7212 57.919 19.0647 56.1752 21.5411C55.7022 22.2131 55.3384 22.9526 55.0838 23.7596C54.8846 24.3891 54.7653 25.1472 54.7259 26.034C54.6843 26.9421 54.7115 27.714 54.8074 28.3499C54.9661 29.4046 55.349 30.6705 55.9562 32.1474C56.6625 33.8646 57.7453 35.7089 59.2047 37.6802C60.7355 39.7462 62.4357 41.6633 64.3052 43.4316C66.8256 45.8155 69.8323 48.134 73.3252 50.3871C73.3452 50.3999 73.3685 50.4066 73.3923 50.4063C73.4162 50.4061 73.4395 50.3988 73.4595 50.3855C76.2866 48.5364 78.6813 46.7703 80.6435 45.0871C82.397 43.5815 84.0374 41.9626 85.565 40.2305C87.1384 38.4485 88.5083 36.5218 89.6748 34.4505" stroke="#999999" stroke-width="2"/>
<path d="M80.8465 22.2095C80.6356 22.1978 80.5504 22.2696 80.5908 22.4248C80.6121 22.5035 80.6233 22.5471 80.6244 22.5556C81.4702 27.5626 82.3464 32.5697 83.2529 37.5767C83.2923 37.7947 83.4127 37.8569 83.614 37.7633C85.2077 37.019 86.7752 36.1179 88.3166 35.0599C88.3241 35.0556 88.4364 34.9679 88.6538 34.7967C88.9467 34.5649 89.2871 34.4496 89.6748 34.4506" stroke="#2F2F2F" stroke-width="2"/>
<path d="M98.19 49.6488C98.1421 49.6318 98.1026 49.6073 98.0718 49.5754C98.0451 49.5488 98.0275 49.509 98.019 49.4558C96.941 43.0016 95.8566 36.5474 94.7657 30.0933C94.8392 29.9593 94.8254 29.8402 94.7242 29.736C90.0392 24.8683 85.3414 19.9234 80.6308 14.9015C80.5094 14.7718 80.3619 14.7276 80.1882 14.7691C77.4793 15.4177 75.2385 16.8404 73.4659 19.0372C73.4577 19.0476 73.4472 19.056 73.4352 19.0619C73.4233 19.0678 73.4101 19.0709 73.3968 19.071C73.3835 19.0712 73.3703 19.0684 73.3582 19.0628C73.3461 19.0572 73.3354 19.049 73.3269 19.0388C70.8151 16.0924 67.7173 14.5698 64.0336 14.4709C62.946 14.4411 61.8909 14.5527 60.8682 14.8058C59.3087 15.1918 57.9042 15.842 56.6546 16.7564C53.7433 18.8904 52.0921 21.7315 51.7012 25.2798C51.6032 26.1687 51.6245 27.1246 51.7651 28.1474C51.8961 29.1002 52.0847 30.0428 52.3307 30.9753C52.2913 31.0954 52.2913 31.2703 52.3307 31.5C52.9113 34.8706 54.0863 41.925 55.8557 52.6632C55.9728 53.3703 56.0362 53.8009 56.0458 53.9551C54.22 52.9407 52.4058 51.9051 50.6034 50.8482C49.5968 50.2581 48.7515 49.7089 48.0676 49.2006C47.5115 48.787 47.0636 48.3266 46.7238 47.8194C46.0175 46.7657 45.585 45.6147 45.4263 44.3664C45.3986 44.1441 45.3736 43.0819 45.3512 41.1797C45.2702 34.1024 45.2052 27.0246 45.1562 19.9463C45.1371 17.0935 46.3019 14.8962 48.6508 13.3544C49.5595 12.7579 50.4857 12.1901 51.4295 11.651C56.8677 8.55046 62.3047 5.44778 67.7407 2.34297C68.6622 1.81557 69.5266 1.36261 70.3341 0.98408C71.2918 0.534308 72.1344 0.271675 72.8619 0.196181C74.1339 0.0632698 75.3594 0.276991 76.5387 0.837346C77.4836 1.28605 78.585 1.88362 79.8431 2.63005C85.2706 5.85289 90.6901 9.08848 96.1016 12.3368C97.6078 13.2406 98.5048 13.8111 98.7924 14.0482C99.6968 14.7946 100.393 15.7117 100.882 16.7995C101.147 17.3875 101.32 18.0701 101.402 18.8474C101.472 19.5226 101.507 20.2312 101.506 20.9734C101.493 28.2974 101.48 35.6208 101.466 42.9437C101.46 45.8071 100.368 48.0422 98.19 49.6488Z" fill="#DDDDDD"/>
<path d="M6.50816 41.9962L5.53825 47.856C5.53214 47.8956 5.51218 47.9316 5.48199 47.9577C5.4518 47.9837 5.41337 47.998 5.37366 47.998L0.244458 48.0076C0.223714 48.0077 0.203209 48.0032 0.184378 47.9944C0.165548 47.9857 0.148848 47.9729 0.135451 47.9569C0.122053 47.941 0.112282 47.9223 0.106822 47.9021C0.101362 47.8819 0.100346 47.8607 0.103844 47.8401L6.03039 14.2412C6.03488 14.2169 6.04773 14.1951 6.06671 14.1793C6.08568 14.1636 6.10959 14.155 6.13426 14.155H14.5679C14.5953 14.155 14.6218 14.1645 14.6428 14.182C14.6639 14.1995 14.6781 14.2238 14.6829 14.2507L20.6079 47.8608C20.6109 47.8789 20.61 47.8974 20.6052 47.9151C20.6004 47.9328 20.5919 47.9492 20.5801 47.9632C20.5684 47.9771 20.5538 47.9883 20.5374 47.996C20.5209 48.0037 20.503 48.0076 20.4848 48.0076H14.8076C14.7706 48.0076 14.7348 47.9945 14.7066 47.9705C14.6785 47.9465 14.6599 47.9133 14.6542 47.8768L13.6922 42.0026C13.6877 41.9759 13.6738 41.9516 13.6531 41.9341C13.6323 41.9165 13.606 41.9069 13.5788 41.9069L6.59924 41.9165C6.57738 41.9163 6.55615 41.9243 6.53943 41.939C6.52271 41.9536 6.51161 41.9739 6.50816 41.9962ZM10.0155 20.5332L7.29272 37.1189C7.29017 37.134 7.29094 37.1495 7.29498 37.1642C7.29902 37.179 7.30623 37.1927 7.31612 37.2044C7.32601 37.2161 7.33833 37.2255 7.35222 37.2319C7.36612 37.2384 7.38126 37.2417 7.39658 37.2417H12.7719C12.7821 37.2416 12.7923 37.2393 12.8016 37.235C12.8109 37.2307 12.8191 37.2244 12.8256 37.2167C12.8322 37.2089 12.8369 37.1998 12.8395 37.1901C12.8421 37.1804 12.8424 37.1703 12.8406 37.1604L10.1066 20.5332C10.0757 20.3492 10.0453 20.3492 10.0155 20.5332Z" fill="white"/>
<path d="M38.9644 16.0929C39.9519 16.9892 40.6156 18.1078 40.9554 19.4486C41.2121 20.4598 41.341 21.4332 41.3421 22.3689C41.3442 28.1905 41.3453 34.012 41.3453 39.8335C41.3442 41.1073 41.1312 42.3434 40.7061 43.5417C40.3493 44.5455 39.7719 45.3972 38.974 46.0968C38.2752 46.7093 37.3974 47.1835 36.3407 47.5195C35.3181 47.8449 34.2565 48.0075 33.1561 48.0075C29.9465 48.0075 26.7028 48.0075 23.425 48.0075C23.389 48.0075 23.3544 47.9933 23.329 47.9678C23.3035 47.9424 23.2892 47.9079 23.2892 47.872V14.2778C23.2892 14.2478 23.301 14.219 23.3219 14.1977C23.3429 14.1765 23.3714 14.1646 23.401 14.1646C25.8927 14.155 28.3987 14.1513 30.9191 14.1534C32.681 14.1545 33.7452 14.1736 34.1117 14.2108C35.3495 14.3352 36.5191 14.6521 37.6206 15.1614C38.051 15.3602 38.4989 15.6707 38.9644 16.0929ZM33.9167 19.3082C33.5108 19.12 33.0709 19.0254 32.5969 19.0243C31.5188 19.0212 30.4232 19.0196 29.31 19.0196C29.2812 19.0196 29.2536 19.0308 29.2332 19.0509C29.2128 19.0709 29.2014 19.0981 29.2014 19.1264L29.2109 43.0537C29.2109 43.0748 29.2194 43.0951 29.2343 43.1101C29.2493 43.125 29.2696 43.1334 29.2908 43.1334C30.2996 43.1451 31.3084 43.1605 32.3172 43.1797C33.8011 43.2084 34.7561 42.682 35.1822 41.6007C35.3495 41.1743 35.4331 40.2779 35.4331 38.9116C35.4331 33.2783 35.4331 27.6445 35.4331 22.0101C35.4331 21.2743 35.2611 20.6528 34.917 20.1456C34.6709 19.7819 34.3375 19.5028 33.9167 19.3082Z" fill="white"/>
<path d="M151 14.1821V18.9893L140.722 19.0196C140.694 19.0196 140.666 19.0308 140.646 19.0509C140.625 19.0709 140.614 19.0981 140.614 19.1264L140.623 28.3181C140.623 28.3477 140.635 28.3761 140.657 28.397C140.678 28.4179 140.707 28.4297 140.737 28.4297H148.753C148.77 28.4297 148.787 28.4331 148.803 28.4395C148.819 28.446 148.833 28.4556 148.845 28.4676C148.857 28.4795 148.866 28.4938 148.873 28.5095C148.879 28.5251 148.883 28.5419 148.883 28.5589V33.1555C148.883 33.1923 148.868 33.2276 148.842 33.2536C148.815 33.2796 148.779 33.2943 148.742 33.2943L140.726 33.3038C140.696 33.3038 140.668 33.3156 140.647 33.3365C140.626 33.3575 140.614 33.3859 140.614 33.4155L140.623 43.0936C140.623 43.1172 140.633 43.14 140.65 43.1567C140.668 43.1735 140.691 43.1829 140.716 43.1829L151 43.2196V47.9773L135.082 48.0076C135.045 48.0076 135.009 47.9928 134.982 47.9664C134.956 47.9401 134.941 47.9044 134.941 47.8672V14.2651C134.941 14.2359 134.953 14.2079 134.973 14.1873C134.993 14.1666 135.021 14.155 135.05 14.155L151 14.1821Z" fill="white"/>
<path d="M111.011 25.4232C110.933 25.0776 110.893 25.0819 110.893 25.4359V41.0089C110.893 41.0461 110.878 41.0818 110.852 41.1081C110.826 41.1345 110.79 41.1493 110.752 41.1493H105.451C105.436 41.1493 105.422 41.1464 105.409 41.1409C105.395 41.1353 105.383 41.1272 105.373 41.117C105.363 41.1068 105.354 41.0947 105.349 41.0813C105.343 41.068 105.34 41.0537 105.34 41.0392L105.35 14.3065C105.35 14.2918 105.353 14.2773 105.359 14.2637C105.364 14.2502 105.372 14.2379 105.383 14.2275C105.393 14.2172 105.406 14.2089 105.419 14.2033C105.433 14.1977 105.447 14.1948 105.462 14.1948L113.228 14.2044C113.264 14.2043 113.3 14.2169 113.329 14.2401C113.357 14.2633 113.377 14.2957 113.386 14.332C114.954 21.2359 116.517 28.1048 118.074 34.9386C118.122 35.1523 118.151 35.3251 118.16 35.4569C118.162 35.4843 118.169 35.5097 118.179 35.5299C118.19 35.5501 118.204 35.5641 118.219 35.5702C118.259 35.5861 118.285 35.5595 118.299 35.4904C119.815 28.4249 121.345 21.3619 122.89 14.3017C122.895 14.2794 122.908 14.2595 122.925 14.2453C122.943 14.2311 122.965 14.2234 122.987 14.2235L130.924 14.1948C130.951 14.1948 130.977 14.2057 130.996 14.2252C131.016 14.2446 131.026 14.271 131.026 14.2985V47.9022C131.026 47.916 131.024 47.9297 131.018 47.9425C131.013 47.9553 131.005 47.9669 130.996 47.9767C130.986 47.9864 130.974 47.9942 130.961 47.9995C130.949 48.0048 130.935 48.0075 130.921 48.0075H125.434C125.413 48.0075 125.392 47.9991 125.377 47.9841C125.362 47.9692 125.354 47.9489 125.354 47.9277C125.349 40.5294 125.352 33.131 125.364 25.7326C125.364 25.7188 125.374 25.6651 125.394 25.5715C125.406 25.5183 125.392 25.4763 125.354 25.4455C125.347 25.4398 125.339 25.4362 125.33 25.4352C125.321 25.4342 125.311 25.4358 125.302 25.4398C125.294 25.4438 125.286 25.4501 125.279 25.458C125.273 25.466 125.268 25.4754 125.266 25.4854L120.174 47.8464C120.164 47.8892 120.14 47.9276 120.107 47.9551C120.073 47.9827 120.03 47.9978 119.987 47.9979L116.26 48.0075C116.226 48.0075 116.194 47.996 116.167 47.9749C116.141 47.9537 116.122 47.9241 116.115 47.8911L111.011 25.4232Z" fill="white"/>
<path d="M94.7657 30.0932C94.2277 31.8816 93.5817 33.5037 92.8275 34.9593C91.1337 38.2247 88.9616 41.2136 86.3113 43.9261C84.6953 45.5784 83.099 47.0287 81.5224 48.277C78.9573 50.3058 76.2718 52.1963 73.4659 53.9486C73.4447 53.9616 73.4204 53.9685 73.3956 53.9685C73.3708 53.9685 73.3464 53.9616 73.3253 53.9486C71.4824 52.8035 69.7167 51.6227 68.0283 50.4063C65.3385 48.4679 62.8373 46.311 60.5246 43.9356C59.0343 42.4056 57.5781 40.6293 56.156 38.6069C54.4484 36.1794 53.1733 33.6355 52.3307 30.9752C52.0846 30.0427 51.8961 29.1001 51.765 28.1473C51.6244 27.1245 51.6031 26.1686 51.7011 25.2797C52.0921 21.7314 53.7432 18.8903 56.6546 16.7563C57.9041 15.8419 59.3086 15.1917 60.8682 14.8057C61.8908 14.5526 62.946 14.441 64.0336 14.4708C67.7172 14.5697 70.815 16.0923 73.3269 19.0387C73.3354 19.0489 73.3461 19.0571 73.3582 19.0627C73.3703 19.0683 73.3834 19.0711 73.3968 19.0709C73.4101 19.0708 73.4232 19.0677 73.4352 19.0618C73.4471 19.0559 73.4576 19.0475 73.4659 19.0371C75.2385 16.8403 77.4792 15.4176 80.1882 14.769C80.3618 14.7275 80.5094 14.7717 80.6308 14.9014C85.3414 19.9233 90.0391 24.8682 94.7241 29.7359C94.8253 29.8401 94.8392 29.9592 94.7657 30.0932ZM89.6748 34.4505C90.4365 33.115 91.0607 31.7312 91.5475 30.2989C91.5512 30.2882 91.5524 30.2768 91.551 30.2656C91.5497 30.2543 91.5457 30.2435 91.5396 30.234C91.5334 30.2245 91.5252 30.2165 91.5155 30.2106C91.5058 30.2047 91.4949 30.2011 91.4836 30.2C88.0088 29.864 85.181 28.4265 83.0005 25.8873C82.03 24.7581 81.312 23.5321 80.8465 22.2094C80.3597 20.9122 80.152 19.5044 80.2233 17.986C80.2238 17.9727 80.2211 17.9595 80.2153 17.9476C80.2095 17.9356 80.2009 17.9253 80.1902 17.9174C80.1795 17.9095 80.167 17.9044 80.1538 17.9025C80.1407 17.9005 80.1272 17.9018 80.1147 17.9063C78.3922 18.5283 76.985 19.5028 75.8931 20.8298C75.4872 21.321 75.0425 22.0393 74.5588 22.9845C74.1732 23.7384 73.8041 24.5008 73.4515 25.2717C73.4132 25.3557 73.3743 25.3562 73.3349 25.2733C72.9801 24.5215 72.6121 23.7698 72.2307 23.018C71.7578 22.0855 71.3215 21.3736 70.9221 20.8824C69.7024 19.3821 68.1668 18.3651 66.3154 17.8313C65.3012 17.5378 64.2482 17.431 63.1564 17.5107C60.2461 17.7212 57.919 19.0647 56.1752 21.5411C55.7022 22.2131 55.3384 22.9526 55.0838 23.7597C54.8846 24.3891 54.7653 25.1473 54.7259 26.0341C54.6844 26.9421 54.7115 27.7141 54.8074 28.3499C54.9661 29.4047 55.3491 30.6705 55.9563 32.1474C56.6626 33.8647 57.7454 35.7089 59.2048 37.6803C60.7356 39.7463 62.4357 41.6634 64.3052 43.4316C66.8256 45.8155 69.8323 48.134 73.3253 50.3871C73.3452 50.4 73.3685 50.4067 73.3924 50.4064C73.4162 50.4061 73.4396 50.3989 73.4595 50.3856C76.2867 48.5365 78.6814 46.7704 80.6436 45.0872C82.397 43.5816 84.0375 41.9627 85.5651 40.2306C87.1385 38.4485 88.5084 36.5218 89.6748 34.4505Z" fill="white"/>
<path d="M80.8465 22.2096C80.6356 22.1979 80.5503 22.2697 80.5908 22.4249C80.6121 22.5036 80.6233 22.5472 80.6244 22.5557C81.4702 27.5627 82.3464 32.5698 83.2529 37.5768C83.2923 37.7948 83.4127 37.857 83.614 37.7634C85.2076 37.0191 86.7752 36.118 88.3166 35.06C88.324 35.0557 88.4364 34.968 88.6537 34.7968C88.9467 34.565 89.287 34.4497 89.6748 34.4507C88.5083 36.522 87.1384 38.4487 85.565 40.2308C84.0374 41.9629 82.397 43.5817 80.6435 45.0874C78.6813 46.7706 76.2866 48.5367 73.4595 50.3857C73.4395 50.3991 73.4162 50.4063 73.3923 50.4066C73.3685 50.4069 73.3452 50.4002 73.3252 50.3873C69.8323 48.1342 66.8256 45.8157 64.3052 43.4318C62.4357 41.6636 60.7355 39.7465 59.2047 37.6805C57.7453 35.7091 56.6625 33.8649 55.9562 32.1476C55.349 30.6707 54.9661 29.4049 54.8074 28.3501C54.7115 27.7143 54.6843 26.9423 54.7259 26.0343C54.7653 25.1475 54.8846 24.3893 55.0838 23.7599C55.3384 22.9528 55.7022 22.2133 56.1752 21.5413C57.919 19.0649 60.246 17.7214 63.1563 17.5109C64.2482 17.4312 65.3012 17.538 66.3153 17.8315C68.1667 18.3653 69.7023 19.3823 70.922 20.8826C71.3215 21.3738 71.7577 22.0857 72.2307 23.0182C72.612 23.77 72.9801 24.5217 73.3348 25.2735C73.3742 25.3564 73.4131 25.3559 73.4515 25.2719C73.8041 24.501 74.1732 23.7386 74.5588 22.9847C75.0424 22.0395 75.4872 21.3212 75.893 20.83C76.9849 19.503 78.3921 18.5285 80.1146 17.9065C80.1272 17.902 80.1406 17.9007 80.1538 17.9027C80.1669 17.9046 80.1794 17.9097 80.1901 17.9176C80.2009 17.9255 80.2095 17.9358 80.2153 17.9478C80.221 17.9597 80.2238 17.9729 80.2233 17.9862C80.1519 19.5046 80.3597 20.9124 80.8465 22.2096Z" fill="#323232"/>
<path d="M80.8465 22.2095C81.312 23.5322 82.03 24.7582 83.0004 25.8874C85.181 28.4265 88.0087 29.8641 91.4836 30.2001C91.4949 30.2012 91.5058 30.2048 91.5155 30.2107C91.5252 30.2166 91.5334 30.2246 91.5396 30.2341C91.5457 30.2436 91.5496 30.2544 91.551 30.2656C91.5524 30.2769 91.5512 30.2883 91.5475 30.299C91.0607 31.7313 90.4365 33.1151 89.6748 34.4506C89.2871 34.4496 88.9467 34.5649 88.6538 34.7967C88.4364 34.9679 88.3241 35.0556 88.3166 35.0599C86.7752 36.1179 85.2077 37.019 83.614 37.7633C83.4127 37.8569 83.2923 37.7947 83.2529 37.5767C82.3464 32.5697 81.4702 27.5626 80.6244 22.5556C80.6233 22.5471 80.6121 22.5035 80.5908 22.4248C80.5504 22.2696 80.6356 22.1978 80.8465 22.2095Z" fill="#2B2B2B"/>
<path d="M94.7657 30.0933C95.8565 36.5474 96.941 43.0016 98.019 49.4558C98.0275 49.509 98.0451 49.5488 98.0717 49.5754C98.1026 49.6073 98.142 49.6318 98.19 49.6488C90.4509 54.2348 83.6301 58.1902 77.7275 61.5151C77.2151 61.8033 76.6265 62.0776 75.9618 62.3381C75.2928 62.6007 74.6681 62.7533 74.0875 62.7958C72.8188 62.8884 71.6353 62.6805 70.537 62.1722C69.6635 61.7692 68.5956 61.1988 67.3332 60.4609C65.9111 59.6294 64.9902 59.0956 64.5705 58.8595C61.7135 57.2508 58.8719 55.616 56.0458 53.9551C56.0362 53.8009 55.9728 53.3703 55.8556 52.6632C54.0862 41.925 52.9113 34.8706 52.3307 31.5C52.2913 31.2703 52.2913 31.0954 52.3307 30.9753C53.1733 33.6356 54.4484 36.1795 56.156 38.607C57.5782 40.6294 59.0344 42.4056 60.5247 43.9357C62.8373 46.3111 65.3385 48.468 68.0283 50.4064C69.7167 51.6228 71.4824 52.8036 73.3253 53.9487C73.3464 53.9617 73.3708 53.9686 73.3956 53.9686C73.4204 53.9686 73.4448 53.9617 73.4659 53.9487C76.2718 52.1964 78.9573 50.3059 81.5224 48.2771C83.099 47.0288 84.6953 45.5785 86.3113 43.9261C88.9617 41.2137 91.1337 38.2248 92.8275 34.9594C93.5817 33.5038 94.2277 31.8817 94.7657 30.0933Z" fill="#DDDDDD"/>
<path d="M110.812 43.3823H105.424C105.378 43.3823 105.34 43.4195 105.34 43.4653V47.9247C105.34 47.9705 105.378 48.0076 105.424 48.0076H110.812C110.857 48.0076 110.895 47.9705 110.895 47.9247V43.4653C110.895 43.4195 110.857 43.3823 110.812 43.3823Z" fill="white"/>
</g>
<defs>
<clipPath id="clip0_580_13274">
<rect width="151" height="63" fill="white"/>
</clipPath>
</defs>
</svg>
