<svg width="151" height="34" viewBox="0 0 151 34" fill="none" xmlns="http://www.w3.org/2000/svg">
<path d="M19.0285 33.2869L9.42995 20.6812V33.2869H2.47729V4.74023H9.42995V17.2672L18.9497 4.74023H27.1235L16.0609 18.7313L27.5305 33.2869H19.0285Z" fill="white"/>
<path d="M48.5987 23.6096H32.855C32.96 25.0211 33.4196 26.0979 34.214 26.8398C35.015 27.5882 35.9932 27.9559 37.1618 27.9559C38.8951 27.9559 40.1031 27.2206 40.7793 25.7565H48.1783C47.7978 27.2468 47.1147 28.5928 46.1237 29.7811C45.1323 30.976 43.8913 31.9083 42.401 32.5846C40.9106 33.2608 39.243 33.6022 37.3982 33.6022C35.1725 33.6022 33.1964 33.1295 31.4566 32.1775C29.7233 31.2321 28.3643 29.873 27.3926 28.1135C26.4144 26.3539 25.9286 24.2923 25.9286 21.9288C25.9286 19.5718 26.4078 17.5102 27.3729 15.7507C28.3315 13.9911 29.6839 12.6321 31.4172 11.6801C33.1504 10.7347 35.1463 10.2554 37.3982 10.2554C39.591 10.2554 41.5476 10.715 43.2545 11.6407C44.9615 12.5598 46.294 13.8795 47.2592 15.5865C48.2243 17.2936 48.7038 19.2895 48.7038 21.5677C48.7169 22.2242 48.6775 22.907 48.5987 23.6096ZM41.6001 19.7491C41.6001 18.5542 41.1929 17.6087 40.3788 16.8996C39.5648 16.1971 38.5471 15.8426 37.326 15.8426C36.1639 15.8426 35.1791 16.184 34.3781 16.8603C33.5772 17.5365 33.0848 18.5016 32.8944 19.7491H41.6001Z" fill="white"/>
<path d="M58.9586 10.5967V33.287H52.006V10.5967H58.9586Z" fill="white"/>
<path d="M89.7892 10.2683C87.9181 10.2683 86.2243 10.741 84.7078 11.693C83.1913 12.645 81.9897 13.9975 81.11 15.7636C80.2302 17.5231 79.7902 19.5716 79.7902 21.9023C79.7902 24.2331 80.2302 26.2881 81.11 28.0607C81.9897 29.8334 83.1913 31.2056 84.7078 32.1707C86.2243 33.1359 87.905 33.6151 89.7498 33.6151C91.3517 33.6151 92.7503 33.2868 93.9581 32.6369C95.1663 31.9869 96.1051 31.1334 96.7813 30.0764V33.2868H103.734V10.5966H96.7813V13.8071C96.1314 12.75 95.1991 11.8965 93.9975 11.2465C92.7898 10.5966 91.3911 10.2683 89.7892 10.2683ZM96.1577 21.9417C96.1577 23.675 95.6782 25.0472 94.7135 26.0517C93.7549 27.0562 92.5796 27.5552 91.1945 27.5552C89.809 27.5552 88.6402 27.0497 87.6755 26.032C86.7103 25.0144 86.2308 23.6422 86.2308 21.9023C86.2308 20.169 86.7103 18.8034 87.6755 17.812C88.6336 16.8207 89.809 16.3282 91.1945 16.3282C92.573 16.3282 93.7483 16.8272 94.7135 17.8317C95.6782 18.8362 96.1577 20.2084 96.1577 21.9417Z" fill="white"/>
<path d="M77.5778 29.8139C77.1969 29.0458 76.882 28.2316 76.6258 27.3912H74.8203C74.0588 27.3912 73.5206 27.2468 73.1922 26.9448C72.8638 26.6493 72.7062 26.1569 72.7062 25.4807V16.3744H76.639H77.2297H77.2625V16.2693V14.7001V10.6033H72.7062V5.0686H65.7536V10.6033H62.9895V16.3744H65.7536V25.4019C65.7536 28.1922 66.4563 30.2078 67.8677 31.4421C69.2791 32.6764 71.2422 33.2936 73.7633 33.2936H79.9543C79.0286 32.2825 78.2343 31.127 77.5778 29.8139Z" fill="white"/>
<path d="M58.381 1.11613C57.5866 0.374232 56.6215 0 55.4856 0C54.3431 0 53.3779 0.367667 52.5836 1.103C51.7892 1.83833 51.3955 2.84942 51.3955 4.14282C51.3955 5.42965 51.7892 6.45386 52.5836 7.20889C53.3779 7.96392 54.3431 8.34472 55.479 8.34472C56.6149 8.34472 57.5866 7.97049 58.3744 7.22859C59.1688 6.4867 59.5625 5.46905 59.5625 4.17566C59.569 2.88225 59.1753 1.86459 58.381 1.11613Z" fill="white"/>
<path d="M142.614 11.693C140.828 10.7476 138.819 10.2683 136.593 10.2683C134.368 10.2683 132.365 10.741 130.573 11.693C128.787 12.645 127.376 14.0041 126.345 15.7833C125.314 17.556 124.802 19.611 124.802 21.9417C124.802 24.2987 125.308 26.3603 126.325 28.1264C127.343 29.886 128.735 31.245 130.514 32.1904C132.287 33.1424 134.289 33.6151 136.515 33.6151C138.734 33.6151 140.75 33.1424 142.555 32.1904C144.354 31.245 145.778 29.8794 146.822 28.1067C147.866 26.334 148.385 24.279 148.385 21.9417C148.385 19.611 147.873 17.556 146.842 15.7833C145.811 14.0041 144.406 12.645 142.614 11.693ZM139.909 26.1305C138.977 27.1022 137.841 27.5946 136.515 27.5946C135.189 27.5946 134.079 27.1087 133.199 26.1305C132.319 25.1522 131.88 23.7604 131.88 21.9417C131.88 20.0968 132.326 18.6918 133.219 17.7332C134.112 16.7681 135.241 16.2888 136.593 16.2888C137.92 16.2888 139.042 16.7747 139.948 17.7529C140.854 18.7312 141.307 20.1231 141.307 21.9417C141.314 23.7604 140.848 25.1588 139.909 26.1305Z" fill="white"/>
<path d="M125.203 10.8462C124.513 10.5179 123.693 10.3538 122.603 10.3538C121.552 10.3538 119.753 10.7149 118.532 11.4305C117.311 12.1527 116.293 13.131 115.479 14.3784V10.5967H108.527V33.287H115.479V22.756C115.479 20.8848 115.913 19.5783 116.779 18.8298C117.646 18.0879 118.946 17.7137 120.686 17.7137H121.369C121.716 16.3218 122.242 15.0152 122.944 13.8072C123.581 12.7042 124.336 11.7194 125.203 10.8462Z" fill="white"/>
</svg>
