<svg width="86" height="93" viewBox="0 0 86 93" fill="none" xmlns="http://www.w3.org/2000/svg">
<path d="M81.75 69.625V31.375C81.75 27.8475 78.9025 25 75.375 25H15.8325C12.305 25 9.45752 27.8475 9.45752 31.375V69.625C9.45752 73.1525 12.305 76 15.8325 76H75.375C78.9025 76 81.75 73.1525 81.75 69.625ZM76.1825 30.9075C77.585 32.31 76.82 33.755 76.055 34.4775L58.8 50.2875L75.375 67.5425C75.885 68.1375 76.225 69.0725 75.63 69.71C75.0775 70.39 73.8025 70.3475 73.25 69.9225L54.6775 54.07L45.5825 62.3575L36.53 54.07L17.9575 69.9225C17.405 70.3475 16.13 70.39 15.5775 69.71C14.9825 69.0725 15.3225 68.1375 15.8325 67.5425L32.4075 50.2875L15.1525 34.4775C14.3875 33.755 13.6225 32.31 15.025 30.9075C16.4275 29.505 17.8725 30.185 19.0625 31.205L45.5825 52.625L72.145 31.205C73.335 30.185 74.78 29.505 76.1825 30.9075Z" fill="#FBDC5D"/>
<path d="M57.3434 14.9786C57.1327 14.9306 56.9403 14.8229 56.7892 14.6684C56.638 14.5139 56.5346 14.3192 56.4913 14.1075C55.9513 11.5284 54.7721 9.31566 53.0333 7.63871C51.0094 5.69306 48.3074 4.61214 45.5 4.62512C43.0039 4.62512 40.7019 5.44707 38.8428 7.00168C37.5733 8.07393 36.5636 9.42022 35.8897 10.9392C35.817 11.1021 35.7066 11.2455 35.5676 11.3573C35.4286 11.4692 35.265 11.5464 35.0902 11.5825C33.1918 11.9777 31.4994 12.8018 30.226 13.964C28.4415 15.5854 27.5 17.8031 27.5 20.3751C27.5 22.9064 28.5111 25.2182 30.347 26.8854C32.1153 28.4913 34.5003 29.3751 37.0625 29.3751H55.3438C57.6198 29.3751 59.5787 28.7725 61.0102 27.6335C62.6394 26.3362 63.5 24.4104 63.5 22.0626C63.5 18.0147 60.5469 15.6937 57.3434 14.9786ZM50.6497 14.35L43.07 23.35C42.9662 23.4733 42.8372 23.5727 42.6916 23.6418C42.546 23.7108 42.3873 23.7477 42.2262 23.7501H42.2073C42.0498 23.7501 41.8941 23.7171 41.7502 23.6532C41.6063 23.5892 41.4775 23.4958 41.372 23.3789L38.1446 19.8021C37.7389 19.3528 37.7354 18.6539 38.1657 18.2271C38.2737 18.1197 38.4024 18.0354 38.544 17.9792C38.6856 17.923 38.8371 17.8962 38.9894 17.9004C39.1417 17.9045 39.2915 17.9395 39.4298 18.0033C39.5682 18.0671 39.6921 18.1583 39.7941 18.2714L42.1777 20.9137L48.9277 12.8981C49.0229 12.7851 49.1395 12.6919 49.2707 12.6239C49.4019 12.5559 49.5452 12.5145 49.6924 12.5019C49.8396 12.4893 49.9879 12.5058 50.1288 12.5505C50.2696 12.5952 50.4003 12.6672 50.5133 12.7624C50.6263 12.8576 50.7195 12.9741 50.7874 13.1053C50.8554 13.2365 50.8969 13.3798 50.9095 13.5271C50.9221 13.6743 50.9056 13.8226 50.8609 13.9634C50.8162 14.1042 50.7442 14.2349 50.649 14.3479L50.6497 14.35Z" fill="#FBDC5D"/>
</svg>
