<svg width="27" height="26" viewBox="0 0 27 26" fill="none" xmlns="http://www.w3.org/2000/svg">
<path d="M4.79143 3.51153L13.1985 1.27615C16.2622 0.46154 18.4815 1.79044 19.3348 4.95054L21.6741 13.614C22.5274 16.7741 21.2751 19.0261 18.2114 19.8407L9.80427 22.076C6.74059 22.8907 4.52931 21.5596 3.67602 18.3995L1.33669 9.73609C0.483391 6.57599 1.72775 4.32614 4.79143 3.51153Z" fill="#3F68D2"/>
<g filter="url(#filter0_b_702_35422)">
<path d="M21.4323 5.30664H11.7043C8.14887 5.30664 6.14697 7.29317 6.14697 10.8213V20.4849C6.14697 23.9924 8.14887 25.9996 11.7043 25.9996H21.4427C24.9878 25.9996 27.0001 23.9924 27.0001 20.4849V10.8213C27.0001 7.29317 24.9773 5.30664 21.4323 5.30664" fill="#5378D8"/>
</g>
<path d="M17.125 19C17.2269 19 17.3148 19.0376 17.3889 19.1127C17.463 19.1878 17.5 19.277 17.5 19.3803V20.6197C17.5 20.723 17.463 20.8122 17.3889 20.8873C17.3148 20.9624 17.2269 21 17.125 21H15.9306C15.8287 21 15.7407 20.9624 15.6667 20.8873C15.5926 20.8122 15.5556 20.723 15.5556 20.6197V19.3803C15.5556 19.277 15.5926 19.1878 15.6667 19.1127C15.7407 19.0376 15.8287 19 15.9306 19H17.125ZM16.5694 11C17.0046 11 17.4259 11.061 17.8333 11.1831C18.25 11.3052 18.6157 11.4883 18.9306 11.7324C19.2546 11.9671 19.5139 12.2629 19.7083 12.6197C19.9028 12.9671 20 13.3709 20 13.831C20 14.2066 19.9398 14.5352 19.8194 14.8169C19.7083 15.0892 19.5602 15.338 19.375 15.5634C19.1991 15.7793 19.0046 15.9812 18.7917 16.169C18.5787 16.3474 18.375 16.5211 18.1806 16.6901C17.9954 16.8498 17.8287 17.0188 17.6806 17.1972C17.5417 17.3756 17.4583 17.5681 17.4306 17.7746C17.412 17.8779 17.3704 17.9671 17.3056 18.0423C17.2407 18.1174 17.1574 18.1549 17.0556 18.1549H16C15.8981 18.1549 15.8056 18.1174 15.7222 18.0423C15.6481 17.9671 15.6157 17.8779 15.625 17.7746C15.6435 17.4085 15.7176 17.0892 15.8472 16.8169C15.9861 16.5352 16.1481 16.2864 16.3333 16.0704C16.5278 15.8451 16.7315 15.6432 16.9444 15.4648C17.1667 15.2864 17.3704 15.1174 17.5556 14.9577C17.7407 14.7887 17.8935 14.6244 18.0139 14.4648C18.1343 14.2958 18.1944 14.1127 18.1944 13.9155C18.1944 13.5587 18.0463 13.2676 17.75 13.0423C17.4537 12.8075 17.0602 12.6901 16.5694 12.6901C15.7824 12.6901 15.2037 13.0892 14.8333 13.8873C14.787 13.9906 14.7361 14.0704 14.6806 14.1268C14.6343 14.1737 14.5509 14.1972 14.4306 14.1972H13.3056C13.2222 14.1972 13.1481 14.169 13.0833 14.1127C13.0278 14.0563 13 13.9812 13 13.8873C13.0093 13.5587 13.1065 13.2254 13.2917 12.8873C13.4861 12.5399 13.7407 12.23 14.0556 11.9577C14.3796 11.6761 14.7546 11.446 15.1806 11.2676C15.6157 11.0892 16.0787 11 16.5694 11Z" fill="white"/>
<defs>
<filter id="filter0_b_702_35422" x="-17.853" y="-18.6934" width="68.853" height="68.6934" filterUnits="userSpaceOnUse" color-interpolation-filters="sRGB">
<feFlood flood-opacity="0" result="BackgroundImageFix"/>
<feGaussianBlur in="BackgroundImageFix" stdDeviation="12"/>
<feComposite in2="SourceAlpha" operator="in" result="effect1_backgroundBlur_702_35422"/>
<feBlend mode="normal" in="SourceGraphic" in2="effect1_backgroundBlur_702_35422" result="shape"/>
</filter>
</defs>
</svg>
