<svg width="23" height="22" viewBox="0 0 23 22" fill="none" xmlns="http://www.w3.org/2000/svg">
<path d="M4.08164 2.97129L11.2433 1.07982C13.8531 0.390534 15.7436 1.51499 16.4704 4.18892L18.4632 11.5195C19.1901 14.1934 18.1233 16.099 15.5135 16.7883L8.35184 18.6797C5.74204 19.369 3.85836 18.2428 3.13148 15.5688L1.13872 8.23823C0.411834 5.5643 1.47184 3.66058 4.08164 2.97129Z" fill="#303030"/>
<g filter="url(#filter0_b_594_11069)">
<path d="M18.257 4.49023H9.97025C6.94153 4.49023 5.23621 6.17114 5.23621 9.1565V17.3334C5.23621 20.3013 6.94153 21.9997 9.97025 21.9997H18.2659C21.2858 21.9997 23 20.3013 23 17.3334V9.1565C23 6.17114 21.2769 4.49023 18.257 4.49023" fill="url(#paint0_linear_594_11069)"/>
</g>
<path fill-rule="evenodd" clip-rule="evenodd" d="M14.0046 14.0821L16.6987 16.7767C16.8416 16.9197 17.0355 17 17.2377 17C17.4399 17 17.6338 16.9197 17.7767 16.7767C17.9197 16.6338 18 16.4399 18 16.2377C18 16.0355 17.9197 15.8416 17.7767 15.6987L15.0816 13.0046L17.7762 10.3104C17.847 10.2397 17.9031 10.1556 17.9414 10.0632C17.9796 9.97068 17.9993 9.87158 17.9993 9.77149C17.9993 9.67141 17.9796 9.57231 17.9412 9.47986C17.9029 9.3874 17.8468 9.3034 17.776 9.23265C17.7052 9.16189 17.6212 9.10578 17.5287 9.0675C17.4362 9.02922 17.3371 9.00953 17.237 9.00955C17.1369 9.00958 17.0378 9.02931 16.9454 9.06764C16.8529 9.10596 16.7689 9.16212 16.6982 9.2329L14.0046 11.927L11.3104 9.2329C11.2402 9.16008 11.1561 9.10199 11.0632 9.06201C10.9702 9.02203 10.8702 9.00096 10.769 9.00003C10.6678 8.99911 10.5675 9.01834 10.4738 9.05661C10.3802 9.09488 10.295 9.15143 10.2235 9.22295C10.1519 9.29446 10.0952 9.37952 10.0569 9.47316C10.0185 9.56679 9.99919 9.66713 10 9.76831C10.0009 9.8695 10.0218 9.96951 10.0617 10.0625C10.1016 10.1555 10.1596 10.2396 10.2324 10.3099L12.9275 13.0046L10.2329 15.6987C10.0899 15.8416 10.0096 16.0355 10.0096 16.2377C10.0096 16.4399 10.0899 16.6338 10.2329 16.7767C10.3759 16.9197 10.5697 17 10.7719 17C10.9741 17 11.168 16.9197 11.3109 16.7767L14.0046 14.0816V14.0821Z" fill="#666666"/>
<defs>
<filter id="filter0_b_594_11069" x="-18.7638" y="-19.5098" width="65.7638" height="65.5094" filterUnits="userSpaceOnUse" color-interpolation-filters="sRGB">
<feFlood flood-opacity="0" result="BackgroundImageFix"/>
<feGaussianBlur in="BackgroundImageFix" stdDeviation="12"/>
<feComposite in2="SourceAlpha" operator="in" result="effect1_backgroundBlur_594_11069"/>
<feBlend mode="normal" in="SourceGraphic" in2="effect1_backgroundBlur_594_11069" result="shape"/>
</filter>
<linearGradient id="paint0_linear_594_11069" x1="14.1181" y1="4.49023" x2="14.1181" y2="21.9997" gradientUnits="userSpaceOnUse">
<stop stop-color="#3D3D3D"/>
<stop offset="1" stop-color="#232323"/>
</linearGradient>
</defs>
</svg>
