<svg width="72" height="18" viewBox="0 0 72 18" fill="none" xmlns="http://www.w3.org/2000/svg">
<g clip-path="url(#clip0_205_7302)">
<mask id="mask0_205_7302" style="mask-type:luminance" maskUnits="userSpaceOnUse" x="0" y="0" width="72" height="18">
<path d="M72 0H0V18H72V0Z" fill="white"/>
</mask>
<g mask="url(#mask0_205_7302)">
<path d="M29.1492 3.62681V1.7093H24.2375H23.0482H22.2744V14.4125H24.2375V9.14394H28.6858V7.22643H24.2375V3.62681H29.1492Z" fill="white"/>
<path d="M47.981 8.88826V14.412H49.8344V8.37965C49.8344 6.97897 49.1672 4.39981 46.3407 4.39981C44.132 4.39981 43.2825 5.85152 43.2825 5.85152L43.1427 4.58251H41.4985V14.412H43.3767V9.40508C43.3767 7.21599 44.4425 6.18399 45.8773 6.18399C47.5825 6.18399 47.981 7.65872 47.981 8.88826Z" fill="white"/>
<path d="M68.2143 13.5663L71.9999 4.5647H70.0678L67.314 11.4513L64.3789 4.5647H62.3433L66.3284 13.6732C66.2419 13.8938 65.7104 15.2138 65.3196 15.6385C64.9782 15.9989 64.5068 16.1426 63.9431 16.1426L64.2168 17.8456C64.6294 17.8595 65.0404 17.7832 65.4242 17.6213C65.808 17.4594 66.1567 17.2153 66.4487 16.9042C67.3186 15.966 68.0353 13.9909 68.0353 13.9909L68.1892 13.6272H68.2407L68.2143 13.5663Z" fill="white"/>
<path d="M35.2732 4.41914H34.7743C33.5527 4.41914 32.3812 4.93625 31.5175 5.8567C30.6537 6.77715 30.1685 8.02555 30.1685 9.32731V9.70092C30.1689 11.0023 30.6543 12.2504 31.518 13.1705C32.3818 14.0905 33.553 14.6074 34.7743 14.6074H35.2732C36.4944 14.6074 37.6657 14.0905 38.5294 13.1705C39.3931 12.2504 39.8785 11.0023 39.8789 9.70092V9.32731C39.8789 8.02555 39.3937 6.77715 38.53 5.8567C37.6662 4.93625 36.4947 4.41914 35.2732 4.41914ZM38.0116 9.63669C38.0116 10.4661 37.7024 11.2615 37.1521 11.848C36.6018 12.4345 35.8553 12.764 35.077 12.764H34.9812C34.203 12.764 33.4565 12.4345 32.9062 11.848C32.3558 11.2615 32.0466 10.4661 32.0466 9.63669V9.38981C32.0466 8.56044 32.3558 7.76498 32.9062 7.17852C33.4565 6.59205 34.203 6.26257 34.9812 6.26257H35.0678C35.846 6.26257 36.5925 6.59205 37.1428 7.17852C37.6932 7.76498 38.0024 8.56044 38.0024 9.38981L38.0116 9.63669Z" fill="white"/>
<path d="M59.1973 1.07825V5.49098C58.3829 4.79651 57.3707 4.41857 56.3276 4.41947H56.0511C54.8297 4.41991 53.6584 4.93716 52.7948 5.85752C51.9311 6.77788 51.4457 8.02606 51.4453 9.3276V9.70128C51.4457 11.0027 51.9312 12.2507 52.7949 13.1707C53.6586 14.0909 54.8298 14.6077 56.0511 14.6077H56.3276C57.4868 14.6096 58.6036 14.1439 59.4538 13.3042L59.606 14.3922H61.0879V1.07825H59.1973ZM59.29 9.63706C59.29 10.4664 58.9809 11.2619 58.4305 11.8484C57.8801 12.4348 57.1337 12.7643 56.3554 12.7643H56.2597C55.4813 12.7643 54.7349 12.4348 54.1846 11.8484C53.6342 11.2619 53.325 10.4664 53.325 9.63706V9.39017C53.325 8.5608 53.6342 7.76535 54.1846 7.17886C54.7349 6.59239 55.4813 6.26291 56.2597 6.26291H56.3554C57.1337 6.26291 57.8801 6.59239 58.4305 7.17886C58.9809 7.76535 59.29 8.5608 59.29 9.39017V9.63706Z" fill="white"/>
<path d="M10.1825 14.0423V11.9519C10.1823 11.8365 10.1537 11.7231 10.0996 11.6232C10.0453 11.5232 9.96739 11.4402 9.87353 11.3825L8.17459 10.3373C8.08066 10.2795 7.97411 10.2491 7.86565 10.2491C7.75719 10.2491 7.65064 10.2795 7.55671 10.3373L5.85774 11.3825C5.76391 11.4402 5.68598 11.5232 5.63176 11.6232C5.57754 11.7231 5.54894 11.8365 5.54883 11.9519V14.0423C5.54867 14.158 5.57714 14.2718 5.63138 14.372C5.68561 14.4723 5.76369 14.5555 5.85774 14.6134L7.55671 15.6586C7.65064 15.7164 7.75719 15.7468 7.86565 15.7468C7.97411 15.7468 8.08066 15.7164 8.17459 15.6586L9.87353 14.6134C9.96759 14.5555 10.0457 14.4723 10.0999 14.372C10.1541 14.2718 10.1826 14.158 10.1825 14.0423Z" fill="white"/>
<path d="M15.7313 14.0423V11.9519C15.7312 11.8365 15.7026 11.7231 15.6483 11.6232C15.5942 11.5232 15.5162 11.4402 15.4223 11.3825L13.7234 10.3373C13.6295 10.2795 13.5229 10.2491 13.4145 10.2491C13.306 10.2491 13.1995 10.2795 13.1055 10.3373L11.4066 11.3825C11.3127 11.4402 11.2348 11.5232 11.1806 11.6232C11.1264 11.7231 11.0978 11.8365 11.0977 11.9519V14.0423C11.0975 14.158 11.126 14.2718 11.1802 14.372C11.2345 14.4723 11.3125 14.5555 11.4066 14.6134L13.1055 15.6586C13.1995 15.7164 13.306 15.7468 13.4145 15.7468C13.5229 15.7468 13.6295 15.7164 13.7234 15.6586L15.4223 14.6134C15.5164 14.5555 15.5945 14.4723 15.6487 14.372C15.7029 14.2718 15.7314 14.158 15.7313 14.0423Z" fill="white"/>
<path d="M7.41391 8.91828V6.82794C7.41437 6.71193 7.38603 6.59785 7.33174 6.49727C7.27751 6.39668 7.1993 6.31316 7.10504 6.25515L5.406 5.21328C5.31207 5.1555 5.20554 5.12508 5.09708 5.12508C4.98863 5.12508 4.8821 5.1555 4.78818 5.21328L3.08918 6.25515C2.99536 6.31288 2.91742 6.39589 2.86321 6.49584C2.80898 6.5958 2.78039 6.70919 2.78027 6.82464V8.91497C2.78012 9.03067 2.80859 9.14443 2.86282 9.24473C2.91705 9.34495 2.99513 9.42826 3.08918 9.48615L4.78818 10.5345C4.8821 10.5924 4.98863 10.6227 5.09708 10.6227C5.20554 10.6227 5.31207 10.5924 5.406 10.5345L7.10504 9.48939C7.1991 9.43157 7.27718 9.34827 7.33141 9.24797C7.38564 9.14775 7.41411 9.03399 7.41391 8.91828Z" fill="white"/>
<path d="M12.9578 8.91828V6.82794C12.9578 6.71248 12.9292 6.59909 12.8749 6.49914C12.8207 6.39918 12.7428 6.31617 12.649 6.25845L10.95 5.21328C10.856 5.1555 10.7495 5.12508 10.641 5.12508C10.5326 5.12508 10.4261 5.1555 10.3322 5.21328L8.63316 6.25515C8.53929 6.31288 8.46142 6.39589 8.40718 6.49584C8.35295 6.5958 8.32435 6.70919 8.32422 6.82464V8.91497C8.32409 9.03067 8.35256 9.14443 8.40679 9.24473C8.46102 9.34495 8.5391 9.42826 8.63316 9.48615L10.3322 10.5313C10.4261 10.589 10.5326 10.6195 10.641 10.6195C10.7495 10.6195 10.856 10.589 10.95 10.5313L12.649 9.48615C12.7426 9.42855 12.8203 9.34575 12.8746 9.24617C12.9288 9.14652 12.9575 9.03341 12.9578 8.91828Z" fill="white"/>
<path d="M4.63362 14.0423V11.9519C4.63351 11.8365 4.60492 11.7231 4.55069 11.6232C4.49647 11.5232 4.41854 11.4402 4.32472 11.3825L2.62572 10.3373C2.5318 10.2795 2.42526 10.2491 2.31681 10.2491C2.20837 10.2491 2.10183 10.2795 2.0079 10.3373L0.308909 11.3825C0.215082 11.4402 0.13715 11.5232 0.0829308 11.6232C0.0287115 11.7231 0.000111799 11.8365 6.71321e-07 11.9519V14.0423C-0.000159407 14.158 0.0283117 14.2718 0.0825444 14.372C0.136777 14.4723 0.214855 14.5555 0.308909 14.6134L2.0079 15.6586C2.10183 15.7164 2.20837 15.7468 2.31681 15.7468C2.42526 15.7468 2.5318 15.7164 2.62572 15.6586L4.32472 14.6134C4.41877 14.5555 4.49685 14.4723 4.55108 14.372C4.60531 14.2718 4.63378 14.158 4.63362 14.0423Z" fill="white"/>
<path d="M10.1825 3.79425V1.70393C10.1823 1.58847 10.1537 1.47508 10.0996 1.37513C10.0453 1.27517 9.96739 1.19216 9.87353 1.13444L8.17459 0.0892733C8.08066 0.0314889 7.97411 0.00106812 7.86565 0.00106812C7.75719 0.00106812 7.65064 0.0314889 7.55671 0.0892733L5.85774 1.13444C5.76391 1.19216 5.68598 1.27517 5.63176 1.37513C5.57754 1.47508 5.54894 1.58847 5.54883 1.70393V3.79425C5.54867 3.90998 5.57714 4.02372 5.63138 4.12399C5.68561 4.22425 5.76369 4.30752 5.85774 4.36539L7.55671 5.41055C7.65064 5.46833 7.75719 5.49875 7.86565 5.49875C7.97411 5.49875 8.08066 5.46833 8.17459 5.41055L9.87353 4.36539C9.96759 4.30752 10.0457 4.22425 10.0999 4.12399C10.1541 4.02372 10.1826 3.90998 10.1825 3.79425Z" fill="white"/>
</g>
</g>
<defs>
<clipPath id="clip0_205_7302">
<rect width="72" height="18" fill="white"/>
</clipPath>
</defs>
</svg>
