<svg width="188" height="16" viewBox="0 0 188 16" fill="none" xmlns="http://www.w3.org/2000/svg">
<path fill-rule="evenodd" clip-rule="evenodd" d="M12.6458 11.3333V5.74933C12.6458 4.16533 11.7502 3.41333 10.2462 3.41333C8.99568 3.41333 7.91415 4.11733 7.44098 4.82133C7.1368 3.94133 6.37635 3.41333 5.17653 3.41333C3.92601 3.41333 2.84449 4.14933 2.50651 4.61333V3.60533H0.360352V11.3333H2.50651V6.13333C2.82759 5.70133 3.45285 5.22133 4.1964 5.22133C5.07514 5.22133 5.41312 5.73333 5.41312 6.45333V11.3333H7.57617V6.11733C7.88035 5.70133 8.50561 5.22133 9.26606 5.22133C10.1448 5.22133 10.4828 5.73333 10.4828 6.45333V11.3333H12.6458ZM18.5435 11.5253C15.8566 11.5253 14.2343 9.66933 14.2343 7.46133C14.2343 5.26933 15.8566 3.41333 18.5435 3.41333C21.2474 3.41333 22.8697 5.26933 22.8697 7.46133C22.8697 9.66933 21.2474 11.5253 18.5435 11.5253ZM18.5435 9.71733C19.8786 9.71733 20.639 8.67733 20.639 7.46133C20.639 6.26133 19.8786 5.22133 18.5435 5.22133C17.2085 5.22133 16.465 6.26133 16.465 7.46133C16.465 8.67733 17.2085 9.71733 18.5435 9.71733ZM32.1133 11.3333V5.87733C32.1133 4.37333 31.2515 3.41333 29.4602 3.41333C28.1252 3.41333 27.1282 4.02133 26.6043 4.61333V3.60533H24.4581V11.3333H26.6043V6.13333C26.9592 5.66933 27.6182 5.22133 28.4632 5.22133C29.3757 5.22133 29.9672 5.58933 29.9672 6.66133V11.3333H32.1133ZM38.0279 11.5253C35.341 11.5253 33.7187 9.66933 33.7187 7.46133C33.7187 5.26933 35.341 3.41333 38.0279 3.41333C40.7318 3.41333 42.3541 5.26933 42.3541 7.46133C42.3541 9.66933 40.7318 11.5253 38.0279 11.5253ZM38.0279 9.71733C39.363 9.71733 40.1234 8.67733 40.1234 7.46133C40.1234 6.26133 39.363 5.22133 38.0279 5.22133C36.6929 5.22133 35.9494 6.26133 35.9494 7.46133C35.9494 8.67733 36.6929 9.71733 38.0279 9.71733ZM46.0887 8.85333C46.4436 9.34933 47.2378 9.71733 47.9307 9.71733C49.1812 9.71733 50.0092 8.82133 50.0092 7.47733C50.0092 6.13333 49.1812 5.22133 47.9307 5.22133C47.2378 5.22133 46.4436 5.60533 46.0887 6.11733V8.85333ZM46.0887 11.3333H43.9426V0.661331H46.0887V4.59733C46.7309 3.81333 47.6434 3.41333 48.6066 3.41333C50.6852 3.41333 52.223 4.94933 52.223 7.47733C52.223 10.0533 50.6683 11.5253 48.6066 11.5253C47.6265 11.5253 46.7309 11.1093 46.0887 10.3413V11.3333ZM60.8921 11.3333H58.746V10.5333C58.1883 11.1573 57.2251 11.5253 56.1604 11.5253C54.8592 11.5253 53.3214 10.6933 53.3214 8.96533C53.3214 7.15733 54.8592 6.46933 56.1604 6.46933C57.242 6.46933 58.2052 6.80533 58.746 7.41333V6.37333C58.746 5.58933 58.0362 5.07733 56.9547 5.07733C56.0759 5.07733 55.2648 5.38133 54.5719 5.98933L53.7608 4.62933C54.7578 3.79733 56.0421 3.41333 57.3265 3.41333C59.1853 3.41333 60.8921 4.11733 60.8921 6.34133V11.3333ZM57.0223 10.1493C57.7151 10.1493 58.3911 9.92533 58.746 9.47733V8.51733C58.3911 8.06933 57.7151 7.84533 57.0223 7.84533C56.1773 7.84533 55.4845 8.26133 55.4845 9.01333C55.4845 9.73333 56.1773 10.1493 57.0223 10.1493ZM70.6766 11.3333V5.87733C70.6766 4.37333 69.8147 3.41333 68.0234 3.41333C66.6884 3.41333 65.6914 4.02133 65.1675 4.61333V3.60533H63.0214V11.3333H65.1675V6.13333C65.5224 5.66933 66.1815 5.22133 67.0264 5.22133C67.939 5.22133 68.5304 5.58933 68.5304 6.66133V11.3333H70.6766ZM80.7821 11.3333L77.453 7.10933L80.6807 3.60533H78.0445L74.952 7.04533V0.661331H72.8058V11.3333H74.952V9.34933L75.9321 8.35733L78.0952 11.3333H80.7821Z" fill="white"/>
<g opacity="0.6">
<path fill-rule="evenodd" clip-rule="evenodd" d="M181.499 2.12133H183.257V7.41599H183.356L185.642 4.87266L187.264 4.86866L184.756 7.64866L187.777 11.1253H185.752L183.282 7.88933H183.257V11.1253H181.499V2.12133ZM97.9181 2.52399V7.46133C97.9181 9.14333 98.444 10.0627 99.9178 10.0627C101.328 10.0627 101.892 8.94799 101.892 7.55866V2.52399H103.554V7.86599C103.554 10.038 102.051 11.2687 99.8657 11.2687C97.3632 11.2687 96.062 10.124 96.062 7.77999V2.52399H97.9181ZM107.438 5.70466C108.033 5.11599 108.861 4.83333 109.692 4.83333C111.232 4.83333 112.048 5.61733 112.048 7.16466V11.12H110.299V7.35066C110.299 6.48999 109.892 5.92466 108.981 5.92466C108.125 5.92466 107.453 6.45333 107.453 7.46133V11.12H105.702V4.97933H107.438V5.70466ZM114.105 11.12H115.856V4.97933H114.105V11.12ZM113.933 3.13799C113.933 2.67199 114.354 2.19199 114.949 2.19199C115.554 2.19199 116.026 2.65933 116.026 3.13799C116.026 3.66533 115.62 4.16933 114.974 4.16933C114.354 4.16933 113.933 3.66533 113.933 3.13799ZM119.73 11.12L116.928 4.95333H118.783C119.351 6.36599 119.939 7.69466 120.491 9.40133H120.518C121.113 7.69466 121.673 6.36599 122.278 4.95333H123.921L120.953 11.12H119.73ZM129.131 7.31399C129.199 6.37799 128.843 5.74133 127.976 5.74133C126.971 5.74133 126.521 6.48999 126.54 7.31399H129.131ZM126.511 8.19799C126.472 9.35333 127.34 10.2113 128.433 10.2113C129.082 10.2113 129.764 10.0027 130.201 9.71933L130.7 10.58C129.805 11.0707 128.868 11.2687 128.118 11.2687C126.129 11.2687 124.642 9.95333 124.642 7.92733C124.642 6.03533 126.115 4.83333 127.999 4.83333C130.054 4.83333 130.911 6.36733 130.781 8.19799H126.511ZM134.218 6.05999H134.243L134.599 5.58133C134.795 5.30999 135.191 4.83333 135.731 4.83333C136.126 4.83333 136.549 5.02999 136.918 5.38466L136.257 6.51466C135.968 6.37799 135.783 6.30599 135.429 6.30599C134.823 6.30599 134.231 6.76066 134.231 8.08599V11.12H132.474V4.97933H134.218V6.05999ZM141.593 6.13333C141.198 5.86333 140.79 5.74133 140.472 5.74133C140.077 5.74133 139.682 5.94933 139.682 6.36733C139.682 6.85866 140.315 7.14199 141.052 7.64333C141.99 8.29733 142.264 8.93533 142.264 9.49733C142.264 10.36 141.248 11.2687 139.802 11.2687C138.892 11.2687 138.221 10.9727 137.604 10.568L138.156 9.71933C138.549 10.016 139.115 10.3087 139.588 10.3087C140.092 10.3087 140.538 10.0627 140.538 9.54733C140.538 8.96999 139.852 8.65133 139.222 8.23333C138.47 7.75533 137.959 7.28799 137.959 6.52799C137.959 5.55599 138.957 4.83333 140.247 4.83333C140.974 4.83333 141.683 5.00399 142.161 5.39866L141.593 6.13333ZM146.582 7.85333C145.727 8.11133 145.293 8.56533 145.293 9.26466C145.293 9.80599 145.662 10.1747 146.086 10.1747C146.781 10.1747 147.691 9.36333 147.561 7.55866L146.582 7.85333ZM147.138 10.5313C146.663 10.9 146.057 11.2687 145.453 11.2687C144.425 11.2687 143.566 10.5313 143.566 9.40133C143.566 8.23333 144.477 7.58333 146.006 7.16466L147.561 6.73466C147.469 6.17066 146.927 5.81533 146.364 5.81533C145.61 5.81533 145.083 6.07333 144.622 6.44199L144.054 5.66799C144.873 5.04199 145.674 4.83333 146.582 4.83333C147.797 4.83333 149.286 5.19933 149.286 7.11733V9.62133C149.286 10.1133 149.35 10.692 149.562 11.12H147.706C147.57 10.9107 147.533 10.556 147.533 10.224L147.138 10.5313ZM151.248 11.12H153.001V2.09399H151.248V11.12ZM168.515 7.85333C167.658 8.11133 167.223 8.56533 167.223 9.26466C167.223 9.80599 167.59 10.1747 168.014 10.1747C168.709 10.1747 169.619 9.36333 169.491 7.55866L168.515 7.85333ZM169.064 10.5313C168.593 10.9 167.986 11.2687 167.379 11.2687C166.354 11.2687 165.495 10.5313 165.495 9.40133C165.495 8.23333 166.405 7.58333 167.935 7.16466L169.491 6.73466C169.395 6.17066 168.857 5.81533 168.287 5.81533C167.539 5.81533 167.011 6.07333 166.55 6.44199L165.983 5.66799C166.8 5.04199 167.605 4.83333 168.515 4.83333C169.724 4.83333 171.211 5.19933 171.211 7.11733V9.62133C171.211 10.1133 171.277 10.692 171.487 11.12H169.633C169.502 10.9107 169.459 10.556 169.459 10.224L169.064 10.5313ZM174.914 5.70466C175.507 5.11599 176.338 4.83333 177.167 4.83333C178.707 4.83333 179.523 5.61733 179.523 7.16466V11.12H177.772V7.35066C177.772 6.48999 177.364 5.92466 176.455 5.92466C175.598 5.92466 174.927 6.45333 174.927 7.46133V11.12H173.176V4.97933H174.914V5.70466ZM159.391 10.086H160.339C161.367 10.086 162.146 9.58333 162.146 8.62666C162.146 7.61866 161.342 7.18933 160.328 7.18933H159.391V10.086ZM159.391 6.13333H159.974C161.042 6.13333 161.767 5.49533 161.767 4.69533C161.767 3.93533 161.158 3.60466 160.355 3.60466H159.391L159.391 6.13333ZM157.536 11.1433V2.54733H160.869C162.422 2.54733 163.517 3.20999 163.517 4.37666C163.517 5.75133 162.318 6.31799 161.673 6.47666V6.50133C162.82 6.55133 164.095 7.28666 164.095 8.60066C164.095 10.086 162.764 11.1433 160.594 11.1433H157.536Z" fill="white"/>
</g>
<path opacity="0.4" fill-rule="evenodd" clip-rule="evenodd" d="M88.0146 0H88.7188V16H88.0146V0Z" fill="white"/>
</svg>
