<svg width="45" height="22" viewBox="0 0 45 22" fill="none" xmlns="http://www.w3.org/2000/svg">
<g clip-path="url(#clip0_594_11030)">
<path d="M3.06856 18.4811C2.99297 18.4629 2.91698 18.4457 2.84169 18.4258C2.42002 18.3131 2.05156 18.1097 1.74716 17.8038C1.22199 17.2758 0.939381 16.6451 0.914959 15.908C0.906115 15.6311 0.939036 15.3588 1.00593 15.0898C1.08371 14.7739 1.20527 14.4756 1.3644 14.1906C1.61847 13.7357 1.94896 13.3401 2.33984 12.9902C2.63443 12.7266 2.95543 12.497 3.29938 12.2979C3.62127 12.1112 3.92189 11.8958 4.20923 11.6624C4.5709 11.3681 4.90788 11.0481 5.24193 10.7251C5.53723 10.4395 5.82889 10.1512 6.13677 9.87899C6.36841 9.67353 6.60877 9.47865 6.86832 9.30738C7.19298 9.0935 7.53905 8.92456 7.9256 8.84279C8.21565 8.78131 8.50702 8.77236 8.8005 8.81648C9.13239 8.86569 9.45316 8.95344 9.76075 9.08506C10.2314 9.28696 10.6154 9.59297 10.9208 9.99498C11.1296 10.271 11.2942 10.571 11.4417 10.8807C11.5981 11.2092 11.7355 11.5454 11.8797 11.8791C12.0422 12.255 12.213 12.6268 12.4143 12.9851C12.6145 13.3422 12.8458 13.6797 13.1078 13.9969C13.4246 14.3808 13.6926 14.7936 13.9034 15.2416C14.0827 15.6256 14.2136 16.0238 14.2795 16.441C14.3309 16.7661 14.3412 17.0913 14.2994 17.4184C14.2363 17.9152 14.0636 18.3711 13.7538 18.7747C13.467 19.1487 13.0998 19.4256 12.6664 19.6212C12.3477 19.765 12.015 19.8588 11.6631 19.8823C11.5386 19.8911 11.4135 19.8912 11.2889 19.8818C11.2716 19.8804 11.2546 19.8808 11.2377 19.8804C11.2201 19.8864 11.2035 19.8769 11.1863 19.8761C11.1721 19.8756 11.1584 19.8669 11.1436 19.8732C11.039 19.8553 10.934 19.8373 10.8295 19.8194C10.8186 19.8084 10.8034 19.8122 10.7904 19.8082C10.7782 19.8062 10.7666 19.8042 10.7546 19.8021C10.7447 19.8004 10.7339 19.7986 10.7242 19.7969C10.4578 19.7427 10.2075 19.6437 9.95885 19.5408C9.53764 19.3658 9.13076 19.1608 8.71343 18.9776C8.37535 18.8296 8.03135 18.6973 7.67546 18.5947C7.42886 18.5234 7.17707 18.4772 6.92383 18.4426C6.72131 18.4146 6.51599 18.4106 6.31151 18.4126C5.90766 18.4173 5.50601 18.4542 5.10426 18.4903C4.67919 18.5293 4.25423 18.5677 3.82714 18.5628C3.65347 18.5603 3.48025 18.5541 3.30895 18.5231C3.27383 18.5167 3.2379 18.5158 3.20241 18.5089C3.15754 18.4987 3.11144 18.4988 3.06856 18.4811ZM13.5019 3.19501C14.055 3.35787 14.4357 3.71138 14.6853 4.20884C14.8564 4.54995 14.937 4.91344 14.9592 5.2911C14.9778 5.61625 14.9487 5.93811 14.8797 6.25696C14.7529 6.84279 14.5092 7.37811 14.1501 7.86405C13.9014 8.2008 13.6063 8.49236 13.255 8.72729C12.9421 8.936 12.6036 9.08759 12.2285 9.15398C11.965 9.20054 11.7029 9.20093 11.4422 9.14061C10.9906 9.03684 10.6354 8.79396 10.3659 8.42985C10.1362 8.11915 10.0049 7.76855 9.93796 7.39383C9.8912 7.13179 9.88018 6.86805 9.89762 6.60325C9.90927 6.42171 9.9334 6.2421 9.97166 6.0649C10.0615 5.64655 10.2135 5.25026 10.4261 4.87663C10.652 4.4788 10.9341 4.12469 11.2859 3.82506C11.5818 3.57303 11.9104 3.37337 12.284 3.24829C12.5585 3.15623 12.8405 3.11457 13.1313 3.13196C13.2908 3.14297 13.3536 3.15494 13.5019 3.19501ZM0.1032 7.53473C0.142545 7.3683 0.203468 7.20875 0.278241 7.05433C0.423158 6.7542 0.61887 6.49156 0.8872 6.28391C1.18707 6.05224 1.52836 5.92757 1.91155 5.9193C2.22269 5.91289 2.51478 5.98853 2.79046 6.1259C3.10735 6.2841 3.37263 6.50629 3.59562 6.77458C3.94228 7.19022 4.15853 7.66565 4.27341 8.18701C4.3334 8.45999 4.35907 8.7364 4.35038 9.0154C4.34622 9.1508 4.33159 9.28526 4.3101 9.41918C4.26895 9.67336 4.19756 9.91812 4.08854 10.1522C3.94315 10.4645 3.74427 10.7374 3.46717 10.9527C3.1491 11.1996 2.78573 11.325 2.37845 11.3198C2.0796 11.316 1.79958 11.2361 1.536 11.1004C1.1817 10.9172 0.896632 10.6579 0.660852 10.3451C0.430725 10.0407 0.265048 9.7045 0.153934 9.34318C0.0450361 8.98879 -0.00858476 8.62567 0.00111886 8.25498C0.00301446 8.18947 0.00659645 8.12425 0.00929796 8.05908C0.00763445 8.02874 0.0157802 7.99944 0.0138684 7.96927C0.0126947 7.95657 0.0166795 7.9454 0.0183208 7.93277C0.0187976 7.91698 0.0289474 7.90178 0.0220457 7.88473C0.0362107 7.8067 0.0503384 7.72889 0.0645406 7.65067C0.083385 7.63189 0.0803306 7.6068 0.0861549 7.5843C0.0905137 7.56748 0.089367 7.54866 0.1032 7.53473ZM4.486 4.4776C4.57226 4.01333 4.71622 3.60593 4.94902 3.23004C5.12475 2.94577 5.34065 2.69527 5.61443 2.49469C5.90939 2.27805 6.23763 2.14268 6.60872 2.11605C6.97989 2.089 7.32446 2.17384 7.6457 2.35353C7.92863 2.51205 8.16179 2.72556 8.35741 2.97816C8.66989 3.38095 8.86337 3.83576 8.97092 4.32687C9.0392 4.63916 9.06796 4.95485 9.05921 5.27363C9.0542 5.4544 9.03756 5.63466 9.00889 5.81413C8.97204 6.03983 8.91678 6.26153 8.83829 6.47714C8.67475 6.92775 8.43455 7.33244 8.07676 7.66533C7.8543 7.87173 7.60093 8.0305 7.30798 8.12598C6.98062 8.2325 6.64885 8.24364 6.31512 8.16025C6.01337 8.08507 5.74897 7.93946 5.51347 7.74248C5.2062 7.4858 4.97681 7.17133 4.80258 6.81761C4.59604 6.3976 4.48246 5.95288 4.44363 5.48919C4.4223 5.23554 4.42532 4.98183 4.45175 4.72851C4.4612 4.63339 4.47181 4.53784 4.486 4.4776ZM17.9305 10.8667C17.9272 10.8845 17.924 10.9026 17.9207 10.9207C17.8182 11.365 17.6185 11.7657 17.3467 12.1338C17.1331 12.4221 16.8813 12.6752 16.588 12.8874C16.2115 13.1604 15.7974 13.3527 15.3321 13.4309C15.0534 13.4778 14.7753 13.4768 14.4991 13.414C14.0915 13.3209 13.7585 13.114 13.5059 12.7888C13.2973 12.52 13.1831 12.2138 13.1362 11.8832C13.0938 11.5867 13.1085 11.2912 13.1714 10.9984C13.3094 10.3546 13.6264 9.80219 14.0883 9.32603C14.2443 9.16476 14.4159 9.02056 14.6019 8.89366C14.9844 8.6338 15.4005 8.45481 15.8658 8.39267C16.1304 8.35795 16.3927 8.36626 16.6514 8.43108C17.0464 8.52985 17.3689 8.73728 17.6131 9.05661C17.8334 9.34476 17.9457 9.67326 17.9853 10.0272C18.0071 10.2227 18.0051 10.4186 17.9764 10.6138C17.9731 10.6318 17.9697 10.6501 17.9665 10.6682C17.9524 10.7339 17.9406 10.8 17.9305 10.8667Z" fill="white"/>
</g>
<path fill-rule="evenodd" clip-rule="evenodd" d="M34.2992 2.02552C34.4456 1.89412 34.6393 1.82525 34.8375 1.83408C39.0274 1.95951 42.529 5.00115 43.1637 9.0664C43.1677 9.09068 43.1677 9.11543 43.1637 9.13971C43.1773 9.33205 43.1123 9.52182 42.983 9.66702C42.8537 9.81223 42.6708 9.9009 42.4747 9.91343L35.4351 10.3777C35.2024 10.3983 34.9715 10.3217 34.7992 10.1667C34.627 10.0116 34.5294 9.79255 34.5303 9.56322L34.0571 2.64853V2.53451C34.0657 2.34004 34.1528 2.15691 34.2992 2.02552ZM33.8164 12.1858L39.8939 11.8111H39.9594C40.2214 11.8154 40.4709 11.9216 40.6531 12.1065C40.8352 12.2913 40.9351 12.5395 40.9306 12.7966C40.6902 16.3002 38.1215 19.2275 34.6259 19.9817C31.1303 20.7359 27.5469 19.1358 25.8305 16.0544C25.3258 15.1669 25.0069 14.1894 24.8925 13.1794C24.8481 12.8801 24.8286 12.5777 24.8343 12.2753C24.8459 8.5498 27.4984 5.33414 31.2098 4.5462C31.6591 4.46211 32.1095 4.68643 32.3055 5.09189C32.4024 5.2379 32.4275 5.41667 32.4389 5.5915C32.5031 6.5761 32.5694 7.55252 32.6354 8.52515C32.6921 9.36171 32.7487 10.1955 32.8036 11.0292C32.8008 11.2256 32.8317 11.4211 32.8949 11.6075C33.0439 11.9742 33.4146 12.2068 33.8164 12.1858Z" fill="white"/>
<defs>
<clipPath id="clip0_594_11030">
<rect width="18" height="20" fill="white" transform="translate(0 1)"/>
</clipPath>
</defs>
</svg>
