<svg width="16" height="18" viewBox="0 0 16 18" fill="none" xmlns="http://www.w3.org/2000/svg">
<g clip-path="url(#clip0_594_11040)">
<path d="M2.72761 15.733C2.66042 15.7166 2.59287 15.7011 2.52595 15.6832C2.15113 15.5818 1.82361 15.3987 1.55303 15.1234C1.08621 14.6482 0.835005 14.0806 0.813297 13.4172C0.805436 13.168 0.834699 12.9229 0.894156 12.6808C0.963294 12.3965 1.07135 12.128 1.2128 11.8715C1.43864 11.4621 1.73241 11.1061 2.07986 10.7912C2.34172 10.5539 2.62705 10.3473 2.93278 10.1681C3.21891 10.0001 3.48612 9.80622 3.74154 9.59616C4.06302 9.33126 4.36256 9.0433 4.65949 8.75261C4.92198 8.49558 5.18124 8.23609 5.45491 7.99109C5.66081 7.80617 5.87446 7.63078 6.10517 7.47664C6.39376 7.28415 6.70138 7.1321 7.04498 7.05851C7.3028 7.00318 7.5618 6.99512 7.82267 7.03483C8.11768 7.07912 8.40281 7.15809 8.67622 7.27655C9.0946 7.45826 9.43589 7.73367 9.7074 8.09548C9.89297 8.34389 10.0393 8.61389 10.1704 8.89267C10.3094 9.18827 10.4316 9.49084 10.5597 9.79121C10.7042 10.1295 10.856 10.4641 11.0349 10.7866C11.2129 11.108 11.4185 11.4117 11.6514 11.6972C11.933 12.0427 12.1712 12.4142 12.3586 12.8174C12.518 13.163 12.6343 13.5214 12.6929 13.8969C12.7386 14.1895 12.7477 14.4822 12.7106 14.7766C12.6545 15.2237 12.501 15.634 12.2256 15.9972C11.9707 16.3338 11.6443 16.583 11.259 16.7591C10.9757 16.8885 10.68 16.9729 10.3672 16.9941C10.2565 17.002 10.1453 17.0021 10.0346 16.9936C10.0192 16.9924 10.0041 16.9927 9.98905 16.9924C9.97338 16.9978 9.9587 16.9892 9.94338 16.9885C9.93072 16.988 9.91859 16.9802 9.9054 16.9859C9.81245 16.9698 9.71913 16.9536 9.62619 16.9375C9.61656 16.9276 9.60301 16.931 9.59146 16.9274C9.5806 16.9256 9.57029 16.9238 9.55961 16.9219C9.5508 16.9204 9.54125 16.9187 9.53263 16.9172C9.29581 16.8684 9.07335 16.7793 8.85231 16.6867C8.4779 16.5292 8.11623 16.3447 7.74527 16.1798C7.44476 16.0466 7.13898 15.9276 6.82263 15.8352C6.60343 15.7711 6.37962 15.7295 6.15452 15.6983C5.9745 15.6731 5.79199 15.6695 5.61023 15.6713C5.25125 15.6756 4.89423 15.7088 4.53712 15.7413C4.15928 15.7764 3.78154 15.8109 3.4019 15.8065C3.24753 15.8043 3.09356 15.7987 2.94129 15.7708C2.91007 15.765 2.87813 15.7642 2.84659 15.758C2.8067 15.7488 2.76572 15.7489 2.72761 15.733ZM12.0017 1.97551C12.4933 2.12208 12.8317 2.44024 13.0536 2.88795C13.2057 3.19495 13.2773 3.52209 13.2971 3.86199C13.3136 4.15462 13.2877 4.4443 13.2264 4.73126C13.1137 5.25851 12.8971 5.7403 12.5779 6.17764C12.3568 6.48072 12.0945 6.74312 11.7822 6.95456C11.5041 7.1424 11.2032 7.27883 10.8698 7.33858C10.6356 7.38048 10.4026 7.38083 10.1708 7.32655C9.76941 7.23315 9.45367 7.01456 9.21411 6.68686C9.00998 6.40723 8.89325 6.09169 8.83374 5.75444C8.79218 5.51861 8.78238 5.28124 8.79788 5.04292C8.80824 4.87954 8.82969 4.71789 8.8637 4.55841C8.94359 4.18189 9.07865 3.82523 9.26763 3.48896C9.46844 3.13092 9.71919 2.81222 10.0319 2.54255C10.2949 2.31572 10.587 2.13603 10.9191 2.02346C11.1631 1.9406 11.4138 1.90311 11.6723 1.91876C11.814 1.92867 11.8699 1.93944 12.0017 1.97551ZM0.0917329 5.88125C0.126707 5.73147 0.18086 5.58787 0.247325 5.44889C0.37614 5.17878 0.550107 4.9424 0.788622 4.75552C1.05517 4.54701 1.35854 4.43481 1.69916 4.42737C1.97572 4.4216 2.23536 4.48967 2.48041 4.61331C2.76209 4.75569 2.99789 4.95566 3.19611 5.19712C3.50425 5.57119 3.69647 5.99908 3.79859 6.46831C3.85191 6.71399 3.87473 6.96276 3.867 7.21386C3.86331 7.33572 3.8503 7.45673 3.8312 7.57726C3.79462 7.80602 3.73116 8.0263 3.63426 8.23698C3.50502 8.51807 3.32824 8.76367 3.08193 8.9574C2.7992 9.17968 2.4762 9.29248 2.11418 9.28782C1.84853 9.28444 1.59963 9.21251 1.36533 9.09035C1.0504 8.92544 0.797006 8.69213 0.587424 8.41059C0.382867 8.1366 0.235598 7.83405 0.13683 7.50886C0.0400321 7.18991 -0.0076309 6.8631 0.00099454 6.52948C0.00267952 6.47052 0.00586351 6.41182 0.00826485 6.35317C0.00678618 6.32586 0.0140268 6.29949 0.0123275 6.27234C0.0112842 6.26091 0.0148262 6.25086 0.0162852 6.23949C0.016709 6.22528 0.025731 6.2116 0.0195962 6.19625C0.0321873 6.12603 0.0447452 6.056 0.0573694 5.9856C0.07412 5.9687 0.071405 5.94612 0.0765821 5.92587C0.0804566 5.91073 0.0794373 5.89379 0.0917329 5.88125ZM3.98756 3.12984C4.06423 2.71199 4.1922 2.34533 4.39913 2.00703C4.55533 1.75119 4.74724 1.52574 4.9906 1.34522C5.25279 1.15024 5.54456 1.02841 5.87442 1.00444C6.20435 0.980101 6.51063 1.05645 6.79618 1.21817C7.04767 1.36084 7.25492 1.553 7.42881 1.78034C7.70657 2.14285 7.87855 2.55218 7.97415 2.99418C8.03484 3.27524 8.06041 3.55936 8.05263 3.84626C8.04818 4.00896 8.03339 4.17119 8.0079 4.33271C7.97515 4.53584 7.92603 4.73537 7.85626 4.92942C7.71089 5.33497 7.49738 5.69919 7.17934 5.99879C6.9816 6.18455 6.75638 6.32745 6.49598 6.41338C6.205 6.50925 5.91009 6.51927 5.61344 6.44422C5.34522 6.37656 5.1102 6.24551 4.90086 6.06823C4.62773 5.83722 4.42383 5.55419 4.26896 5.23585C4.08537 4.85784 3.98441 4.45759 3.94989 4.04027C3.93093 3.81198 3.93362 3.58364 3.95711 3.35566C3.96551 3.27005 3.97494 3.18405 3.98756 3.12984ZM15.9382 8.88002C15.9353 8.89609 15.9324 8.91235 15.9295 8.92861C15.8384 9.32854 15.6609 9.68909 15.4193 10.0204C15.2294 10.2799 15.0056 10.5077 14.7449 10.6987C14.4102 10.9444 14.0421 11.1174 13.6285 11.1878C13.3808 11.23 13.1336 11.2291 12.8881 11.1726C12.5258 11.0888 12.2298 10.9026 12.0052 10.6099C11.8198 10.368 11.7183 10.0924 11.6766 9.79485C11.6389 9.52806 11.652 9.26208 11.7079 8.99858C11.8306 8.41914 12.1124 7.92197 12.5229 7.49342C12.6616 7.34828 12.8141 7.2185 12.9795 7.10429C13.3195 6.87042 13.6893 6.70933 14.1029 6.6534C14.3381 6.62215 14.5713 6.62963 14.8012 6.68797C15.1524 6.77686 15.439 6.96355 15.6561 7.25095C15.8519 7.51028 15.9517 7.80593 15.9869 8.12449C16.0063 8.30047 16.0045 8.47676 15.979 8.65238C15.9761 8.66864 15.9731 8.68508 15.9702 8.70134C15.9577 8.76051 15.9472 8.82004 15.9382 8.88002Z" fill="#383C48"/>
</g>
<defs>
<clipPath id="clip0_594_11040">
<rect width="16" height="18" fill="white"/>
</clipPath>
</defs>
</svg>
