<svg width="89" height="89" viewBox="0 0 89 89" fill="none" xmlns="http://www.w3.org/2000/svg">
<path d="M0 30C0 13.4315 13.4315 0 30 0H89V59C89 75.5685 75.5685 89 59 89H0V30Z" fill="#3F68D2"/>
<path d="M54.1628 47.9174C53.5349 47.9174 52.9884 47.677 52.5233 47.1962C52.0814 46.7153 51.8605 46.1429 51.8605 45.4789V34.4538C51.8605 33.7668 52.0814 33.183 52.5233 32.7021C52.9651 32.2213 53.5116 31.9808 54.1628 31.9808C54.814 31.9808 55.3605 32.2213 55.8023 32.7021C56.2442 33.183 56.4651 33.7668 56.4651 34.4538L56.5 45.4789C56.5 46.1429 56.2674 46.7153 55.8023 47.1962C55.3605 47.677 54.814 47.9174 54.1628 47.9174ZM54.6163 56.6413C54.1047 57.0077 53.593 57.1909 53.0814 57.1909C52.3837 57.1909 51.7093 56.8474 51.0581 56.1605L40.8372 39.5713C40.0233 38.2433 39.2907 37.5793 38.6395 37.5793C37.8256 37.5793 37.4302 38.5867 37.4535 40.6017V55.0271C37.4535 56.6757 36.6512 57.5 35.0465 57.5C34.3023 57.5 33.686 57.2825 33.1977 56.8474C32.7326 56.3895 32.5 55.7827 32.5 55.0271V37.0297C32.5 35.3811 33.1744 34.0187 34.5233 32.9425C35.7326 31.9808 37.1395 31.5 38.7442 31.5C40.5814 31.5 41.8954 32.1411 42.686 33.4234L55.0349 52.932C55.4302 53.5502 55.6279 54.1455 55.6279 54.718C55.6279 55.4965 55.2907 56.1376 54.6163 56.6413Z" fill="white"/>
</svg>
