<svg width="24" height="24" viewBox="0 0 24 24" fill="none" xmlns="http://www.w3.org/2000/svg">
<path fill-rule="evenodd" clip-rule="evenodd" d="M18.2175 4.13048C16.6101 4.74899 12.1954 6.40621 8.40674 7.81334C4.53131 9.25275 1.36986 10.5942 1.17914 10.8803C0.64418 11.6817 1.28496 12.3247 3.40417 13.113C5.16839 13.7693 5.3262 13.9037 5.62306 15.0031C5.79871 15.6539 6.24723 17.2335 6.61976 18.513L6.94233 19.6213C7.1553 20.353 7.8021 20.8742 8.5624 20.9268C9.74921 21.0088 9.90948 20.9225 11.1289 19.5456C11.8444 18.7378 12.5732 18.0768 12.7482 18.0768C12.9233 18.0768 13.9999 18.7311 15.1412 19.5307C17.3164 21.0551 18.7115 21.3874 19.4421 20.5552C19.7706 20.1809 20.4936 17.0169 22.6832 6.3684C23.48 2.49479 23.041 2.27466 18.2175 4.13048ZM14.4728 11.1068L10.3949 14.7855C10.1105 15.0421 9.90576 15.3749 9.80501 15.7445L9.40713 17.2041C9.10351 18.3184 8.76358 19.1341 8.65192 19.0169C8.23724 18.5825 7.02767 13.6056 7.31222 13.5059C7.4731 13.4497 9.95778 11.9763 12.8341 10.2318C15.7103 8.48739 18.2713 7.05438 18.5251 7.04769C18.7789 7.04071 16.9553 8.86746 14.4728 11.1068Z" fill="white"/>
</svg>
