<svg width="151" height="63" viewBox="0 0 151 63" fill="none" xmlns="http://www.w3.org/2000/svg">
<g clip-path="url(#clip0_231_2479)">
<path d="M98.1899 49.6488C98.142 49.6318 98.1025 49.6073 98.0716 49.5754C98.045 49.5488 98.0274 49.509 98.0189 49.4558C96.9409 43.0016 95.8564 36.5474 94.7656 30.0933" stroke="#E8A51A" stroke-width="2"/>
<path d="M94.7656 30.0933C94.8391 29.9593 94.8252 29.8402 94.724 29.736C90.039 24.8683 85.3412 19.9234 80.6307 14.9015C80.5092 14.7718 80.3617 14.7277 80.1881 14.7691C77.4791 15.4177 75.2384 16.8404 73.4658 19.0372C73.4575 19.0476 73.447 19.0561 73.435 19.0619C73.4231 19.0678 73.41 19.0709 73.3966 19.0711C73.3833 19.0712 73.3701 19.0684 73.358 19.0628C73.346 19.0572 73.3353 19.049 73.3268 19.0388C70.8149 16.0924 67.7171 14.5698 64.0335 14.4709C62.9458 14.4411 61.8907 14.5528 60.8681 14.8058C59.3085 15.1918 57.904 15.842 56.6544 16.7564C53.7431 18.8905 52.092 21.7316 51.701 25.2798C51.603 26.1687 51.6243 27.1246 51.7649 28.1475C51.8959 29.1002 52.0845 30.0428 52.3306 30.9753" stroke="#FFDB91" stroke-width="2"/>
<path d="M52.3303 30.9753C52.2909 31.0954 52.2909 31.2703 52.3303 31.5C52.9109 34.8706 54.0859 41.9251 55.8553 52.6632C55.9725 53.3703 56.0358 53.801 56.0454 53.9551" stroke="#E8A51A" stroke-width="2"/>
<path d="M94.7656 30.0933C94.2276 31.8817 93.5815 33.5038 92.8273 34.9594C91.1336 38.2248 88.9615 41.2137 86.3112 43.9261C84.6952 45.5785 83.0989 47.0288 81.5223 48.2771C78.9572 50.3059 76.2717 52.1964 73.4658 53.9487C73.4446 53.9617 73.4203 53.9686 73.3955 53.9686C73.3706 53.9686 73.3463 53.9617 73.3252 53.9487C71.4823 52.8036 69.7166 51.6228 68.0282 50.4064C65.3384 48.468 62.8372 46.3111 60.5245 43.9357C59.0342 42.4056 57.578 40.6294 56.1559 38.607C54.4483 36.1795 53.1732 33.6356 52.3306 30.9753" stroke="#E8C988" stroke-width="2"/>
<path d="M89.6745 34.4507C90.4362 33.1152 91.0604 31.7313 91.5472 30.2991C91.5509 30.2883 91.5521 30.2769 91.5507 30.2657C91.5493 30.2544 91.5454 30.2437 91.5393 30.2341C91.5331 30.2246 91.5249 30.2166 91.5152 30.2107C91.5055 30.2049 91.4946 30.2012 91.4833 30.2002C88.0084 29.8642 85.1807 28.4266 83.0001 25.8875C82.0297 24.7582 81.3117 23.5323 80.8462 22.2095" stroke="#959595" stroke-width="2"/>
<path d="M80.8465 22.2095C80.3597 20.9123 80.1519 19.5045 80.2233 17.9861C80.2238 17.9729 80.221 17.9597 80.2153 17.9477C80.2095 17.9358 80.2009 17.9254 80.1901 17.9175C80.1794 17.9097 80.1669 17.9045 80.1538 17.9026C80.1406 17.9007 80.1272 17.902 80.1146 17.9064C78.3921 18.5284 76.9849 19.5029 75.893 20.8299C75.4872 21.3212 75.0424 22.0394 74.5588 22.9847C74.1732 23.7385 73.8041 24.5009 73.4515 25.2718C73.4131 25.3558 73.3742 25.3563 73.3348 25.2734C72.9801 24.5217 72.612 23.7699 72.2307 23.0182C71.7577 22.0857 71.3215 21.3738 70.922 20.8825C69.7023 19.3822 68.1667 18.3652 66.3153 17.8314C65.3012 17.538 64.2482 17.4311 63.1563 17.5109C60.246 17.7214 57.919 19.0648 56.1752 21.5413C55.7022 22.2133 55.3384 22.9528 55.0838 23.7598C54.8846 24.3893 54.7653 25.1474 54.7259 26.0342C54.6843 26.9422 54.7115 27.7142 54.8074 28.35C54.9661 29.4048 55.349 30.6707 55.9562 32.1476C56.6625 33.8648 57.7453 35.7091 59.2047 37.6804C60.7355 39.7464 62.4357 41.6635 64.3052 43.4318C66.8256 45.8157 69.8323 48.1342 73.3252 50.3873C73.3452 50.4001 73.3685 50.4068 73.3923 50.4065C73.4162 50.4062 73.4395 50.399 73.4595 50.3857C76.2866 48.5366 78.6813 46.7705 80.6435 45.0873C82.397 43.5817 84.0374 41.9628 85.565 40.2307C87.1384 38.4486 88.5083 36.522 89.6748 34.4507" stroke="#999999" stroke-width="2"/>
<path d="M80.8465 22.2095C80.6356 22.1978 80.5504 22.2696 80.5908 22.4249C80.6121 22.5035 80.6233 22.5471 80.6244 22.5556C81.4702 27.5627 82.3464 32.5697 83.2529 37.5768C83.2923 37.7947 83.4127 37.8569 83.614 37.7634C85.2077 37.0191 86.7752 36.1179 88.3166 35.0599C88.3241 35.0557 88.4364 34.968 88.6538 34.7968C88.9467 34.565 89.2871 34.4496 89.6748 34.4507" stroke="#2F2F2F" stroke-width="2"/>
<path d="M98.1898 49.6488C98.1418 49.6318 98.1024 49.6073 98.0715 49.5754C98.0449 49.5488 98.0273 49.509 98.0188 49.4558C96.9407 43.0016 95.8563 36.5474 94.7655 30.0933C94.839 29.9593 94.8251 29.8402 94.7239 29.736C90.0389 24.8683 85.3412 19.9234 80.6306 14.9015C80.5092 14.7718 80.3616 14.7276 80.188 14.7691C77.479 15.4177 75.2383 16.8404 73.4657 19.0372C73.4574 19.0476 73.4469 19.056 73.435 19.0619C73.423 19.0678 73.4099 19.0709 73.3966 19.071C73.3832 19.0712 73.3701 19.0684 73.358 19.0628C73.3459 19.0572 73.3352 19.049 73.3267 19.0388C70.8148 16.0924 67.717 14.5698 64.0334 14.4709C62.9458 14.4411 61.8906 14.5527 60.868 14.8058C59.3084 15.1918 57.9039 15.842 56.6544 16.7564C53.743 18.8904 52.0919 21.7315 51.7009 25.2798C51.6029 26.1687 51.6242 27.1246 51.7648 28.1474C51.8959 29.1002 52.0844 30.0428 52.3305 30.9753C52.2911 31.0954 52.2911 31.2703 52.3305 31.5C52.9111 34.8706 54.086 41.925 55.8554 52.6632C55.9726 53.3703 56.036 53.8009 56.0456 53.9551C54.2197 52.9407 52.4056 51.9051 50.6032 50.8482C49.5965 50.2581 48.7512 49.7089 48.0673 49.2006C47.5113 48.787 47.0633 48.3266 46.7235 47.8194C46.0173 46.7657 45.5848 45.6147 45.426 44.3664C45.3983 44.1441 45.3733 43.0819 45.3509 41.1797C45.27 34.1024 45.205 27.0246 45.156 19.9463C45.1368 17.0935 46.3017 14.8962 48.6506 13.3544C49.5592 12.7579 50.4855 12.1901 51.4293 11.651C56.8674 8.55046 62.3045 5.44778 67.7405 2.34297C68.6619 1.81557 69.5264 1.36261 70.3338 0.98408C71.2915 0.534308 72.1341 0.271675 72.8617 0.196181C74.1336 0.0632698 75.3592 0.276991 76.5384 0.837346C77.4833 1.28605 78.5848 1.88362 79.8428 2.63005C85.2703 5.85289 90.6898 9.08848 96.1013 12.3368C97.6076 13.2406 98.5045 13.8111 98.7922 14.0482C99.6966 14.7946 100.393 15.7117 100.882 16.7995C101.146 17.3875 101.319 18.0701 101.401 18.8474C101.472 19.5226 101.506 20.2312 101.505 20.9734C101.493 28.2974 101.479 35.6208 101.465 42.9437C101.46 45.8071 100.368 48.0422 98.1898 49.6488Z" fill="#DDDDDD"/>
<path d="M6.50841 41.9963L5.53849 47.8561C5.53238 47.8956 5.51243 47.9317 5.48224 47.9577C5.45205 47.9838 5.41362 47.9981 5.37391 47.9981L0.244702 48.0076C0.223959 48.0077 0.203453 48.0033 0.184622 47.9945C0.165792 47.9858 0.149093 47.973 0.135695 47.957C0.122297 47.941 0.112526 47.9223 0.107066 47.9021C0.101606 47.882 0.10059 47.8608 0.104088 47.8402L6.03064 14.2412C6.03512 14.217 6.04797 14.1951 6.06695 14.1794C6.08593 14.1637 6.10983 14.1551 6.1345 14.1551H14.5681C14.5955 14.155 14.622 14.1646 14.6431 14.1821C14.6641 14.1996 14.6783 14.2239 14.6832 14.2508L20.6081 47.8609C20.6112 47.879 20.6102 47.8975 20.6055 47.9152C20.6007 47.9328 20.5921 47.9492 20.5804 47.9632C20.5687 47.9772 20.5541 47.9884 20.5376 47.9961C20.5212 48.0037 20.5032 48.0077 20.4851 48.0076H14.8078C14.7708 48.0077 14.735 47.9945 14.7069 47.9706C14.6787 47.9466 14.6601 47.9133 14.6544 47.8768L13.6925 42.0027C13.688 41.9759 13.6741 41.9516 13.6533 41.9341C13.6325 41.9166 13.6062 41.907 13.579 41.907L6.59948 41.9166C6.57763 41.9164 6.5564 41.9244 6.53968 41.939C6.52296 41.9537 6.51186 41.974 6.50841 41.9963ZM10.0158 20.5332L7.29297 37.119C7.29041 37.1341 7.29118 37.1495 7.29522 37.1643C7.29926 37.179 7.30648 37.1927 7.31637 37.2044C7.32625 37.2161 7.33857 37.2255 7.35247 37.232C7.36636 37.2384 7.3815 37.2418 7.39683 37.2418H12.7721C12.7824 37.2417 12.7925 37.2394 12.8018 37.2351C12.8111 37.2307 12.8193 37.2245 12.8259 37.2167C12.8324 37.209 12.8372 37.1999 12.8397 37.1902C12.8423 37.1805 12.8427 37.1703 12.8408 37.1605L10.1068 20.5332C10.0759 20.3493 10.0456 20.3493 10.0158 20.5332Z" fill="white"/>
<path d="M38.9643 16.0929C39.9518 16.9893 40.6154 18.1079 40.9553 19.4487C41.212 20.4599 41.3409 21.4333 41.342 22.369C41.3441 28.1905 41.3451 34.012 41.3451 39.8336C41.3441 41.1074 41.131 42.3435 40.706 43.5418C40.3491 44.5455 39.7718 45.3972 38.9739 46.0969C38.2751 46.7093 37.3973 47.1836 36.3406 47.5196C35.3179 47.8449 34.2564 48.0076 33.156 48.0076C29.9464 48.0076 26.7027 48.0076 23.4249 48.0076C23.3889 48.0076 23.3543 47.9933 23.3288 47.9679C23.3034 47.9425 23.2891 47.908 23.2891 47.872V14.2779C23.2891 14.2478 23.3008 14.219 23.3218 14.1978C23.3428 14.1766 23.3712 14.1646 23.4009 14.1646C25.8925 14.1551 28.3986 14.1513 30.919 14.1535C32.6809 14.1545 33.7451 14.1737 34.1115 14.2109C35.3494 14.3353 36.519 14.6522 37.6205 15.1615C38.0508 15.3603 38.4988 15.6708 38.9643 16.0929ZM33.9166 19.3083C33.5107 19.1201 33.0708 19.0255 32.5967 19.0244C31.5187 19.0212 30.4231 19.0196 29.3099 19.0196C29.2811 19.0196 29.2534 19.0309 29.2331 19.0509C29.2127 19.071 29.2012 19.0981 29.2012 19.1265L29.2108 43.0537C29.2108 43.0749 29.2192 43.0952 29.2342 43.1101C29.2492 43.1251 29.2695 43.1335 29.2907 43.1335C30.2995 43.1452 31.3083 43.1606 32.3171 43.1797C33.801 43.2084 34.756 42.6821 35.1821 41.6007C35.3494 41.1744 35.433 40.278 35.433 38.9117C35.433 33.2784 35.433 27.6445 35.433 22.0101C35.433 21.2743 35.2609 20.6528 34.9169 20.1457C34.6708 19.782 34.3374 19.5029 33.9166 19.3083Z" fill="white"/>
<path d="M151 14.1822V18.9893L140.722 19.0196C140.693 19.0196 140.666 19.0309 140.645 19.0509C140.625 19.071 140.614 19.0982 140.614 19.1265L140.623 28.3181C140.623 28.3477 140.635 28.3761 140.656 28.3971C140.678 28.418 140.707 28.4298 140.737 28.4298H148.753C148.77 28.4298 148.787 28.4331 148.803 28.4396C148.819 28.4461 148.833 28.4556 148.845 28.4676C148.857 28.4796 148.866 28.4939 148.873 28.5095C148.879 28.5252 148.883 28.542 148.883 28.559V33.1556C148.883 33.1924 148.868 33.2277 148.842 33.2537C148.815 33.2797 148.779 33.2943 148.742 33.2943L140.726 33.3039C140.696 33.3039 140.667 33.3157 140.646 33.3366C140.625 33.3575 140.614 33.3859 140.614 33.4155L140.623 43.0936C140.623 43.1173 140.633 43.14 140.65 43.1568C140.668 43.1735 140.691 43.1829 140.716 43.1829L151 43.2196V47.9773L135.082 48.0076C135.044 48.0076 135.009 47.9928 134.982 47.9665C134.956 47.9402 134.941 47.9045 134.941 47.8673V14.2651C134.941 14.236 134.953 14.208 134.973 14.1873C134.993 14.1667 135.021 14.1551 135.05 14.1551L151 14.1822Z" fill="white"/>
<path d="M111.011 25.4233C110.933 25.0777 110.893 25.082 110.893 25.4361V41.009C110.893 41.0462 110.878 41.0819 110.852 41.1083C110.826 41.1346 110.79 41.1494 110.753 41.1494H105.451C105.436 41.1494 105.422 41.1465 105.409 41.141C105.395 41.1355 105.383 41.1274 105.373 41.1171C105.363 41.1069 105.355 41.0948 105.349 41.0814C105.343 41.0681 105.341 41.0538 105.341 41.0393L105.35 14.3066C105.35 14.2919 105.353 14.2774 105.359 14.2639C105.364 14.2503 105.373 14.238 105.383 14.2276C105.393 14.2173 105.406 14.2091 105.419 14.2034C105.433 14.1978 105.447 14.1949 105.462 14.1949L113.228 14.2045C113.264 14.2044 113.3 14.217 113.329 14.2402C113.357 14.2634 113.378 14.2958 113.386 14.3321C114.954 21.2361 116.517 28.1049 118.074 34.9387C118.122 35.1524 118.151 35.3252 118.16 35.457C118.162 35.4845 118.169 35.5099 118.179 35.53C118.19 35.5502 118.204 35.5642 118.22 35.5703C118.259 35.5862 118.286 35.5597 118.299 35.4905C119.815 28.425 121.346 21.3621 122.89 14.3018C122.895 14.2795 122.908 14.2596 122.925 14.2454C122.943 14.2312 122.965 14.2235 122.988 14.2237L130.924 14.1949C130.951 14.1949 130.977 14.2059 130.997 14.2253C131.016 14.2448 131.027 14.2711 131.027 14.2986V47.9023C131.027 47.9162 131.024 47.9299 131.019 47.9426C131.013 47.9554 131.005 47.967 130.996 47.9768C130.986 47.9866 130.974 47.9943 130.961 47.9996C130.949 48.0049 130.935 48.0076 130.921 48.0076H125.434C125.413 48.0076 125.392 47.9992 125.377 47.9842C125.362 47.9693 125.354 47.949 125.354 47.9279C125.349 40.5295 125.352 33.1311 125.364 25.7327C125.364 25.7189 125.374 25.6652 125.394 25.5716C125.406 25.5185 125.392 25.4765 125.354 25.4456C125.347 25.4399 125.339 25.4364 125.33 25.4354C125.321 25.4344 125.311 25.4359 125.303 25.4399C125.294 25.4439 125.286 25.4502 125.279 25.4582C125.273 25.4661 125.269 25.4755 125.266 25.4855L120.174 47.8465C120.164 47.8894 120.141 47.9277 120.107 47.9553C120.073 47.9828 120.03 47.9979 119.987 47.998L116.261 48.0076C116.227 48.0077 116.194 47.9962 116.167 47.975C116.141 47.9538 116.122 47.9242 116.115 47.8912L111.011 25.4233Z" fill="white"/>
<path d="M94.7656 30.0933C94.2276 31.8817 93.5815 33.5038 92.8273 34.9594C91.1336 38.2248 88.9615 41.2137 86.3112 43.9262C84.6952 45.5785 83.0989 47.0289 81.5223 48.2772C78.9572 50.3059 76.2717 52.1965 73.4658 53.9488C73.4446 53.9617 73.4203 53.9686 73.3955 53.9686C73.3706 53.9686 73.3463 53.9617 73.3252 53.9488C71.4823 52.8036 69.7166 51.6228 68.0282 50.4064C65.3384 48.468 62.8372 46.3111 60.5245 43.9357C59.0342 42.4057 57.578 40.6294 56.1559 38.6071C54.4483 36.1796 53.1732 33.6356 52.3306 30.9753C52.0845 30.0428 51.8959 29.1002 51.7649 28.1475C51.6243 27.1246 51.603 26.1687 51.701 25.2798C52.092 21.7316 53.7431 18.8905 56.6544 16.7564C57.904 15.842 59.3085 15.1918 60.8681 14.8058C61.8907 14.5528 62.9458 14.4411 64.0335 14.4709C67.7171 14.5698 70.8149 16.0924 73.3268 19.0388C73.3353 19.049 73.346 19.0572 73.358 19.0628C73.3701 19.0684 73.3833 19.0712 73.3966 19.0711C73.41 19.0709 73.4231 19.0678 73.435 19.0619C73.447 19.0561 73.4575 19.0476 73.4658 19.0372C75.2384 16.8404 77.4791 15.4177 80.1881 14.7691C80.3617 14.7277 80.5092 14.7718 80.6307 14.9015C85.3412 19.9234 90.039 24.8683 94.724 29.736C94.8252 29.8402 94.8391 29.9593 94.7656 30.0933ZM89.6747 34.4507C90.4364 33.1152 91.0606 31.7313 91.5474 30.299C91.5511 30.2883 91.5523 30.2769 91.5509 30.2657C91.5495 30.2544 91.5456 30.2437 91.5395 30.2341C91.5333 30.2246 91.5251 30.2166 91.5154 30.2107C91.5057 30.2048 91.4948 30.2012 91.4835 30.2002C88.0086 29.8642 85.1809 28.4266 83.0003 25.8874C82.0299 24.7582 81.3119 23.5323 80.8464 22.2095C80.3596 20.9123 80.1519 19.5045 80.2232 17.9861C80.2237 17.9729 80.221 17.9597 80.2152 17.9477C80.2094 17.9357 80.2008 17.9254 80.1901 17.9175C80.1793 17.9097 80.1669 17.9045 80.1537 17.9026C80.1405 17.9006 80.1271 17.9019 80.1146 17.9064C78.392 18.5284 76.9848 19.5029 75.893 20.8299C75.4871 21.3211 75.0424 22.0394 74.5587 22.9847C74.1731 23.7385 73.804 24.5009 73.4514 25.2718C73.413 25.3558 73.3742 25.3563 73.3347 25.2734C72.98 24.5216 72.612 23.7699 72.2306 23.0182C71.7576 22.0856 71.3214 21.3738 70.9219 20.8825C69.7022 19.3822 68.1667 18.3652 66.3152 17.8314C65.3011 17.538 64.2481 17.4311 63.1562 17.5108C60.246 17.7214 57.9189 19.0648 56.1751 21.5412C55.7021 22.2132 55.3383 22.9528 55.0837 23.7598C54.8845 24.3893 54.7652 25.1474 54.7258 26.0342C54.6842 26.9422 54.7114 27.7142 54.8073 28.35C54.966 29.4048 55.349 30.6707 55.9562 32.1476C56.6624 33.8648 57.7453 35.7091 59.2047 37.6804C60.7354 39.7464 62.4356 41.6635 64.3051 43.4317C66.8255 45.8156 69.8322 48.1342 73.3252 50.3873C73.3451 50.4001 73.3684 50.4068 73.3922 50.4065C73.4161 50.4062 73.4394 50.399 73.4594 50.3857C76.2866 48.5366 78.6813 46.7705 80.6435 45.0873C82.3969 43.5817 84.0374 41.9628 85.5649 40.2307C87.1383 38.4486 88.5083 36.5219 89.6747 34.4507Z" fill="white"/>
<path d="M80.8465 22.2095C80.6356 22.1978 80.5503 22.2695 80.5908 22.4248C80.6121 22.5035 80.6233 22.5471 80.6244 22.5556C81.4702 27.5626 82.3464 32.5697 83.2529 37.5767C83.2923 37.7947 83.4127 37.8569 83.614 37.7633C85.2076 37.019 86.7752 36.1179 88.3166 35.0599C88.324 35.0556 88.4364 34.9679 88.6537 34.7967C88.9467 34.5649 89.287 34.4495 89.6748 34.4506C88.5083 36.5219 87.1384 38.4486 85.565 40.2307C84.0374 41.9628 82.397 43.5816 80.6435 45.0872C78.6813 46.7704 76.2866 48.5366 73.4595 50.3856C73.4395 50.3989 73.4162 50.4062 73.3923 50.4065C73.3685 50.4067 73.3452 50.4001 73.3252 50.3872C69.8323 48.1341 66.8256 45.8156 64.3052 43.4317C62.4357 41.6634 60.7355 39.7463 59.2047 37.6804C57.7453 35.709 56.6625 33.8647 55.9562 32.1475C55.349 30.6706 54.9661 29.4048 54.8074 28.35C54.7115 27.7141 54.6843 26.9422 54.7259 26.0341C54.7653 25.1473 54.8846 24.3892 55.0838 23.7598C55.3384 22.9527 55.7022 22.2132 56.1752 21.5412C57.919 19.0648 60.246 17.7213 63.1563 17.5108C64.2482 17.431 65.3012 17.5379 66.3153 17.8314C68.1667 18.3651 69.7023 19.3822 70.922 20.8825C71.3215 21.3737 71.7577 22.0856 72.2307 23.0181C72.612 23.7699 72.9801 24.5216 73.3348 25.2733C73.3742 25.3563 73.4131 25.3558 73.4515 25.2718C73.8041 24.5009 74.1732 23.7385 74.5588 22.9846C75.0424 22.0393 75.4872 21.3211 75.893 20.8299C76.9849 19.5029 78.3921 18.5284 80.1146 17.9063C80.1272 17.9019 80.1406 17.9006 80.1538 17.9025C80.1669 17.9045 80.1794 17.9096 80.1901 17.9175C80.2009 17.9253 80.2095 17.9357 80.2153 17.9477C80.221 17.9596 80.2238 17.9728 80.2233 17.9861C80.1519 19.5045 80.3597 20.9123 80.8465 22.2095Z" fill="#323232"/>
<path d="M80.8465 22.2095C81.312 23.5322 82.03 24.7582 83.0004 25.8874C85.181 28.4265 88.0087 29.8641 91.4836 30.2001C91.4949 30.2012 91.5058 30.2048 91.5155 30.2107C91.5252 30.2166 91.5334 30.2246 91.5396 30.2341C91.5457 30.2436 91.5496 30.2544 91.551 30.2656C91.5524 30.2769 91.5512 30.2883 91.5475 30.299C91.0607 31.7313 90.4365 33.1151 89.6748 34.4506C89.2871 34.4496 88.9467 34.5649 88.6538 34.7967C88.4364 34.9679 88.3241 35.0556 88.3166 35.0599C86.7752 36.1179 85.2077 37.019 83.614 37.7633C83.4127 37.8569 83.2923 37.7947 83.2529 37.5767C82.3464 32.5697 81.4702 27.5626 80.6244 22.5556C80.6233 22.5471 80.6121 22.5035 80.5908 22.4248C80.5504 22.2696 80.6356 22.1978 80.8465 22.2095Z" fill="#2B2B2B"/>
<path d="M94.7658 30.0933C95.8566 36.5474 96.9411 43.0016 98.0191 49.4558C98.0276 49.509 98.0452 49.5488 98.0718 49.5754C98.1027 49.6073 98.1422 49.6318 98.1901 49.6488C90.451 54.2348 83.6302 58.1902 77.7276 61.5151C77.2152 61.8033 76.6267 62.0776 75.9619 62.3381C75.293 62.6007 74.6682 62.7533 74.0876 62.7958C72.8189 62.8884 71.6354 62.6805 70.5371 62.1722C69.6636 61.7692 68.5957 61.1988 67.3334 60.4609C65.9112 59.6294 64.9903 59.0956 64.5706 58.8595C61.7136 57.2508 58.872 55.616 56.0459 53.9551C56.0363 53.8009 55.9729 53.3703 55.8558 52.6632C54.0864 41.925 52.9114 34.8706 52.3308 31.5C52.2914 31.2703 52.2914 31.0954 52.3308 30.9753C53.1734 33.6356 54.4486 36.1795 56.1562 38.607C57.5783 40.6294 59.0345 42.4056 60.5248 43.9357C62.8374 46.3111 65.3387 48.468 68.0284 50.4064C69.7169 51.6228 71.4825 52.8036 73.3254 53.9487C73.3466 53.9617 73.3709 53.9686 73.3957 53.9686C73.4206 53.9686 73.4449 53.9617 73.466 53.9487C76.2719 52.1964 78.9574 50.3059 81.5226 48.2771C83.0991 47.0288 84.6954 45.5785 86.3114 43.9261C88.9618 41.2137 91.1338 38.2248 92.8276 34.9594C93.5818 33.5038 94.2279 31.8817 94.7658 30.0933Z" fill="#DDDDDD"/>
<path d="M110.812 43.3823H105.424C105.378 43.3823 105.341 43.4194 105.341 43.4652V47.9246C105.341 47.9704 105.378 48.0076 105.424 48.0076H110.812C110.858 48.0076 110.895 47.9704 110.895 47.9246V43.4652C110.895 43.4194 110.858 43.3823 110.812 43.3823Z" fill="white"/>
</g>
<defs>
<clipPath id="clip0_231_2479">
<rect width="151" height="63" fill="white"/>
</clipPath>
</defs>
</svg>
