<svg width="195" height="32" viewBox="0 0 195 32" fill="none" xmlns="http://www.w3.org/2000/svg">
<path d="M40.0967 7.52319H45.6802C48.3503 7.52319 50.3733 8.19775 51.749 9.54531C53.1243 10.8941 53.8123 12.8195 53.8123 15.3216V16.6778C53.8123 19.1482 53.1163 21.0662 51.7242 22.4301C50.3322 23.7946 48.3176 24.4768 45.6798 24.4768H40.0967V7.52319ZM43.0097 10.0902V21.9091H45.6802C47.3631 21.9091 48.6294 21.4813 49.479 20.6259C50.329 19.7699 50.7533 18.4541 50.7533 16.6778V15.3216C50.7533 13.5626 50.3245 12.2502 49.4668 11.3859C48.6092 10.5229 47.3464 10.0902 45.6798 10.0902H43.0097Z" fill="white"/>
<path d="M61.5737 24.695C59.7448 24.695 58.3169 24.1782 57.2893 23.145C56.2613 22.1117 55.748 20.6662 55.748 18.8096V18.0342C55.748 17.114 55.8815 16.2909 56.1484 15.5638C56.4152 14.8374 56.8039 14.2198 57.3136 13.7114C57.8232 13.2029 58.4342 12.8154 59.1463 12.5488C59.8581 12.2826 60.6673 12.1488 61.5737 12.1488C63.4026 12.1488 64.8305 12.6662 65.8585 13.6989C66.8862 14.7322 67.4003 16.1776 67.4003 18.0342V18.8096C67.4003 19.73 67.2669 20.553 66.9997 21.28C66.7325 22.0064 66.3445 22.624 65.8344 23.1325C65.3245 23.641 64.7093 24.0285 63.9892 24.295C63.2692 24.561 62.4638 24.695 61.5737 24.695ZM61.5737 22.0788C62.4962 22.0788 63.2043 21.8125 63.698 21.2797C64.1916 20.7466 64.4386 19.9236 64.4386 18.8093V18.034C64.4386 16.9364 64.1833 16.1168 63.674 15.576C63.1643 15.0352 62.4638 14.7648 61.574 14.7648C60.6515 14.7648 59.9434 15.031 59.4501 15.5638C58.9561 16.097 58.7098 16.92 58.7098 18.0342V18.8096C58.7098 19.9072 58.9641 20.7268 59.4741 21.2676C59.9841 21.8084 60.684 22.0788 61.5737 22.0788Z" fill="white"/>
<path d="M70.8614 23.4477C70.1735 22.7613 69.8296 21.7728 69.8296 20.4806V7.52319H72.6454V20.1901C72.6454 20.8192 72.783 21.28 73.0582 21.5706C73.3334 21.8611 73.7539 22.0067 74.3206 22.0067H74.9275V24.4771H73.8106C72.5322 24.4768 71.5491 24.1334 70.8614 23.4477Z" fill="white"/>
<path d="M83.1099 24.6951C81.5883 24.6951 80.407 24.2183 79.5653 23.2657V29.3207H76.7495V12.3668H78.9584L79.2257 14.0142C79.6462 13.3844 80.1844 12.9159 80.8396 12.6087C81.4952 12.3025 82.2515 12.1486 83.1099 12.1486C83.8056 12.1486 84.449 12.274 85.0402 12.5239C85.6306 12.7751 86.1354 13.1463 86.5566 13.6382C86.9777 14.1313 87.309 14.7447 87.5521 15.4795C87.7943 16.2142 87.9162 17.0654 87.9162 18.034V18.8094C87.9162 19.778 87.7943 20.6257 87.5521 21.3524C87.309 22.0788 86.9733 22.6929 86.5441 23.1931C86.1158 23.6939 85.6101 24.0692 85.0269 24.3188C84.4445 24.5694 83.8056 24.6951 83.1099 24.6951ZM82.2599 22.0788C83.1173 22.0788 83.7812 21.8209 84.2504 21.3041C84.7197 20.7873 84.9547 19.9559 84.9547 18.8094V18.034C84.9547 16.9198 84.7117 16.0967 84.2264 15.5636C83.7411 15.0311 83.0859 14.7646 82.2602 14.7646C81.4837 14.7646 80.8483 15.0308 80.3543 15.5636C79.8607 16.0967 79.5978 16.8718 79.5653 17.8891V18.8094C79.5653 19.8747 79.8206 20.6859 80.3299 21.2433C80.8396 21.8004 81.4834 22.0788 82.2599 22.0788Z" fill="white"/>
<path d="M90.3408 7.52319H93.1572V13.4086C93.9657 12.569 95.0903 12.1488 96.531 12.1488C98.0197 12.1488 99.1808 12.5888 100.014 13.4691C100.848 14.3494 101.264 15.6768 101.264 17.4531V24.4768H98.4489V17.4531C98.4489 16.5651 98.2343 15.8947 97.8051 15.4429C97.376 14.991 96.7901 14.7648 96.0457 14.7648C95.1713 14.7648 94.4795 14.9987 93.9701 15.4672C93.4599 15.9357 93.1884 16.5571 93.1572 17.3318V24.4768H90.3408V7.52319Z" fill="white"/>
<path d="M105.834 10.9139C105.316 10.9139 104.883 10.7408 104.535 10.393C104.187 10.0461 104.013 9.61412 104.013 9.09732C104.013 8.58048 104.187 8.1488 104.535 7.8016C104.883 7.45472 105.316 7.28064 105.834 7.28064C106.335 7.28064 106.765 7.4544 107.121 7.8016C107.476 8.14848 107.654 8.58048 107.654 9.09732C107.654 9.61412 107.476 10.0458 107.121 10.393C106.765 10.7408 106.335 10.9139 105.834 10.9139ZM104.426 12.3667H107.242V24.4768H104.426V12.3667Z" fill="white"/>
<path d="M110.517 12.3668H112.726L112.944 13.723C113.849 12.6737 115.104 12.1486 116.707 12.1486C118.195 12.1486 119.357 12.5886 120.19 13.4689C121.023 14.3492 121.44 15.6766 121.44 17.4529V24.4769H118.624V17.4532C118.624 16.5652 118.409 15.8948 117.98 15.443C117.552 14.9911 116.965 14.7649 116.221 14.7649C115.347 14.7649 114.655 14.9988 114.145 15.4673C113.635 15.9358 113.364 16.5572 113.332 17.3319V24.4769H110.517V12.3668Z" fill="white"/>
<path d="M131.634 9.07332H130.516C128.671 9.07332 127.749 10.0419 127.749 11.9798V15.1277C127.749 15.8547 127.64 16.5046 127.421 17.0774C127.203 17.6515 126.721 18.0992 125.977 18.4221C126.349 18.6 126.653 18.8016 126.887 19.0278C127.122 19.2541 127.304 19.5078 127.433 19.7901C127.563 20.073 127.647 20.3757 127.688 20.6986C127.728 21.0214 127.749 21.361 127.749 21.7155V24.864C127.749 26.8019 128.671 27.7706 130.516 27.7706H131.634V29.3206H130.516C127.539 29.3206 126.05 27.8346 126.05 24.864V21.7152C126.05 20.8598 125.859 20.2422 125.479 19.8627C125.099 19.4832 124.641 19.2534 124.108 19.1722V17.671C124.641 17.5904 125.099 17.36 125.479 16.9805C125.859 16.601 126.05 15.9837 126.05 15.1274V11.9795C126.05 9.00897 127.539 7.52289 130.516 7.52289H131.634V9.07332Z" fill="white"/>
<path d="M137.582 24.6461C136.369 24.6461 135.437 24.3357 134.791 23.7139C134.143 23.0925 133.819 22.2327 133.819 21.1345C133.819 20.553 133.913 20.0243 134.099 19.5475C134.285 19.0714 134.584 18.6721 134.997 18.3491C135.41 18.0263 135.939 17.7757 136.588 17.5978C137.234 17.4205 138.011 17.3315 138.918 17.3315H141.685V16.2417C141.685 15.3703 141.47 14.7281 141.042 14.3162C140.612 13.905 139.904 13.6986 138.918 13.6986C138.027 13.6986 137.36 13.8723 136.914 14.2195C136.47 14.5674 136.215 15.0391 136.15 15.6365H134.427C134.459 15.1357 134.573 14.6762 134.766 14.2561C134.96 13.8359 135.243 13.473 135.616 13.1661C135.988 12.8593 136.45 12.6211 137 12.4515C137.55 12.2826 138.189 12.1978 138.918 12.1978C140.358 12.1978 141.446 12.553 142.183 13.2631C142.918 13.9738 143.287 14.9671 143.287 16.2419V24.4769H142.049L141.806 22.2003C141.385 22.9751 140.807 23.5767 140.071 24.0045C139.334 24.4321 138.505 24.6461 137.582 24.6461ZM137.703 23.1447C138.254 23.1447 138.772 23.0439 139.257 22.8419C139.742 22.6403 140.168 22.3658 140.531 22.0183C140.895 21.6714 141.179 21.2675 141.382 20.8074C141.584 20.3473 141.684 19.8589 141.684 19.3421V18.7853H138.918C137.67 18.7853 136.784 19.0033 136.259 19.4387C135.733 19.8749 135.47 20.4403 135.47 21.1345C135.47 21.7479 135.66 22.2362 136.041 22.5997C136.421 22.9626 136.975 23.1447 137.703 23.1447Z" fill="white"/>
<path d="M147.291 12.3667H148.528L148.722 14.353C149.127 13.6589 149.673 13.1265 150.362 12.7546C151.049 12.3834 151.846 12.1978 152.752 12.1978C154.144 12.1978 155.24 12.6179 156.041 13.4567C156.843 14.2963 157.243 15.5475 157.243 17.2109V24.4769H155.641V17.2113C155.641 16.033 155.366 15.1527 154.815 14.5709C154.265 13.9895 153.497 13.6989 152.509 13.6989C151.442 13.6989 150.58 14.0058 149.924 14.6193C149.268 15.2333 148.924 16.0481 148.892 17.0657V24.4769H147.291V12.3667Z" fill="white"/>
<path d="M159.552 12.3667H161.736V8.97668H163.339V12.3667H166.592V13.8202H163.339V21.0861C163.339 22.3776 163.938 23.0234 165.135 23.0234H166.835V24.4768H164.941C163.889 24.4768 163.092 24.2064 162.55 23.6656C162.008 23.1248 161.736 22.3293 161.736 21.28V13.8205H159.552V12.3667Z" fill="white"/>
<path d="M173.8 24.4768L168.774 12.3668H170.571L174.673 22.4906L178.485 12.3668H180.184L173.63 29.3207H171.93L173.8 24.4768Z" fill="white"/>
<path d="M181.735 27.7702H182.852C184.697 27.7702 185.619 26.8016 185.619 24.8637V21.7152C185.619 20.9888 185.728 20.3389 185.947 19.7654C186.165 19.193 186.647 18.7443 187.391 18.4214C187.018 18.2442 186.715 18.0419 186.481 17.8157C186.246 17.5901 186.065 17.3357 185.935 17.0528C185.805 16.7706 185.721 16.4678 185.681 16.145C185.64 15.8221 185.619 15.4835 185.619 15.1274V11.9795C185.619 10.0416 184.697 9.07295 182.852 9.07295H181.735V7.52319H182.852C185.829 7.52319 187.319 9.00931 187.319 11.9798V15.1277C187.319 15.9837 187.509 16.6019 187.889 16.9814C188.269 17.3603 188.727 17.5907 189.26 17.6714V19.1725C188.727 19.2538 188.269 19.4835 187.889 19.863C187.509 20.2419 187.319 20.8598 187.319 21.7155V24.864C187.319 27.8346 185.829 29.3206 182.852 29.3206H181.735V27.7702Z" fill="white"/>
<path d="M0 16C0 0 0 0 16.0372 0C32.0743 0 32.0743 0 32.0743 16C32.0743 32 32.0743 32 16.0372 32C0 32 0 32 0 16Z" fill="white" fill-opacity="0.05"/>
<path d="M22.6268 15.3238V16.6864C22.6268 19.1485 21.9289 21.066 20.5334 22.4381C19.1474 23.8006 17.1348 24.4772 14.4947 24.4772H10.0342C11.2071 23.9725 11.7937 22.8826 11.7937 21.2074V18.6644C11.7937 17.968 11.9454 17.4733 12.2492 17.161C12.5629 16.858 12.9269 16.6762 13.3616 16.6058V15.3952C12.9269 15.3242 12.5629 15.143 12.2492 14.84C11.9454 14.527 11.7937 14.033 11.7937 13.3366V10.793C11.7937 9.11815 11.2071 8.0282 10.0342 7.52356H14.4944C17.1649 7.52356 19.1879 8.19972 20.5632 9.55201C21.9395 10.8934 22.6268 12.8212 22.6268 15.3238Z" fill="white"/>
</svg>
