<svg width="178" height="33" viewBox="0 0 178 33" fill="none" xmlns="http://www.w3.org/2000/svg">
<g clip-path="url(#clip0_144_2391)">
<path d="M11.9732 0.0743653C8.88879 0.416246 6.29008 1.7105 3.95852 4.07924C1.96699 6.1061 1.09266 7.62014 0.436909 10.2331C-0.753155 14.8973 0.50977 19.415 3.95852 22.907C6.92154 25.9107 9.93312 27.0829 14.1591 26.8631C17.0978 26.741 19.1623 26.0328 21.4938 24.3478C24.9911 21.8326 27.0069 17.9009 27.0069 13.5053C27.0069 5.47118 20.0365 -0.755914 11.9732 0.0743653ZM15.082 3.49316C19.3565 4.17692 22.5624 7.42478 23.3153 11.7471C24.0925 16.2892 21.858 20.6848 17.7293 22.7117C16.4664 23.3466 16.1263 23.3954 13.5519 23.3954C11.026 23.3954 10.6132 23.3222 9.35024 22.7361C1.89413 19.2196 1.62697 8.25506 8.93737 4.44554C9.9817 3.9083 12.1432 3.32222 13.1876 3.27338C13.4547 3.24896 14.3048 3.34664 15.082 3.49316Z" fill="white"/>
<path d="M79.6762 0.0804322C73.6056 0.739056 68.7446 6.69107 68.7446 13.4481C68.7446 17.2535 69.954 20.3515 72.4661 22.986C75.0245 25.6692 77.862 26.8889 81.5601 26.8889C83.9558 26.8889 86.1188 26.279 88.0958 25.035C90.538 23.4738 91.3985 21.8638 90.3751 20.7905C89.7006 20.0831 88.9564 20.1807 87.7236 21.1809C87.1189 21.6443 86.0491 22.3273 85.3048 22.6932C84.1185 23.2787 83.6999 23.3518 81.4206 23.3518C79.0714 23.3518 78.7458 23.303 77.4666 22.6445C73.7685 20.7417 71.6054 16.2777 72.2334 11.9357C72.8613 7.49606 75.7688 4.30051 79.932 3.47113C82.3044 2.98326 84.8396 3.69067 87.3515 5.54457C88.9563 6.73986 89.8402 6.91061 90.4449 6.2032C91.3753 5.12988 90.6542 3.71507 88.4214 2.15388C86.0257 0.495121 82.8626 -0.261078 79.6762 0.0804322Z" fill="white"/>
<path d="M175.235 0.281586C175.014 0.454363 174.721 0.923323 174.574 1.29355C174.231 2.23149 174.231 24.1987 174.574 25.4574C174.99 26.9631 176.337 27.358 177.389 26.2719L178 25.6796V13.4372V1.19483L177.389 0.602455C176.752 -0.0639642 175.871 -0.187376 175.235 0.281586Z" fill="white"/>
<path d="M145.398 2.55744C144.56 2.89494 144.339 3.56994 144.339 5.7878V7.86101H142.739C141.334 7.86101 141.038 7.93333 140.522 8.46369C139.783 9.18691 139.758 9.76547 140.423 10.6092C140.891 11.1878 141.087 11.236 142.639 11.236H144.339V18.4681V25.7244L144.954 26.303C145.62 26.978 146.481 27.0744 147.196 26.5682C147.639 26.2306 147.664 25.7967 147.788 18.7815L147.91 11.3565L149.511 11.2842C151.359 11.1878 152.22 10.6333 152.22 9.52441C152.22 8.43958 151.235 7.86101 149.364 7.86101H147.788V5.61904C147.788 3.76281 147.713 3.28066 147.368 2.99138C146.753 2.46102 146.038 2.31638 145.398 2.55744Z" fill="white"/>
<path d="M36.9781 6.25286C35.6032 6.51431 33.747 7.69078 32.8992 8.78883C32.5325 9.25942 32.1659 9.65158 32.0972 9.65158C32.0284 9.65158 31.9825 9.07642 31.9825 8.39666C31.9825 6.88031 31.4326 6.096 30.5389 6.35745C29.5307 6.64502 29.4619 7.27248 29.4619 16.7366V25.6255L30.0348 26.253C30.6993 27.0373 31.5013 27.0896 32.2347 26.4099C32.7846 25.9131 32.7846 25.8347 32.8992 19.9261C33.0137 13.9654 33.0137 13.9654 33.6553 12.7104C35.7635 8.63197 40.8736 8.81497 42.6839 13.0241C43.3026 14.4621 43.3254 14.6189 43.4401 20.2922C43.5546 25.7039 43.5776 26.1223 44.0129 26.4882C44.6545 27.0634 45.6399 27.0111 46.1899 26.3837C46.6252 25.8869 46.6481 25.521 46.6481 20.1614C46.6481 13.8346 46.4648 12.6059 45.2274 10.3575C43.4859 7.24633 40.2091 5.59927 36.9781 6.25286Z" fill="white"/>
<path d="M56.289 6.26017C50.1683 7.32405 46.4907 13.6554 48.368 19.805C49.2939 22.8151 51.1456 24.8909 54.1545 26.2921C55.2345 26.7851 55.8775 26.8889 58.1406 26.8889C60.5837 26.8889 60.9952 26.811 62.4612 26.1364C64.2871 25.2801 65.8558 23.7232 65.8558 22.7372C65.8558 21.9328 65.0072 21.0506 64.2613 21.0506C63.9271 21.0506 63.0012 21.5176 62.1782 22.0626C58.6035 24.5276 54.0516 23.3859 52.3286 19.6234L51.7114 18.326L59.1437 18.2481C67.9133 18.1703 67.5532 18.3001 67.5018 15.368C67.4504 12.7732 66.6274 10.8789 64.7243 8.95878C62.4612 6.67535 59.4523 5.71527 56.289 6.26017ZM60.8153 10.2562C62.5126 10.9568 63.747 12.4098 64.1585 14.0965L64.3128 14.823H58.1406C52.7399 14.823 51.9685 14.7712 51.9685 14.4338C51.9685 13.1104 54.1802 10.8011 56.1347 10.1264C57.6006 9.58153 59.3494 9.63342 60.8153 10.2562Z" fill="white"/>
<path d="M100.832 6.32997C97.9164 7.03085 95.3964 9.18538 93.9881 12.1706C93.3459 13.5203 93.2964 13.9097 93.2964 16.5056C93.2964 19.1533 93.3459 19.4908 94.0623 21.0743C95.0011 23.1769 96.8294 25.1238 98.7564 26.1361C100.066 26.811 100.461 26.8889 102.685 26.8889C104.908 26.8889 105.304 26.811 106.564 26.162C107.379 25.7467 108.441 24.8901 109.108 24.1114L110.22 22.8134V24.345C110.22 25.5132 110.319 26.0063 110.665 26.3179C111.258 26.8889 112.024 26.863 112.518 26.2918C112.888 25.8506 112.938 24.8122 112.938 16.5576C112.938 7.62789 112.913 7.26447 112.444 6.77127C111.332 5.60314 110.22 6.5636 110.22 8.71814V10.1458L108.886 8.7441C106.811 6.5636 103.772 5.65506 100.832 6.32997ZM105.007 10.042C109.504 11.4438 111.035 17.8294 107.7 21.3598C104.612 24.5786 99.72 23.8518 97.3482 19.8282C96.5823 18.5563 96.4093 15.7268 97.0023 14.1693C97.9411 11.5216 100.338 9.75646 103.08 9.65263C103.426 9.62667 104.291 9.80838 105.007 10.042Z" fill="white"/>
<path d="M122.773 6.31221C121.037 6.60909 119.13 7.64815 117.98 8.90985L116.978 10.0231V8.90985C116.978 6.75753 115.804 5.669 114.703 6.78227C114.166 7.32654 114.166 7.35128 114.166 19.5725V31.8433L114.85 32.437C115.731 33.204 116.366 33.1792 117.1 32.4122C117.711 31.8186 117.711 31.7443 117.711 27.4396V23.0856L118.518 23.8772C118.934 24.3225 119.912 24.9657 120.646 25.3368C121.795 25.881 122.308 25.98 124.314 25.98C126.319 25.98 126.832 25.881 128.03 25.3121C131.87 23.5061 134.094 19.5972 133.777 15.2679C133.435 10.8148 130.206 7.12862 125.927 6.33695C124.339 6.04009 124.436 6.04009 122.773 6.31221ZM126.93 10.3942C132.652 13.2392 130.965 21.9969 124.558 22.566C121.208 22.8876 118.396 20.6611 117.662 17.1728C117.271 15.2184 117.858 13.3134 119.374 11.7054C121.477 9.47886 124.142 9.03355 126.93 10.3942Z" fill="white"/>
<path d="M160.064 6.26411C156.203 6.99051 152.905 10.7523 152.319 15.1107C151.709 19.5988 153.981 24.1389 157.816 26.1365C159.134 26.811 159.501 26.8889 161.724 26.8889C164.704 26.863 165.95 26.3181 167.904 24.2427L169.175 22.8417V24.3984C169.175 26.1106 169.542 26.7592 170.519 26.7592C171.813 26.7592 171.862 26.396 171.862 16.5116V7.37967L171.227 6.75703C170.665 6.18628 170.567 6.16034 169.957 6.54949C169.37 6.88675 169.297 7.09429 169.224 8.54711C169.175 9.42918 169.126 10.1556 169.101 10.1556C169.053 10.1556 168.368 9.48106 167.563 8.62493C165.535 6.54949 162.97 5.74525 160.064 6.26411ZM164.9 10.441C167.074 11.6343 168.198 13.4763 168.393 16.1225C168.588 19.1059 167.22 21.5187 164.582 22.8158C162.261 23.9314 159.379 23.3606 157.498 21.363C154.981 18.6649 155.006 14.3843 157.547 11.7381C159.55 9.66266 162.505 9.1438 164.9 10.441Z" fill="white"/>
<path d="M136.946 7.85374L136.262 8.34937V17.0972V25.845L136.867 26.3653C137.63 27.0593 138.366 27.0593 139.261 26.3901L139.945 25.8945V17.122V8.34937L139.261 7.85374C138.866 7.55636 138.366 7.33333 138.104 7.33333C137.841 7.33333 137.341 7.55636 136.946 7.85374Z" fill="white"/>
</g>
<defs>
<clipPath id="clip0_144_2391">
<rect width="178" height="33" fill="white"/>
</clipPath>
</defs>
</svg>
