<svg width="14" height="14" viewBox="0 0 14 14" fill="none" xmlns="http://www.w3.org/2000/svg">
<path d="M6.99958 4.30325C6.2842 4.30325 5.59812 4.58743 5.09228 5.09328C4.58643 5.59913 4.30225 6.28521 4.30225 7.00058C4.30225 7.71596 4.58643 8.40204 5.09228 8.90789C5.59812 9.41373 6.2842 9.69792 6.99958 9.69792C7.71496 9.69792 8.40103 9.41373 8.90688 8.90789C9.41273 8.40204 9.69691 7.71596 9.69691 7.00058C9.69691 6.28521 9.41273 5.59913 8.90688 5.09328C8.40103 4.58743 7.71496 4.30325 6.99958 4.30325ZM6.99958 8.75233C6.53483 8.75233 6.08912 8.56771 5.76049 8.23909C5.43187 7.91046 5.24725 7.46475 5.24725 7C5.24725 6.53525 5.43187 6.08954 5.76049 5.76091C6.08912 5.43229 6.53483 5.24767 6.99958 5.24767C7.46433 5.24767 7.91004 5.43229 8.23867 5.76091C8.56729 6.08954 8.75191 6.53525 8.75191 7C8.75191 7.46475 8.56729 7.91046 8.23867 8.23909C7.91004 8.56771 7.46433 8.75233 6.99958 8.75233Z" fill="black"/>
<path d="M6.99958 4.30325C6.2842 4.30325 5.59812 4.58743 5.09228 5.09328C4.58643 5.59913 4.30225 6.28521 4.30225 7.00058C4.30225 7.71596 4.58643 8.40204 5.09228 8.90789C5.59812 9.41373 6.2842 9.69792 6.99958 9.69792C7.71496 9.69792 8.40103 9.41373 8.90688 8.90789C9.41273 8.40204 9.69691 7.71596 9.69691 7.00058C9.69691 6.28521 9.41273 5.59913 8.90688 5.09328C8.40103 4.58743 7.71496 4.30325 6.99958 4.30325ZM6.99958 8.75233C6.53483 8.75233 6.08912 8.56771 5.76049 8.23909C5.43187 7.91046 5.24725 7.46475 5.24725 7C5.24725 6.53525 5.43187 6.08954 5.76049 5.76091C6.08912 5.43229 6.53483 5.24767 6.99958 5.24767C7.46433 5.24767 7.91004 5.43229 8.23867 5.76091C8.56729 6.08954 8.75191 6.53525 8.75191 7C8.75191 7.46475 8.56729 7.91046 8.23867 8.23909C7.91004 8.56771 7.46433 8.75233 6.99958 8.75233Z" fill="url(#paint0_linear_602_4382)"/>
<path d="M9.80364 4.83292C10.1509 4.83292 10.4325 4.55138 10.4325 4.20408C10.4325 3.85679 10.1509 3.57525 9.80364 3.57525C9.45634 3.57525 9.1748 3.85679 9.1748 4.20408C9.1748 4.55138 9.45634 4.83292 9.80364 4.83292Z" fill="black"/>
<path d="M9.80364 4.83292C10.1509 4.83292 10.4325 4.55138 10.4325 4.20408C10.4325 3.85679 10.1509 3.57525 9.80364 3.57525C9.45634 3.57525 9.1748 3.85679 9.1748 4.20408C9.1748 4.55138 9.45634 4.83292 9.80364 4.83292Z" fill="url(#paint1_linear_602_4382)"/>
<path d="M11.9774 3.56475C11.8424 3.21602 11.636 2.89933 11.3715 2.63495C11.107 2.37057 10.7903 2.16433 10.4415 2.02942C10.0333 1.87621 9.60216 1.79337 9.16631 1.78442C8.60456 1.75992 8.42664 1.75292 7.00214 1.75292C5.57764 1.75292 5.39506 1.75292 4.83798 1.78442C4.40245 1.79291 3.97158 1.87577 3.56398 2.02942C3.21511 2.16417 2.89826 2.37036 2.63375 2.63476C2.36925 2.89916 2.16294 3.21593 2.02806 3.56475C1.87482 3.97286 1.79217 4.40407 1.78364 4.83992C1.75856 5.40109 1.75098 5.579 1.75098 7.00409C1.75098 8.42859 1.75098 8.61 1.78364 9.16825C1.79239 9.60459 1.87464 10.0351 2.02806 10.444C2.16332 10.7927 2.36983 11.1093 2.6344 11.3737C2.89896 11.6381 3.21576 11.8443 3.56456 11.9793C3.9714 12.1387 4.40244 12.2275 4.83914 12.2418C5.40089 12.2663 5.57881 12.2739 7.00331 12.2739C8.42781 12.2739 8.61039 12.2739 9.16748 12.2418C9.60329 12.233 10.0344 12.1503 10.4426 11.9974C10.7913 11.8622 11.108 11.6558 11.3725 11.3913C11.6369 11.1269 11.8433 10.8102 11.9786 10.4615C12.132 10.0532 12.2142 9.62267 12.223 9.18634C12.2481 8.62517 12.2556 8.44725 12.2556 7.02217C12.2556 5.59709 12.2556 5.41625 12.223 4.858C12.2162 4.41599 12.1331 3.97848 11.9774 3.56475ZM11.2669 9.12509C11.2631 9.46126 11.2018 9.79431 11.0855 10.1098C10.9979 10.3366 10.8638 10.5426 10.6918 10.7145C10.5198 10.8864 10.3137 11.0204 10.0868 11.1078C9.77486 11.2236 9.44535 11.285 9.11264 11.2893C8.55848 11.3149 8.40214 11.3213 6.98114 11.3213C5.55898 11.3213 5.41373 11.3213 4.84906 11.2893C4.51652 11.2852 4.18717 11.2238 3.87548 11.1078C3.64779 11.0209 3.44089 10.8872 3.26816 10.7152C3.09543 10.5433 2.96071 10.337 2.87273 10.1098C2.75807 9.7977 2.69674 9.46858 2.69131 9.13617C2.66623 8.582 2.66039 8.42567 2.66039 7.00467C2.66039 5.58309 2.66039 5.43783 2.69131 4.87258C2.69508 4.5366 2.75644 4.20375 2.87273 3.8885C3.05064 3.42825 3.41523 3.066 3.87548 2.88983C4.18732 2.77442 4.51657 2.71306 4.84906 2.70842C5.40381 2.68334 5.55956 2.67633 6.98114 2.67633C8.40273 2.67633 8.54856 2.67633 9.11264 2.70842C9.44538 2.71242 9.77494 2.77379 10.0868 2.88983C10.3137 2.97749 10.5197 3.11162 10.6917 3.2836C10.8637 3.45559 10.9978 3.66163 11.0855 3.8885C11.2001 4.20056 11.2615 4.52968 11.2669 4.86209C11.292 5.41684 11.2984 5.57258 11.2984 6.99417C11.2984 8.41517 11.2984 8.568 11.2733 9.12567H11.2669V9.12509Z" fill="black"/>
<path d="M11.9774 3.56475C11.8424 3.21602 11.636 2.89933 11.3715 2.63495C11.107 2.37057 10.7903 2.16433 10.4415 2.02942C10.0333 1.87621 9.60216 1.79337 9.16631 1.78442C8.60456 1.75992 8.42664 1.75292 7.00214 1.75292C5.57764 1.75292 5.39506 1.75292 4.83798 1.78442C4.40245 1.79291 3.97158 1.87577 3.56398 2.02942C3.21511 2.16417 2.89826 2.37036 2.63375 2.63476C2.36925 2.89916 2.16294 3.21593 2.02806 3.56475C1.87482 3.97286 1.79217 4.40407 1.78364 4.83992C1.75856 5.40109 1.75098 5.579 1.75098 7.00409C1.75098 8.42859 1.75098 8.61 1.78364 9.16825C1.79239 9.60459 1.87464 10.0351 2.02806 10.444C2.16332 10.7927 2.36983 11.1093 2.6344 11.3737C2.89896 11.6381 3.21576 11.8443 3.56456 11.9793C3.9714 12.1387 4.40244 12.2275 4.83914 12.2418C5.40089 12.2663 5.57881 12.2739 7.00331 12.2739C8.42781 12.2739 8.61039 12.2739 9.16748 12.2418C9.60329 12.233 10.0344 12.1503 10.4426 11.9974C10.7913 11.8622 11.108 11.6558 11.3725 11.3913C11.6369 11.1269 11.8433 10.8102 11.9786 10.4615C12.132 10.0532 12.2142 9.62267 12.223 9.18634C12.2481 8.62517 12.2556 8.44725 12.2556 7.02217C12.2556 5.59709 12.2556 5.41625 12.223 4.858C12.2162 4.41599 12.1331 3.97848 11.9774 3.56475ZM11.2669 9.12509C11.2631 9.46126 11.2018 9.79431 11.0855 10.1098C10.9979 10.3366 10.8638 10.5426 10.6918 10.7145C10.5198 10.8864 10.3137 11.0204 10.0868 11.1078C9.77486 11.2236 9.44535 11.285 9.11264 11.2893C8.55848 11.3149 8.40214 11.3213 6.98114 11.3213C5.55898 11.3213 5.41373 11.3213 4.84906 11.2893C4.51652 11.2852 4.18717 11.2238 3.87548 11.1078C3.64779 11.0209 3.44089 10.8872 3.26816 10.7152C3.09543 10.5433 2.96071 10.337 2.87273 10.1098C2.75807 9.7977 2.69674 9.46858 2.69131 9.13617C2.66623 8.582 2.66039 8.42567 2.66039 7.00467C2.66039 5.58309 2.66039 5.43783 2.69131 4.87258C2.69508 4.5366 2.75644 4.20375 2.87273 3.8885C3.05064 3.42825 3.41523 3.066 3.87548 2.88983C4.18732 2.77442 4.51657 2.71306 4.84906 2.70842C5.40381 2.68334 5.55956 2.67633 6.98114 2.67633C8.40273 2.67633 8.54856 2.67633 9.11264 2.70842C9.44538 2.71242 9.77494 2.77379 10.0868 2.88983C10.3137 2.97749 10.5197 3.11162 10.6917 3.2836C10.8637 3.45559 10.9978 3.66163 11.0855 3.8885C11.2001 4.20056 11.2615 4.52968 11.2669 4.86209C11.292 5.41684 11.2984 5.57258 11.2984 6.99417C11.2984 8.41517 11.2984 8.568 11.2733 9.12567H11.2669V9.12509Z" fill="url(#paint2_linear_602_4382)"/>
<defs>
<linearGradient id="paint0_linear_602_4382" x1="8.79775" y1="5.20242" x2="3.7629" y2="10.2372" gradientUnits="userSpaceOnUse">
<stop offset="0.112738" stop-color="#5C4EC4"/>
<stop offset="0.76042" stop-color="#FF9700"/>
</linearGradient>
<linearGradient id="paint1_linear_602_4382" x1="10.2228" y1="3.78487" x2="9.04907" y2="4.95864" gradientUnits="userSpaceOnUse">
<stop offset="0.112738" stop-color="#5C4EC4"/>
<stop offset="0.76042" stop-color="#FF9700"/>
</linearGradient>
<linearGradient id="paint2_linear_602_4382" x1="10.5048" y1="3.50653" x2="0.685505" y2="13.3104" gradientUnits="userSpaceOnUse">
<stop offset="0.112738" stop-color="#5C4EC4"/>
<stop offset="0.76042" stop-color="#FF9700"/>
</linearGradient>
</defs>
</svg>
