<svg width="43" height="43" viewBox="0 0 43 43" fill="none" xmlns="http://www.w3.org/2000/svg">
<path d="M37.625 21.5C37.625 23.6176 37.2079 25.7144 36.3976 27.6708C35.5872 29.6271 34.3994 31.4048 32.9021 32.9021C31.4048 34.3994 29.6271 35.5872 27.6708 36.3976C25.7144 37.2079 23.6176 37.625 21.5 37.625C19.3824 37.625 17.2856 37.2079 15.3292 36.3976C13.3729 35.5872 11.5952 34.3994 10.0979 32.9021C8.60056 31.4048 7.4128 29.6271 6.60244 27.6708C5.79209 25.7144 5.375 23.6176 5.375 21.5C5.375 17.2234 7.07388 13.1219 10.0979 10.0979C13.1219 7.07388 17.2234 5.375 21.5 5.375C25.7766 5.375 29.8781 7.07388 32.9021 10.0979C35.9261 13.1219 37.625 17.2234 37.625 21.5Z" stroke="#FBDC5D" stroke-width="2.6875" stroke-linecap="round" stroke-linejoin="round"/>
<path d="M28.5054 20.9124C28.6103 20.9705 28.6978 21.0557 28.7586 21.159C28.8195 21.2623 28.8516 21.3801 28.8516 21.5C28.8516 21.62 28.8195 21.7377 28.7586 21.8411C28.6978 21.9444 28.6103 22.0296 28.5054 22.0877L18.4667 27.6652C18.3644 27.7219 18.2491 27.751 18.1321 27.7495C18.0151 27.748 17.9005 27.716 17.7997 27.6567C17.6989 27.5973 17.6153 27.5126 17.5573 27.411C17.4992 27.3095 17.4687 27.1945 17.4688 27.0775V15.9226C17.4688 15.4102 18.0188 15.0877 18.4667 15.3367L28.5054 20.9124Z" stroke="#FBDC5D" stroke-width="2.6875" stroke-linecap="round" stroke-linejoin="round"/>
</svg>
