<svg width="27" height="26" viewBox="0 0 27 26" fill="none" xmlns="http://www.w3.org/2000/svg">
<path d="M24 21.8177C24 23.3617 22.8 24.625 21.3333 24.625H6.66667C5.2 24.625 4 23.3617 4 21.8177V9.88645C4 8.34241 5.2 7.0791 6.66667 7.0791H21.3333C22.8 7.0791 24 8.34241 24 9.88645V21.8177Z" fill="#FDD888"/>
<path d="M26 7.78098C26 9.32503 24.8 10.5883 23.3333 10.5883H4.66667C3.2 10.5883 2 9.32503 2 7.78098C2 6.23694 3.2 4.97363 4.66667 4.97363H23.3333C24.8 4.97363 26 6.23694 26 7.78098Z" fill="#FDD888"/>
<path d="M4 10.5879H24V11.9916H4V10.5879Z" fill="#FCAB40"/>
<path d="M14.6668 2.16602H13.3335C12.2288 2.16602 11.3335 3.10858 11.3335 4.27153V24.6248H16.6668V4.27153C16.6668 3.10929 15.7715 2.16602 14.6668 2.16602Z" fill="#DA2F47"/>
<path d="M12.6667 4.9735C13.4001 4.9735 13.5087 4.61135 12.9074 4.16849L8.42607 0.86564C7.82474 0.42278 7.03607 0.608767 6.67207 1.27902L5.32807 3.75511C4.96407 4.42536 5.26674 4.9735 6.00007 4.9735H12.6667ZM15.3334 4.9735C14.6001 4.9735 14.4914 4.61135 15.0927 4.16849L19.5747 0.86564C20.1754 0.42278 20.9647 0.608767 21.3287 1.27902L22.6727 3.7544C23.0361 4.42536 22.7334 4.9735 22.0001 4.9735H15.3334Z" fill="#DA2F47"/>
</svg>
